G04 #@! TF.FileFunction,Legend,Top*
%FSLAX46Y46*%
G04 Gerber Fmt 4.6, Leading zero omitted, Abs format (unit mm)*
G04 Created by KiCad (PCBNEW 4.0.2+e4-6225~38~ubuntu15.10.1-stable) date Son 24 Jul 2016 14:48:10 CEST*
%MOMM*%
G01*
G04 APERTURE LIST*
%ADD10C,0.100000*%
%ADD11C,0.300000*%
%ADD12C,0.150000*%
G04 APERTURE END LIST*
D10*
D11*
X132278572Y-83498571D02*
X132635715Y-84498571D01*
X132992857Y-83498571D01*
X133492857Y-83141429D02*
X133564286Y-83070000D01*
X133707143Y-82998571D01*
X134064286Y-82998571D01*
X134207143Y-83070000D01*
X134278572Y-83141429D01*
X134350000Y-83284286D01*
X134350000Y-83427143D01*
X134278572Y-83641429D01*
X133421429Y-84498571D01*
X134350000Y-84498571D01*
X108783572Y-83498571D02*
X109140715Y-84498571D01*
X109497857Y-83498571D01*
X110855000Y-84498571D02*
X109997857Y-84498571D01*
X110426429Y-84498571D02*
X110426429Y-82998571D01*
X110283572Y-83212857D01*
X110140714Y-83355714D01*
X109997857Y-83427143D01*
X148312143Y-64742143D02*
X148169286Y-64813571D01*
X147883572Y-64813571D01*
X147740714Y-64742143D01*
X147669286Y-64670714D01*
X147597857Y-64527857D01*
X147597857Y-64099286D01*
X147669286Y-63956429D01*
X147740714Y-63885000D01*
X147883572Y-63813571D01*
X148169286Y-63813571D01*
X148312143Y-63885000D01*
X153174286Y-61908571D02*
X153174286Y-63122857D01*
X153102857Y-63265714D01*
X153031429Y-63337143D01*
X152888572Y-63408571D01*
X152674286Y-63408571D01*
X152531429Y-63337143D01*
X153174286Y-62837143D02*
X153031429Y-62908571D01*
X152745715Y-62908571D01*
X152602857Y-62837143D01*
X152531429Y-62765714D01*
X152460000Y-62622857D01*
X152460000Y-62194286D01*
X152531429Y-62051429D01*
X152602857Y-61980000D01*
X152745715Y-61908571D01*
X153031429Y-61908571D01*
X153174286Y-61980000D01*
X153888572Y-62908571D02*
X153888572Y-61908571D01*
X153888572Y-62194286D02*
X153960000Y-62051429D01*
X154031429Y-61980000D01*
X154174286Y-61908571D01*
X154317143Y-61908571D01*
X154817143Y-62908571D02*
X154817143Y-61908571D01*
X154817143Y-61408571D02*
X154745714Y-61480000D01*
X154817143Y-61551429D01*
X154888571Y-61480000D01*
X154817143Y-61408571D01*
X154817143Y-61551429D01*
X156174286Y-62908571D02*
X156174286Y-61408571D01*
X156174286Y-62837143D02*
X156031429Y-62908571D01*
X155745715Y-62908571D01*
X155602857Y-62837143D01*
X155531429Y-62765714D01*
X155460000Y-62622857D01*
X155460000Y-62194286D01*
X155531429Y-62051429D01*
X155602857Y-61980000D01*
X155745715Y-61908571D01*
X156031429Y-61908571D01*
X156174286Y-61980000D01*
X157888572Y-61908571D02*
X158245715Y-62908571D01*
X158602857Y-61908571D01*
X159102857Y-61551429D02*
X159174286Y-61480000D01*
X159317143Y-61408571D01*
X159674286Y-61408571D01*
X159817143Y-61480000D01*
X159888572Y-61551429D01*
X159960000Y-61694286D01*
X159960000Y-61837143D01*
X159888572Y-62051429D01*
X159031429Y-62908571D01*
X159960000Y-62908571D01*
X81601429Y-89848571D02*
X81601429Y-91062857D01*
X81530000Y-91205714D01*
X81458572Y-91277143D01*
X81315715Y-91348571D01*
X81101429Y-91348571D01*
X80958572Y-91277143D01*
X81601429Y-90777143D02*
X81458572Y-90848571D01*
X81172858Y-90848571D01*
X81030000Y-90777143D01*
X80958572Y-90705714D01*
X80887143Y-90562857D01*
X80887143Y-90134286D01*
X80958572Y-89991429D01*
X81030000Y-89920000D01*
X81172858Y-89848571D01*
X81458572Y-89848571D01*
X81601429Y-89920000D01*
X81601429Y-88308571D02*
X81601429Y-87522857D01*
X81530000Y-87380000D01*
X81387143Y-87308571D01*
X81101429Y-87308571D01*
X80958572Y-87380000D01*
X81601429Y-88237143D02*
X81458572Y-88308571D01*
X81101429Y-88308571D01*
X80958572Y-88237143D01*
X80887143Y-88094286D01*
X80887143Y-87951429D01*
X80958572Y-87808571D01*
X81101429Y-87737143D01*
X81458572Y-87737143D01*
X81601429Y-87665714D01*
X80958572Y-85768571D02*
X80958572Y-84268571D01*
X80958572Y-84840000D02*
X81101429Y-84768571D01*
X81387143Y-84768571D01*
X81530000Y-84840000D01*
X81601429Y-84911429D01*
X81672858Y-85054286D01*
X81672858Y-85482857D01*
X81601429Y-85625714D01*
X81530000Y-85697143D01*
X81387143Y-85768571D01*
X81101429Y-85768571D01*
X80958572Y-85697143D01*
X80958572Y-83228571D02*
X80958572Y-81728571D01*
X81601429Y-83228571D02*
X81601429Y-82442857D01*
X81530000Y-82300000D01*
X81387143Y-82228571D01*
X81172858Y-82228571D01*
X81030000Y-82300000D01*
X80958572Y-82371429D01*
X81565714Y-80617143D02*
X81422857Y-80688571D01*
X81137143Y-80688571D01*
X80994286Y-80617143D01*
X80922857Y-80474286D01*
X80922857Y-79902857D01*
X80994286Y-79760000D01*
X81137143Y-79688571D01*
X81422857Y-79688571D01*
X81565714Y-79760000D01*
X81637143Y-79902857D01*
X81637143Y-80045714D01*
X80922857Y-80188571D01*
X81419286Y-77148571D02*
X81419286Y-78362857D01*
X81347857Y-78505714D01*
X81276429Y-78577143D01*
X81133572Y-78648571D01*
X80919286Y-78648571D01*
X80776429Y-78577143D01*
X81419286Y-78077143D02*
X81276429Y-78148571D01*
X80990715Y-78148571D01*
X80847857Y-78077143D01*
X80776429Y-78005714D01*
X80705000Y-77862857D01*
X80705000Y-77434286D01*
X80776429Y-77291429D01*
X80847857Y-77220000D01*
X80990715Y-77148571D01*
X81276429Y-77148571D01*
X81419286Y-77220000D01*
X82133572Y-78148571D02*
X82133572Y-77148571D01*
X82133572Y-77434286D02*
X82205000Y-77291429D01*
X82276429Y-77220000D01*
X82419286Y-77148571D01*
X82562143Y-77148571D01*
X83062143Y-78148571D02*
X83062143Y-77148571D01*
X83062143Y-76648571D02*
X82990714Y-76720000D01*
X83062143Y-76791429D01*
X83133571Y-76720000D01*
X83062143Y-76648571D01*
X83062143Y-76791429D01*
X84419286Y-78148571D02*
X84419286Y-76648571D01*
X84419286Y-78077143D02*
X84276429Y-78148571D01*
X83990715Y-78148571D01*
X83847857Y-78077143D01*
X83776429Y-78005714D01*
X83705000Y-77862857D01*
X83705000Y-77434286D01*
X83776429Y-77291429D01*
X83847857Y-77220000D01*
X83990715Y-77148571D01*
X84276429Y-77148571D01*
X84419286Y-77220000D01*
X86133572Y-77148571D02*
X86490715Y-78148571D01*
X86847857Y-77148571D01*
X88205000Y-78148571D02*
X87347857Y-78148571D01*
X87776429Y-78148571D02*
X87776429Y-76648571D01*
X87633572Y-76862857D01*
X87490714Y-77005714D01*
X87347857Y-77077143D01*
X81601429Y-75608571D02*
X81601429Y-74108571D01*
X81601429Y-75537143D02*
X81458572Y-75608571D01*
X81172858Y-75608571D01*
X81030000Y-75537143D01*
X80958572Y-75465714D01*
X80887143Y-75322857D01*
X80887143Y-74894286D01*
X80958572Y-74751429D01*
X81030000Y-74680000D01*
X81172858Y-74608571D01*
X81458572Y-74608571D01*
X81601429Y-74680000D01*
X80994286Y-72068571D02*
X81565715Y-72068571D01*
X81208572Y-73068571D02*
X81208572Y-71782857D01*
X81280000Y-71640000D01*
X81422858Y-71568571D01*
X81565715Y-71568571D01*
X147205000Y-98032143D02*
X147133571Y-98175000D01*
X147133571Y-98389286D01*
X147205000Y-98603571D01*
X147347857Y-98746429D01*
X147490714Y-98817857D01*
X147776429Y-98889286D01*
X147990714Y-98889286D01*
X148276429Y-98817857D01*
X148419286Y-98746429D01*
X148562143Y-98603571D01*
X148633571Y-98389286D01*
X148633571Y-98246429D01*
X148562143Y-98032143D01*
X148490714Y-97960714D01*
X147990714Y-97960714D01*
X147990714Y-98246429D01*
X151173571Y-98718571D02*
X151173571Y-99575714D01*
X151173571Y-99147142D02*
X149673571Y-99147142D01*
X149887857Y-99289999D01*
X150030714Y-99432857D01*
X150102143Y-99575714D01*
X149673571Y-97361428D02*
X149673571Y-98075714D01*
X150387857Y-98147143D01*
X150316429Y-98075714D01*
X150245000Y-97932857D01*
X150245000Y-97575714D01*
X150316429Y-97432857D01*
X150387857Y-97361428D01*
X150530714Y-97290000D01*
X150887857Y-97290000D01*
X151030714Y-97361428D01*
X151102143Y-97432857D01*
X151173571Y-97575714D01*
X151173571Y-97932857D01*
X151102143Y-98075714D01*
X151030714Y-98147143D01*
X149673571Y-96861429D02*
X151173571Y-96361429D01*
X149673571Y-95861429D01*
X112109286Y-74338571D02*
X111252143Y-74338571D01*
X111680715Y-74338571D02*
X111680715Y-72838571D01*
X111537858Y-73052857D01*
X111395000Y-73195714D01*
X111252143Y-73267143D01*
X112680714Y-72981429D02*
X112752143Y-72910000D01*
X112895000Y-72838571D01*
X113252143Y-72838571D01*
X113395000Y-72910000D01*
X113466429Y-72981429D01*
X113537857Y-73124286D01*
X113537857Y-73267143D01*
X113466429Y-73481429D01*
X112609286Y-74338571D01*
X113537857Y-74338571D01*
X135604286Y-74338571D02*
X134747143Y-74338571D01*
X135175715Y-74338571D02*
X135175715Y-72838571D01*
X135032858Y-73052857D01*
X134890000Y-73195714D01*
X134747143Y-73267143D01*
X136175714Y-72981429D02*
X136247143Y-72910000D01*
X136390000Y-72838571D01*
X136747143Y-72838571D01*
X136890000Y-72910000D01*
X136961429Y-72981429D01*
X137032857Y-73124286D01*
X137032857Y-73267143D01*
X136961429Y-73481429D01*
X136104286Y-74338571D01*
X137032857Y-74338571D01*
D12*
X106045000Y-103505000D02*
X100965000Y-103505000D01*
X100965000Y-103505000D02*
X100965000Y-100965000D01*
X100965000Y-100965000D02*
X106045000Y-100965000D01*
X106045000Y-100965000D02*
X106045000Y-103505000D01*
X106045000Y-102235000D02*
X107315000Y-102235000D01*
X100965000Y-102235000D02*
X99695000Y-102235000D01*
X141605000Y-53975000D02*
X136525000Y-53975000D01*
X136525000Y-53975000D02*
X136525000Y-51435000D01*
X136525000Y-51435000D02*
X141605000Y-51435000D01*
X141605000Y-51435000D02*
X141605000Y-53975000D01*
X141605000Y-52705000D02*
X142875000Y-52705000D01*
X136525000Y-52705000D02*
X135255000Y-52705000D01*
X100965000Y-59690000D02*
X106045000Y-59690000D01*
X106045000Y-59690000D02*
X106045000Y-62230000D01*
X106045000Y-62230000D02*
X100965000Y-62230000D01*
X100965000Y-62230000D02*
X100965000Y-59690000D01*
X100965000Y-60960000D02*
X99695000Y-60960000D01*
X106045000Y-60960000D02*
X107315000Y-60960000D01*
X151765000Y-111065000D02*
X151765000Y-102235000D01*
X149225000Y-111065000D02*
X151765000Y-111065000D01*
X149225000Y-102235000D02*
X149225000Y-111065000D01*
X149225000Y-102235000D02*
X151765000Y-102235000D01*
X146685000Y-102235000D02*
X149225000Y-102235000D01*
X147955000Y-99565000D02*
X146405000Y-99565000D01*
X146405000Y-99565000D02*
X146405000Y-100965000D01*
X146685000Y-102235000D02*
X146685000Y-111065000D01*
X146685000Y-111065000D02*
X149225000Y-111065000D01*
X149225000Y-111065000D02*
X149225000Y-102235000D01*
X66735000Y-88900000D02*
X75565000Y-88900000D01*
X66735000Y-86360000D02*
X66735000Y-88900000D01*
X75565000Y-86360000D02*
X75565000Y-88900000D01*
X75565000Y-88900000D02*
X75565000Y-91440000D01*
X66735000Y-88900000D02*
X66735000Y-91440000D01*
X66735000Y-91440000D02*
X75565000Y-91440000D01*
X66735000Y-86360000D02*
X75565000Y-86360000D01*
X66735000Y-83820000D02*
X66735000Y-86360000D01*
X75565000Y-83820000D02*
X75565000Y-86360000D01*
X75565000Y-81280000D02*
X75565000Y-83820000D01*
X66735000Y-81280000D02*
X66735000Y-83820000D01*
X66735000Y-83820000D02*
X75565000Y-83820000D01*
X66735000Y-81280000D02*
X75565000Y-81280000D01*
X66735000Y-78740000D02*
X66735000Y-81280000D01*
X75565000Y-78740000D02*
X75565000Y-81280000D01*
X75565000Y-76200000D02*
X75565000Y-78740000D01*
X66735000Y-76200000D02*
X66735000Y-78740000D01*
X66735000Y-78740000D02*
X75565000Y-78740000D01*
X66735000Y-76200000D02*
X75565000Y-76200000D01*
X66735000Y-73660000D02*
X66735000Y-76200000D01*
X75565000Y-73660000D02*
X66735000Y-73660000D01*
X75565000Y-73660000D02*
X75565000Y-76200000D01*
X75565000Y-71120000D02*
X75565000Y-73660000D01*
X78235000Y-72390000D02*
X78235000Y-70840000D01*
X78235000Y-70840000D02*
X76835000Y-70840000D01*
X75565000Y-71120000D02*
X66735000Y-71120000D01*
X66735000Y-71120000D02*
X66735000Y-73660000D01*
X66735000Y-73660000D02*
X75565000Y-73660000D01*
X100965000Y-109220000D02*
X106045000Y-109220000D01*
X106045000Y-109220000D02*
X106045000Y-111760000D01*
X106045000Y-111760000D02*
X100965000Y-111760000D01*
X100965000Y-111760000D02*
X100965000Y-109220000D01*
X100965000Y-110490000D02*
X99695000Y-110490000D01*
X106045000Y-110490000D02*
X107315000Y-110490000D01*
X118745000Y-59690000D02*
X123825000Y-59690000D01*
X123825000Y-59690000D02*
X123825000Y-62230000D01*
X123825000Y-62230000D02*
X118745000Y-62230000D01*
X118745000Y-62230000D02*
X118745000Y-59690000D01*
X118745000Y-60960000D02*
X117475000Y-60960000D01*
X123825000Y-60960000D02*
X125095000Y-60960000D01*
X123825000Y-53975000D02*
X118745000Y-53975000D01*
X118745000Y-53975000D02*
X118745000Y-51435000D01*
X118745000Y-51435000D02*
X123825000Y-51435000D01*
X123825000Y-51435000D02*
X123825000Y-53975000D01*
X123825000Y-52705000D02*
X125095000Y-52705000D01*
X118745000Y-52705000D02*
X117475000Y-52705000D01*
X141605000Y-103505000D02*
X136525000Y-103505000D01*
X136525000Y-103505000D02*
X136525000Y-100965000D01*
X136525000Y-100965000D02*
X141605000Y-100965000D01*
X141605000Y-100965000D02*
X141605000Y-103505000D01*
X141605000Y-102235000D02*
X142875000Y-102235000D01*
X136525000Y-102235000D02*
X135255000Y-102235000D01*
X136525000Y-109220000D02*
X141605000Y-109220000D01*
X141605000Y-109220000D02*
X141605000Y-111760000D01*
X141605000Y-111760000D02*
X136525000Y-111760000D01*
X136525000Y-111760000D02*
X136525000Y-109220000D01*
X136525000Y-110490000D02*
X135255000Y-110490000D01*
X141605000Y-110490000D02*
X142875000Y-110490000D01*
X106045000Y-53975000D02*
X100965000Y-53975000D01*
X100965000Y-53975000D02*
X100965000Y-51435000D01*
X100965000Y-51435000D02*
X106045000Y-51435000D01*
X106045000Y-51435000D02*
X106045000Y-53975000D01*
X106045000Y-52705000D02*
X107315000Y-52705000D01*
X100965000Y-52705000D02*
X99695000Y-52705000D01*
X154940000Y-86360000D02*
X154940000Y-91440000D01*
X154940000Y-91440000D02*
X152400000Y-91440000D01*
X152400000Y-91440000D02*
X152400000Y-86360000D01*
X152400000Y-86360000D02*
X154940000Y-86360000D01*
X153670000Y-86360000D02*
X153670000Y-85090000D01*
X153670000Y-91440000D02*
X153670000Y-92710000D01*
X160655000Y-91440000D02*
X160655000Y-86360000D01*
X160655000Y-86360000D02*
X163195000Y-86360000D01*
X163195000Y-86360000D02*
X163195000Y-91440000D01*
X163195000Y-91440000D02*
X160655000Y-91440000D01*
X161925000Y-91440000D02*
X161925000Y-92710000D01*
X161925000Y-86360000D02*
X161925000Y-85090000D01*
X85725000Y-59690000D02*
X90805000Y-59690000D01*
X90805000Y-59690000D02*
X90805000Y-62230000D01*
X90805000Y-62230000D02*
X85725000Y-62230000D01*
X85725000Y-62230000D02*
X85725000Y-59690000D01*
X85725000Y-60960000D02*
X84455000Y-60960000D01*
X90805000Y-60960000D02*
X92075000Y-60960000D01*
X90805000Y-53975000D02*
X85725000Y-53975000D01*
X85725000Y-53975000D02*
X85725000Y-51435000D01*
X85725000Y-51435000D02*
X90805000Y-51435000D01*
X90805000Y-51435000D02*
X90805000Y-53975000D01*
X90805000Y-52705000D02*
X92075000Y-52705000D01*
X85725000Y-52705000D02*
X84455000Y-52705000D01*
X90805000Y-103505000D02*
X85725000Y-103505000D01*
X85725000Y-103505000D02*
X85725000Y-100965000D01*
X85725000Y-100965000D02*
X90805000Y-100965000D01*
X90805000Y-100965000D02*
X90805000Y-103505000D01*
X90805000Y-102235000D02*
X92075000Y-102235000D01*
X85725000Y-102235000D02*
X84455000Y-102235000D01*
X85725000Y-109220000D02*
X90805000Y-109220000D01*
X90805000Y-109220000D02*
X90805000Y-111760000D01*
X90805000Y-111760000D02*
X85725000Y-111760000D01*
X85725000Y-111760000D02*
X85725000Y-109220000D01*
X85725000Y-110490000D02*
X84455000Y-110490000D01*
X90805000Y-110490000D02*
X92075000Y-110490000D01*
X123825000Y-103505000D02*
X118745000Y-103505000D01*
X118745000Y-103505000D02*
X118745000Y-100965000D01*
X118745000Y-100965000D02*
X123825000Y-100965000D01*
X123825000Y-100965000D02*
X123825000Y-103505000D01*
X123825000Y-102235000D02*
X125095000Y-102235000D01*
X118745000Y-102235000D02*
X117475000Y-102235000D01*
X118745000Y-109220000D02*
X123825000Y-109220000D01*
X123825000Y-109220000D02*
X123825000Y-111760000D01*
X123825000Y-111760000D02*
X118745000Y-111760000D01*
X118745000Y-111760000D02*
X118745000Y-109220000D01*
X118745000Y-110490000D02*
X117475000Y-110490000D01*
X123825000Y-110490000D02*
X125095000Y-110490000D01*
X154940000Y-71120000D02*
X154940000Y-76200000D01*
X154940000Y-76200000D02*
X152400000Y-76200000D01*
X152400000Y-76200000D02*
X152400000Y-71120000D01*
X152400000Y-71120000D02*
X154940000Y-71120000D01*
X153670000Y-71120000D02*
X153670000Y-69850000D01*
X153670000Y-76200000D02*
X153670000Y-77470000D01*
X160655000Y-76200000D02*
X160655000Y-71120000D01*
X160655000Y-71120000D02*
X163195000Y-71120000D01*
X163195000Y-71120000D02*
X163195000Y-76200000D01*
X163195000Y-76200000D02*
X160655000Y-76200000D01*
X161925000Y-76200000D02*
X161925000Y-77470000D01*
X161925000Y-71120000D02*
X161925000Y-69850000D01*
X146685000Y-52130000D02*
X146685000Y-60960000D01*
X149225000Y-52130000D02*
X146685000Y-52130000D01*
X149225000Y-60960000D02*
X149225000Y-52130000D01*
X149225000Y-60960000D02*
X146685000Y-60960000D01*
X151765000Y-60960000D02*
X149225000Y-60960000D01*
X150495000Y-63630000D02*
X152045000Y-63630000D01*
X152045000Y-63630000D02*
X152045000Y-62230000D01*
X151765000Y-60960000D02*
X151765000Y-52130000D01*
X151765000Y-52130000D02*
X149225000Y-52130000D01*
X149225000Y-52130000D02*
X149225000Y-60960000D01*
X136525000Y-59690000D02*
X141605000Y-59690000D01*
X141605000Y-59690000D02*
X141605000Y-62230000D01*
X141605000Y-62230000D02*
X136525000Y-62230000D01*
X136525000Y-62230000D02*
X136525000Y-59690000D01*
X136525000Y-60960000D02*
X135255000Y-60960000D01*
X141605000Y-60960000D02*
X142875000Y-60960000D01*
X128905000Y-64890000D02*
X131445000Y-64890000D01*
X131445000Y-64890000D02*
X131445000Y-54730000D01*
X131445000Y-54730000D02*
X128905000Y-54730000D01*
X128905000Y-54730000D02*
X128905000Y-64890000D01*
X130175000Y-53580000D02*
X130175000Y-54730000D01*
X130175000Y-66040000D02*
X130175000Y-64890000D01*
X111125000Y-64890000D02*
X113665000Y-64890000D01*
X113665000Y-64890000D02*
X113665000Y-54730000D01*
X113665000Y-54730000D02*
X111125000Y-54730000D01*
X111125000Y-54730000D02*
X111125000Y-64890000D01*
X112395000Y-53580000D02*
X112395000Y-54730000D01*
X112395000Y-66040000D02*
X112395000Y-64890000D01*
X106045000Y-95882460D02*
X107061000Y-95882460D01*
X101219000Y-95882460D02*
X99949000Y-95882460D01*
X101473000Y-94612460D02*
X101473000Y-97152460D01*
X101727000Y-94612460D02*
X101727000Y-97152460D01*
X101981000Y-94612460D02*
X101981000Y-97152460D01*
X101219000Y-94612460D02*
X101219000Y-97152460D01*
X102235000Y-94612460D02*
X100965000Y-97152460D01*
X100965000Y-94612460D02*
X102235000Y-97152460D01*
X102235000Y-94612460D02*
X102235000Y-97152460D01*
X101600000Y-94612460D02*
X101600000Y-97152460D01*
X100965000Y-97152460D02*
X100965000Y-94612460D01*
X100965000Y-94612460D02*
X106045000Y-94612460D01*
X106045000Y-94612460D02*
X106045000Y-97152460D01*
X106045000Y-97152460D02*
X100965000Y-97152460D01*
X118745000Y-67312540D02*
X117729000Y-67312540D01*
X123571000Y-67312540D02*
X124841000Y-67312540D01*
X123317000Y-68582540D02*
X123317000Y-66042540D01*
X123063000Y-68582540D02*
X123063000Y-66042540D01*
X122809000Y-68582540D02*
X122809000Y-66042540D01*
X123571000Y-68582540D02*
X123571000Y-66042540D01*
X122555000Y-68582540D02*
X123825000Y-66042540D01*
X123825000Y-68582540D02*
X122555000Y-66042540D01*
X122555000Y-68582540D02*
X122555000Y-66042540D01*
X123190000Y-68582540D02*
X123190000Y-66042540D01*
X123825000Y-66042540D02*
X123825000Y-68582540D01*
X123825000Y-68582540D02*
X118745000Y-68582540D01*
X118745000Y-68582540D02*
X118745000Y-66042540D01*
X118745000Y-66042540D02*
X123825000Y-66042540D01*
X141605000Y-95882460D02*
X142621000Y-95882460D01*
X136779000Y-95882460D02*
X135509000Y-95882460D01*
X137033000Y-94612460D02*
X137033000Y-97152460D01*
X137287000Y-94612460D02*
X137287000Y-97152460D01*
X137541000Y-94612460D02*
X137541000Y-97152460D01*
X136779000Y-94612460D02*
X136779000Y-97152460D01*
X137795000Y-94612460D02*
X136525000Y-97152460D01*
X136525000Y-94612460D02*
X137795000Y-97152460D01*
X137795000Y-94612460D02*
X137795000Y-97152460D01*
X137160000Y-94612460D02*
X137160000Y-97152460D01*
X136525000Y-97152460D02*
X136525000Y-94612460D01*
X136525000Y-94612460D02*
X141605000Y-94612460D01*
X141605000Y-94612460D02*
X141605000Y-97152460D01*
X141605000Y-97152460D02*
X136525000Y-97152460D01*
X136525000Y-67312540D02*
X135509000Y-67312540D01*
X141351000Y-67312540D02*
X142621000Y-67312540D01*
X141097000Y-68582540D02*
X141097000Y-66042540D01*
X140843000Y-68582540D02*
X140843000Y-66042540D01*
X140589000Y-68582540D02*
X140589000Y-66042540D01*
X141351000Y-68582540D02*
X141351000Y-66042540D01*
X140335000Y-68582540D02*
X141605000Y-66042540D01*
X141605000Y-68582540D02*
X140335000Y-66042540D01*
X140335000Y-68582540D02*
X140335000Y-66042540D01*
X140970000Y-68582540D02*
X140970000Y-66042540D01*
X141605000Y-66042540D02*
X141605000Y-68582540D01*
X141605000Y-68582540D02*
X136525000Y-68582540D01*
X136525000Y-68582540D02*
X136525000Y-66042540D01*
X136525000Y-66042540D02*
X141605000Y-66042540D01*
X100965000Y-67312540D02*
X99949000Y-67312540D01*
X105791000Y-67312540D02*
X107061000Y-67312540D01*
X105537000Y-68582540D02*
X105537000Y-66042540D01*
X105283000Y-68582540D02*
X105283000Y-66042540D01*
X105029000Y-68582540D02*
X105029000Y-66042540D01*
X105791000Y-68582540D02*
X105791000Y-66042540D01*
X104775000Y-68582540D02*
X106045000Y-66042540D01*
X106045000Y-68582540D02*
X104775000Y-66042540D01*
X104775000Y-68582540D02*
X104775000Y-66042540D01*
X105410000Y-68582540D02*
X105410000Y-66042540D01*
X106045000Y-66042540D02*
X106045000Y-68582540D01*
X106045000Y-68582540D02*
X100965000Y-68582540D01*
X100965000Y-68582540D02*
X100965000Y-66042540D01*
X100965000Y-66042540D02*
X106045000Y-66042540D01*
X147317460Y-86360000D02*
X147317460Y-85344000D01*
X147317460Y-91186000D02*
X147317460Y-92456000D01*
X146047460Y-90932000D02*
X148587460Y-90932000D01*
X146047460Y-90678000D02*
X148587460Y-90678000D01*
X146047460Y-90424000D02*
X148587460Y-90424000D01*
X146047460Y-91186000D02*
X148587460Y-91186000D01*
X146047460Y-90170000D02*
X148587460Y-91440000D01*
X146047460Y-91440000D02*
X148587460Y-90170000D01*
X146047460Y-90170000D02*
X148587460Y-90170000D01*
X146047460Y-90805000D02*
X148587460Y-90805000D01*
X148587460Y-91440000D02*
X146047460Y-91440000D01*
X146047460Y-91440000D02*
X146047460Y-86360000D01*
X146047460Y-86360000D02*
X148587460Y-86360000D01*
X148587460Y-86360000D02*
X148587460Y-91440000D01*
X85725000Y-67312540D02*
X84709000Y-67312540D01*
X90551000Y-67312540D02*
X91821000Y-67312540D01*
X90297000Y-68582540D02*
X90297000Y-66042540D01*
X90043000Y-68582540D02*
X90043000Y-66042540D01*
X89789000Y-68582540D02*
X89789000Y-66042540D01*
X90551000Y-68582540D02*
X90551000Y-66042540D01*
X89535000Y-68582540D02*
X90805000Y-66042540D01*
X90805000Y-68582540D02*
X89535000Y-66042540D01*
X89535000Y-68582540D02*
X89535000Y-66042540D01*
X90170000Y-68582540D02*
X90170000Y-66042540D01*
X90805000Y-66042540D02*
X90805000Y-68582540D01*
X90805000Y-68582540D02*
X85725000Y-68582540D01*
X85725000Y-68582540D02*
X85725000Y-66042540D01*
X85725000Y-66042540D02*
X90805000Y-66042540D01*
X90805000Y-95882460D02*
X91821000Y-95882460D01*
X85979000Y-95882460D02*
X84709000Y-95882460D01*
X86233000Y-94612460D02*
X86233000Y-97152460D01*
X86487000Y-94612460D02*
X86487000Y-97152460D01*
X86741000Y-94612460D02*
X86741000Y-97152460D01*
X85979000Y-94612460D02*
X85979000Y-97152460D01*
X86995000Y-94612460D02*
X85725000Y-97152460D01*
X85725000Y-94612460D02*
X86995000Y-97152460D01*
X86995000Y-94612460D02*
X86995000Y-97152460D01*
X86360000Y-94612460D02*
X86360000Y-97152460D01*
X85725000Y-97152460D02*
X85725000Y-94612460D01*
X85725000Y-94612460D02*
X90805000Y-94612460D01*
X90805000Y-94612460D02*
X90805000Y-97152460D01*
X90805000Y-97152460D02*
X85725000Y-97152460D01*
X123825000Y-95882460D02*
X124841000Y-95882460D01*
X118999000Y-95882460D02*
X117729000Y-95882460D01*
X119253000Y-94612460D02*
X119253000Y-97152460D01*
X119507000Y-94612460D02*
X119507000Y-97152460D01*
X119761000Y-94612460D02*
X119761000Y-97152460D01*
X118999000Y-94612460D02*
X118999000Y-97152460D01*
X120015000Y-94612460D02*
X118745000Y-97152460D01*
X118745000Y-94612460D02*
X120015000Y-97152460D01*
X120015000Y-94612460D02*
X120015000Y-97152460D01*
X119380000Y-94612460D02*
X119380000Y-97152460D01*
X118745000Y-97152460D02*
X118745000Y-94612460D01*
X118745000Y-94612460D02*
X123825000Y-94612460D01*
X123825000Y-94612460D02*
X123825000Y-97152460D01*
X123825000Y-97152460D02*
X118745000Y-97152460D01*
X147952460Y-71120000D02*
X147952460Y-70104000D01*
X147952460Y-75946000D02*
X147952460Y-77216000D01*
X146682460Y-75692000D02*
X149222460Y-75692000D01*
X146682460Y-75438000D02*
X149222460Y-75438000D01*
X146682460Y-75184000D02*
X149222460Y-75184000D01*
X146682460Y-75946000D02*
X149222460Y-75946000D01*
X146682460Y-74930000D02*
X149222460Y-76200000D01*
X146682460Y-76200000D02*
X149222460Y-74930000D01*
X146682460Y-74930000D02*
X149222460Y-74930000D01*
X146682460Y-75565000D02*
X149222460Y-75565000D01*
X149222460Y-76200000D02*
X146682460Y-76200000D01*
X146682460Y-76200000D02*
X146682460Y-71120000D01*
X146682460Y-71120000D02*
X149222460Y-71120000D01*
X149222460Y-71120000D02*
X149222460Y-76200000D01*
X118745000Y-62865000D02*
X123825000Y-62865000D01*
X123825000Y-62865000D02*
X123825000Y-65405000D01*
X123825000Y-65405000D02*
X118745000Y-65405000D01*
X118745000Y-65405000D02*
X118745000Y-62865000D01*
X118745000Y-64135000D02*
X117475000Y-64135000D01*
X123825000Y-64135000D02*
X125095000Y-64135000D01*
X106045000Y-100330000D02*
X100965000Y-100330000D01*
X100965000Y-100330000D02*
X100965000Y-97790000D01*
X100965000Y-97790000D02*
X106045000Y-97790000D01*
X106045000Y-97790000D02*
X106045000Y-100330000D01*
X106045000Y-99060000D02*
X107315000Y-99060000D01*
X100965000Y-99060000D02*
X99695000Y-99060000D01*
X141605000Y-100330000D02*
X136525000Y-100330000D01*
X136525000Y-100330000D02*
X136525000Y-97790000D01*
X136525000Y-97790000D02*
X141605000Y-97790000D01*
X141605000Y-97790000D02*
X141605000Y-100330000D01*
X141605000Y-99060000D02*
X142875000Y-99060000D01*
X136525000Y-99060000D02*
X135255000Y-99060000D01*
X136525000Y-62865000D02*
X141605000Y-62865000D01*
X141605000Y-62865000D02*
X141605000Y-65405000D01*
X141605000Y-65405000D02*
X136525000Y-65405000D01*
X136525000Y-65405000D02*
X136525000Y-62865000D01*
X136525000Y-64135000D02*
X135255000Y-64135000D01*
X141605000Y-64135000D02*
X142875000Y-64135000D01*
X100965000Y-62865000D02*
X106045000Y-62865000D01*
X106045000Y-62865000D02*
X106045000Y-65405000D01*
X106045000Y-65405000D02*
X100965000Y-65405000D01*
X100965000Y-65405000D02*
X100965000Y-62865000D01*
X100965000Y-64135000D02*
X99695000Y-64135000D01*
X106045000Y-64135000D02*
X107315000Y-64135000D01*
X151765000Y-86360000D02*
X151765000Y-91440000D01*
X151765000Y-91440000D02*
X149225000Y-91440000D01*
X149225000Y-91440000D02*
X149225000Y-86360000D01*
X149225000Y-86360000D02*
X151765000Y-86360000D01*
X150495000Y-86360000D02*
X150495000Y-85090000D01*
X150495000Y-91440000D02*
X150495000Y-92710000D01*
X85725000Y-62865000D02*
X90805000Y-62865000D01*
X90805000Y-62865000D02*
X90805000Y-65405000D01*
X90805000Y-65405000D02*
X85725000Y-65405000D01*
X85725000Y-65405000D02*
X85725000Y-62865000D01*
X85725000Y-64135000D02*
X84455000Y-64135000D01*
X90805000Y-64135000D02*
X92075000Y-64135000D01*
X90805000Y-100330000D02*
X85725000Y-100330000D01*
X85725000Y-100330000D02*
X85725000Y-97790000D01*
X85725000Y-97790000D02*
X90805000Y-97790000D01*
X90805000Y-97790000D02*
X90805000Y-100330000D01*
X90805000Y-99060000D02*
X92075000Y-99060000D01*
X85725000Y-99060000D02*
X84455000Y-99060000D01*
X123825000Y-100330000D02*
X118745000Y-100330000D01*
X118745000Y-100330000D02*
X118745000Y-97790000D01*
X118745000Y-97790000D02*
X123825000Y-97790000D01*
X123825000Y-97790000D02*
X123825000Y-100330000D01*
X123825000Y-99060000D02*
X125095000Y-99060000D01*
X118745000Y-99060000D02*
X117475000Y-99060000D01*
X151765000Y-71120000D02*
X151765000Y-76200000D01*
X151765000Y-76200000D02*
X149225000Y-76200000D01*
X149225000Y-76200000D02*
X149225000Y-71120000D01*
X149225000Y-71120000D02*
X151765000Y-71120000D01*
X150495000Y-71120000D02*
X150495000Y-69850000D01*
X150495000Y-76200000D02*
X150495000Y-77470000D01*
X97995000Y-108380000D02*
X101395000Y-108380000D01*
X97997944Y-108377056D02*
G75*
G02X99695000Y-104280000I1697056J1697056D01*
G01*
X101392056Y-108377056D02*
G75*
G03X99695000Y-104280000I-1697056J1697056D01*
G01*
X126795000Y-54815000D02*
X123395000Y-54815000D01*
X126792056Y-54817944D02*
G75*
G02X125095000Y-58915000I-1697056J-1697056D01*
G01*
X123397944Y-54817944D02*
G75*
G03X125095000Y-58915000I1697056J-1697056D01*
G01*
X109015000Y-104345000D02*
X105615000Y-104345000D01*
X109012056Y-104347944D02*
G75*
G02X107315000Y-108445000I-1697056J-1697056D01*
G01*
X105617944Y-104347944D02*
G75*
G03X107315000Y-108445000I1697056J-1697056D01*
G01*
X115775000Y-58850000D02*
X119175000Y-58850000D01*
X115777944Y-58847056D02*
G75*
G02X117475000Y-54750000I1697056J1697056D01*
G01*
X119172056Y-58847056D02*
G75*
G03X117475000Y-54750000I-1697056J1697056D01*
G01*
X133555000Y-108380000D02*
X136955000Y-108380000D01*
X133557944Y-108377056D02*
G75*
G02X135255000Y-104280000I1697056J1697056D01*
G01*
X136952056Y-108377056D02*
G75*
G03X135255000Y-104280000I-1697056J1697056D01*
G01*
X144575000Y-54815000D02*
X141175000Y-54815000D01*
X144572056Y-54817944D02*
G75*
G02X142875000Y-58915000I-1697056J-1697056D01*
G01*
X141177944Y-54817944D02*
G75*
G03X142875000Y-58915000I1697056J-1697056D01*
G01*
X144575000Y-104345000D02*
X141175000Y-104345000D01*
X144572056Y-104347944D02*
G75*
G02X142875000Y-108445000I-1697056J-1697056D01*
G01*
X141177944Y-104347944D02*
G75*
G03X142875000Y-108445000I1697056J-1697056D01*
G01*
X133555000Y-58850000D02*
X136955000Y-58850000D01*
X133557944Y-58847056D02*
G75*
G02X135255000Y-54750000I1697056J1697056D01*
G01*
X136952056Y-58847056D02*
G75*
G03X135255000Y-54750000I-1697056J1697056D01*
G01*
X109015000Y-54815000D02*
X105615000Y-54815000D01*
X109012056Y-54817944D02*
G75*
G02X107315000Y-58915000I-1697056J-1697056D01*
G01*
X105617944Y-54817944D02*
G75*
G03X107315000Y-58915000I1697056J-1697056D01*
G01*
X97995000Y-58850000D02*
X101395000Y-58850000D01*
X97997944Y-58847056D02*
G75*
G02X99695000Y-54750000I1697056J1697056D01*
G01*
X101392056Y-58847056D02*
G75*
G03X99695000Y-54750000I-1697056J1697056D01*
G01*
X159815000Y-94410000D02*
X159815000Y-91010000D01*
X159812056Y-94407056D02*
G75*
G02X155715000Y-92710000I-1697056J1697056D01*
G01*
X159812056Y-91012944D02*
G75*
G03X155715000Y-92710000I-1697056J-1697056D01*
G01*
X155780000Y-83390000D02*
X155780000Y-86790000D01*
X155782944Y-83392944D02*
G75*
G02X159880000Y-85090000I1697056J-1697056D01*
G01*
X155782944Y-86787056D02*
G75*
G03X159880000Y-85090000I1697056J1697056D01*
G01*
X93775000Y-54815000D02*
X90375000Y-54815000D01*
X93772056Y-54817944D02*
G75*
G02X92075000Y-58915000I-1697056J-1697056D01*
G01*
X90377944Y-54817944D02*
G75*
G03X92075000Y-58915000I1697056J-1697056D01*
G01*
X82755000Y-58850000D02*
X86155000Y-58850000D01*
X82757944Y-58847056D02*
G75*
G02X84455000Y-54750000I1697056J1697056D01*
G01*
X86152056Y-58847056D02*
G75*
G03X84455000Y-54750000I-1697056J1697056D01*
G01*
X82755000Y-108380000D02*
X86155000Y-108380000D01*
X82757944Y-108377056D02*
G75*
G02X84455000Y-104280000I1697056J1697056D01*
G01*
X86152056Y-108377056D02*
G75*
G03X84455000Y-104280000I-1697056J1697056D01*
G01*
X93775000Y-104345000D02*
X90375000Y-104345000D01*
X93772056Y-104347944D02*
G75*
G02X92075000Y-108445000I-1697056J-1697056D01*
G01*
X90377944Y-104347944D02*
G75*
G03X92075000Y-108445000I1697056J-1697056D01*
G01*
X115775000Y-108380000D02*
X119175000Y-108380000D01*
X115777944Y-108377056D02*
G75*
G02X117475000Y-104280000I1697056J1697056D01*
G01*
X119172056Y-108377056D02*
G75*
G03X117475000Y-104280000I-1697056J1697056D01*
G01*
X126795000Y-104345000D02*
X123395000Y-104345000D01*
X126792056Y-104347944D02*
G75*
G02X125095000Y-108445000I-1697056J-1697056D01*
G01*
X123397944Y-104347944D02*
G75*
G03X125095000Y-108445000I1697056J-1697056D01*
G01*
X159815000Y-79170000D02*
X159815000Y-75770000D01*
X159812056Y-79167056D02*
G75*
G02X155715000Y-77470000I-1697056J1697056D01*
G01*
X159812056Y-75772944D02*
G75*
G03X155715000Y-77470000I-1697056J-1697056D01*
G01*
X155780000Y-68150000D02*
X155780000Y-71550000D01*
X155782944Y-68152944D02*
G75*
G02X159880000Y-69850000I1697056J-1697056D01*
G01*
X155782944Y-71547056D02*
G75*
G03X159880000Y-69850000I1697056J1697056D01*
G01*
X161036000Y-57150000D02*
G75*
G03X161036000Y-57150000I-2286000J0D01*
G01*
X161036000Y-110490000D02*
G75*
G03X161036000Y-110490000I-2286000J0D01*
G01*
X75311000Y-57150000D02*
G75*
G03X75311000Y-57150000I-2286000J0D01*
G01*
X75311000Y-110490000D02*
G75*
G03X75311000Y-110490000I-2286000J0D01*
G01*
M02*
