G04 #@! TF.FileFunction,Copper,L2,Bot,Signal*
%FSLAX46Y46*%
G04 Gerber Fmt 4.6, Leading zero omitted, Abs format (unit mm)*
G04 Created by KiCad (PCBNEW 4.0.2+e4-6225~38~ubuntu15.10.1-stable) date Son 24 Jul 2016 14:48:10 CEST*
%MOMM*%
G01*
G04 APERTURE LIST*
%ADD10C,0.100000*%
%ADD11C,1.998980*%
%ADD12R,2.032000X2.032000*%
%ADD13O,2.032000X2.032000*%
%ADD14R,2.032000X1.727200*%
%ADD15O,2.032000X1.727200*%
%ADD16R,1.998980X1.998980*%
%ADD17C,1.524000*%
%ADD18C,1.000760*%
%ADD19C,4.064000*%
%ADD20C,0.600000*%
%ADD21C,0.635000*%
%ADD22C,0.250000*%
%ADD23C,0.254000*%
G04 APERTURE END LIST*
D10*
D11*
X108585000Y-102235000D03*
X98425000Y-102235000D03*
X144145000Y-52705000D03*
X133985000Y-52705000D03*
X98425000Y-60960000D03*
X108585000Y-60960000D03*
D12*
X147955000Y-100965000D03*
D13*
X150495000Y-100965000D03*
D14*
X76835000Y-72390000D03*
D15*
X76835000Y-74930000D03*
X76835000Y-77470000D03*
X76835000Y-80010000D03*
X76835000Y-82550000D03*
X76835000Y-85090000D03*
X76835000Y-87630000D03*
X76835000Y-90170000D03*
D11*
X98425000Y-110490000D03*
X108585000Y-110490000D03*
X116205000Y-60960000D03*
X126365000Y-60960000D03*
X126365000Y-52705000D03*
X116205000Y-52705000D03*
X144145000Y-102235000D03*
X133985000Y-102235000D03*
X133985000Y-110490000D03*
X144145000Y-110490000D03*
X108585000Y-52705000D03*
X98425000Y-52705000D03*
X153670000Y-83820000D03*
X153670000Y-93980000D03*
X161925000Y-93980000D03*
X161925000Y-83820000D03*
X83185000Y-60960000D03*
X93345000Y-60960000D03*
X93345000Y-52705000D03*
X83185000Y-52705000D03*
X93345000Y-102235000D03*
X83185000Y-102235000D03*
X83185000Y-110490000D03*
X93345000Y-110490000D03*
X126365000Y-102235000D03*
X116205000Y-102235000D03*
X116205000Y-110490000D03*
X126365000Y-110490000D03*
X153670000Y-68580000D03*
X153670000Y-78740000D03*
X161925000Y-78740000D03*
X161925000Y-68580000D03*
D12*
X150495000Y-62230000D03*
D13*
X147955000Y-62230000D03*
D11*
X133985000Y-60960000D03*
X144145000Y-60960000D03*
X130175000Y-67310000D03*
X130175000Y-52310000D03*
X112395000Y-67310000D03*
X112395000Y-52310000D03*
X108585000Y-95882460D03*
D16*
X98425000Y-95882460D03*
D11*
X116205000Y-67312540D03*
D16*
X126365000Y-67312540D03*
D11*
X144145000Y-95882460D03*
D16*
X133985000Y-95882460D03*
D11*
X133985000Y-67312540D03*
D16*
X144145000Y-67312540D03*
D11*
X98425000Y-67312540D03*
D16*
X108585000Y-67312540D03*
D11*
X147317460Y-83820000D03*
D16*
X147317460Y-93980000D03*
D11*
X83185000Y-67312540D03*
D16*
X93345000Y-67312540D03*
D11*
X93345000Y-95882460D03*
D16*
X83185000Y-95882460D03*
D11*
X126365000Y-95882460D03*
D16*
X116205000Y-95882460D03*
D11*
X147952460Y-68580000D03*
D16*
X147952460Y-78740000D03*
D11*
X116205000Y-64135000D03*
X126365000Y-64135000D03*
X108585000Y-99060000D03*
X98425000Y-99060000D03*
X144145000Y-99060000D03*
X133985000Y-99060000D03*
X133985000Y-64135000D03*
X144145000Y-64135000D03*
X98425000Y-64135000D03*
X108585000Y-64135000D03*
X150495000Y-83820000D03*
X150495000Y-93980000D03*
X83185000Y-64135000D03*
X93345000Y-64135000D03*
X93345000Y-99060000D03*
X83185000Y-99060000D03*
X126365000Y-99060000D03*
X116205000Y-99060000D03*
X150495000Y-68580000D03*
X150495000Y-78740000D03*
D17*
X99695000Y-78740000D03*
X99695000Y-83820000D03*
X102235000Y-88900000D03*
X120015000Y-83820000D03*
X120015000Y-78740000D03*
X117475000Y-73660000D03*
X112395000Y-71120000D03*
X107315000Y-71120000D03*
X102235000Y-73660000D03*
X107315000Y-91440000D03*
X112395000Y-91440000D03*
X117475000Y-88900000D03*
X123190000Y-78740000D03*
X123190000Y-83820000D03*
X125730000Y-88900000D03*
X143510000Y-83820000D03*
X143510000Y-78740000D03*
X140970000Y-73660000D03*
X135890000Y-71120000D03*
X130810000Y-71120000D03*
X125730000Y-73660000D03*
X130810000Y-91440000D03*
X135890000Y-91440000D03*
X140970000Y-88900000D03*
D18*
X99695000Y-105410000D03*
X100965000Y-106680000D03*
X98425000Y-106680000D03*
X125095000Y-57785000D03*
X123825000Y-56515000D03*
X126365000Y-56515000D03*
X107315000Y-107315000D03*
X106045000Y-106045000D03*
X108585000Y-106045000D03*
X117475000Y-55880000D03*
X118745000Y-57150000D03*
X116205000Y-57150000D03*
X135255000Y-105410000D03*
X136525000Y-106680000D03*
X133985000Y-106680000D03*
X142875000Y-57785000D03*
X141605000Y-56515000D03*
X144145000Y-56515000D03*
X142875000Y-107315000D03*
X141605000Y-106045000D03*
X144145000Y-106045000D03*
X135255000Y-55880000D03*
X136525000Y-57150000D03*
X133985000Y-57150000D03*
X107315000Y-57785000D03*
X106045000Y-56515000D03*
X108585000Y-56515000D03*
X99695000Y-55880000D03*
X100965000Y-57150000D03*
X98425000Y-57150000D03*
X156845000Y-92710000D03*
X158115000Y-91440000D03*
X158115000Y-93980000D03*
X158750000Y-85090000D03*
X157480000Y-86360000D03*
X157480000Y-83820000D03*
X92075000Y-57785000D03*
X90805000Y-56515000D03*
X93345000Y-56515000D03*
X84455000Y-55880000D03*
X85725000Y-57150000D03*
X83185000Y-57150000D03*
X84455000Y-105410000D03*
X85725000Y-106680000D03*
X83185000Y-106680000D03*
X92075000Y-107315000D03*
X90805000Y-106045000D03*
X93345000Y-106045000D03*
X117475000Y-105410000D03*
X118745000Y-106680000D03*
X116205000Y-106680000D03*
X125095000Y-107315000D03*
X123825000Y-106045000D03*
X126365000Y-106045000D03*
X156845000Y-77470000D03*
X158115000Y-76200000D03*
X158115000Y-78740000D03*
X158750000Y-69850000D03*
X157480000Y-71120000D03*
X157480000Y-68580000D03*
D19*
X158750000Y-57150000D03*
X158750000Y-110490000D03*
X73025000Y-57150000D03*
X73025000Y-110490000D03*
D20*
X130810000Y-76835000D03*
X144145000Y-114935000D03*
X147955000Y-97155000D03*
X165735000Y-97155000D03*
X165735000Y-83820000D03*
X165735000Y-68580000D03*
X133985000Y-49530000D03*
X116205000Y-49530000D03*
X98425000Y-49530000D03*
X83185000Y-49530000D03*
X86995000Y-71120000D03*
X88265000Y-57785000D03*
D21*
X130810000Y-76835000D02*
X123190000Y-76835000D01*
X116205000Y-67312540D02*
X116205000Y-71120000D01*
X114935000Y-71120000D02*
X114935000Y-76835000D01*
X116205000Y-71120000D02*
X114935000Y-71120000D01*
X83185000Y-67312540D02*
X80012540Y-67312540D01*
X80010000Y-49530000D02*
X83185000Y-49530000D01*
X80010000Y-67310000D02*
X80010000Y-49530000D01*
X80012540Y-67312540D02*
X80010000Y-67310000D01*
X165735000Y-68580000D02*
X165735000Y-49530000D01*
X165735000Y-49530000D02*
X133985000Y-49530000D01*
X165735000Y-97155000D02*
X165735000Y-114935000D01*
X165735000Y-114935000D02*
X144145000Y-114935000D01*
X165735000Y-83820000D02*
X165735000Y-97155000D01*
X165735000Y-83820000D02*
X165735000Y-68580000D01*
X133985000Y-49530000D02*
X116205000Y-49530000D01*
X116205000Y-49530000D02*
X98425000Y-49530000D01*
X98425000Y-49530000D02*
X97790000Y-49530000D01*
X83185000Y-49530000D02*
X97790000Y-49530000D01*
X98425000Y-67312540D02*
X98425000Y-76835000D01*
X98425000Y-76835000D02*
X99695000Y-76835000D01*
X107315000Y-71120000D02*
X107315000Y-76835000D01*
X123190000Y-78740000D02*
X123190000Y-76835000D01*
X123190000Y-76835000D02*
X114935000Y-76835000D01*
X99695000Y-76835000D02*
X99695000Y-78740000D01*
X114935000Y-76835000D02*
X107315000Y-76835000D01*
X107315000Y-76835000D02*
X99695000Y-76835000D01*
X147955000Y-100965000D02*
X147955000Y-97155000D01*
X147955000Y-97155000D02*
X144145000Y-97155000D01*
X144145000Y-97155000D02*
X144145000Y-95882460D01*
X95885000Y-52070000D02*
X95885000Y-50800000D01*
X126365000Y-104140000D02*
X131445000Y-104140000D01*
X131445000Y-104140000D02*
X131445000Y-113665000D01*
X108585000Y-104140000D02*
X111760000Y-104140000D01*
X111760000Y-104140000D02*
X111760000Y-113665000D01*
X93345000Y-104140000D02*
X95250000Y-104140000D01*
X95250000Y-104140000D02*
X95250000Y-113665000D01*
X99060000Y-113665000D02*
X95250000Y-113665000D01*
X111760000Y-113665000D02*
X99060000Y-113665000D01*
X150495000Y-113030000D02*
X150495000Y-113665000D01*
X150495000Y-113665000D02*
X135890000Y-113665000D01*
X135890000Y-113665000D02*
X131445000Y-113665000D01*
X150495000Y-113030000D02*
X150495000Y-104775000D01*
X131445000Y-113665000D02*
X111760000Y-113665000D01*
X98425000Y-59055000D02*
X95885000Y-59055000D01*
X95885000Y-59055000D02*
X95885000Y-52070000D01*
X95885000Y-52070000D02*
X95885000Y-51435000D01*
X112395000Y-50800000D02*
X95885000Y-50800000D01*
X95885000Y-50800000D02*
X81280000Y-50800000D01*
X81280000Y-50800000D02*
X81280000Y-59055000D01*
X81280000Y-59055000D02*
X83185000Y-59055000D01*
X126365000Y-50800000D02*
X112395000Y-50800000D01*
X130175000Y-50800000D02*
X126365000Y-50800000D01*
X112395000Y-50800000D02*
X112395000Y-52310000D01*
X130175000Y-52310000D02*
X130175000Y-50800000D01*
X130175000Y-52310000D02*
X130175000Y-51435000D01*
X164465000Y-61595000D02*
X164465000Y-50800000D01*
X164465000Y-50800000D02*
X130175000Y-50800000D01*
X164465000Y-66040000D02*
X164465000Y-61595000D01*
X155575000Y-68580000D02*
X155575000Y-66040000D01*
X155575000Y-66040000D02*
X164465000Y-66040000D01*
X164465000Y-66040000D02*
X164465000Y-76835000D01*
X164465000Y-76835000D02*
X164465000Y-81280000D01*
X155575000Y-83820000D02*
X155575000Y-81280000D01*
X155575000Y-81280000D02*
X164465000Y-81280000D01*
X150495000Y-104775000D02*
X164465000Y-104775000D01*
X164465000Y-104775000D02*
X164465000Y-81280000D01*
X153670000Y-83820000D02*
X155575000Y-83820000D01*
X155575000Y-83820000D02*
X157480000Y-83820000D01*
X150495000Y-100965000D02*
X150495000Y-104775000D01*
X150495000Y-104775000D02*
X144145000Y-104775000D01*
X130175000Y-52310000D02*
X130175000Y-59055000D01*
X130175000Y-59055000D02*
X133985000Y-59055000D01*
X112395000Y-52310000D02*
X112395000Y-59055000D01*
X112395000Y-59055000D02*
X116205000Y-59055000D01*
X153670000Y-68580000D02*
X155575000Y-68580000D01*
X155575000Y-68580000D02*
X157480000Y-68580000D01*
X133985000Y-60960000D02*
X133985000Y-59055000D01*
X133985000Y-59055000D02*
X133985000Y-57150000D01*
X116205000Y-60960000D02*
X116205000Y-59055000D01*
X116205000Y-59055000D02*
X116205000Y-57150000D01*
X98425000Y-60960000D02*
X98425000Y-59055000D01*
X98425000Y-59055000D02*
X98425000Y-57150000D01*
X83185000Y-60960000D02*
X83185000Y-59055000D01*
X83185000Y-59055000D02*
X83185000Y-57150000D01*
X144145000Y-102235000D02*
X144145000Y-104775000D01*
X144145000Y-104775000D02*
X144145000Y-106045000D01*
X126365000Y-106045000D02*
X126365000Y-104140000D01*
X126365000Y-104140000D02*
X126365000Y-102235000D01*
X93345000Y-102235000D02*
X93345000Y-104140000D01*
X93345000Y-104140000D02*
X93345000Y-106045000D01*
X108585000Y-106045000D02*
X108585000Y-104140000D01*
X108585000Y-104140000D02*
X108585000Y-102235000D01*
X76835000Y-77470000D02*
X80010000Y-77470000D01*
X80010000Y-77470000D02*
X86995000Y-77470000D01*
X86995000Y-71120000D02*
X86995000Y-77470000D01*
X76835000Y-82550000D02*
X78105000Y-82550000D01*
X78105000Y-82550000D02*
X88265000Y-82550000D01*
X88265000Y-57785000D02*
X88265000Y-82550000D01*
X84455000Y-105410000D02*
X81280000Y-105410000D01*
X81280000Y-85090000D02*
X76835000Y-85090000D01*
X81280000Y-105410000D02*
X81280000Y-85090000D01*
X98425000Y-102235000D02*
X100965000Y-102235000D01*
X100965000Y-102235000D02*
X100965000Y-106680000D01*
X107315000Y-107315000D02*
X100965000Y-107315000D01*
X100965000Y-107315000D02*
X100965000Y-106680000D01*
X126365000Y-60960000D02*
X123825000Y-60960000D01*
X123825000Y-60960000D02*
X123825000Y-56515000D01*
X117475000Y-55880000D02*
X123825000Y-55880000D01*
X123825000Y-55880000D02*
X123825000Y-56515000D01*
X133985000Y-102235000D02*
X136525000Y-102235000D01*
X136525000Y-102235000D02*
X136525000Y-106680000D01*
X142875000Y-107315000D02*
X136525000Y-107315000D01*
X136525000Y-107315000D02*
X136525000Y-106680000D01*
X141605000Y-106045000D02*
X141605000Y-99060000D01*
X141605000Y-99060000D02*
X144145000Y-99060000D01*
X153670000Y-93980000D02*
X153670000Y-91440000D01*
X153670000Y-91440000D02*
X158115000Y-91440000D01*
X158750000Y-85090000D02*
X158750000Y-91440000D01*
X158750000Y-91440000D02*
X158115000Y-91440000D01*
X93345000Y-60960000D02*
X90805000Y-60960000D01*
X90805000Y-60960000D02*
X90805000Y-56515000D01*
X84455000Y-55880000D02*
X90805000Y-55880000D01*
X90805000Y-55880000D02*
X90805000Y-56515000D01*
X83185000Y-102235000D02*
X85725000Y-102235000D01*
X85725000Y-102235000D02*
X85725000Y-106680000D01*
X92075000Y-107315000D02*
X85725000Y-107315000D01*
X85725000Y-107315000D02*
X85725000Y-106680000D01*
X116205000Y-102235000D02*
X118745000Y-102235000D01*
X118745000Y-102235000D02*
X118745000Y-106680000D01*
X125095000Y-107315000D02*
X118745000Y-107315000D01*
X118745000Y-107315000D02*
X118745000Y-106680000D01*
X142875000Y-57785000D02*
X147955000Y-57785000D01*
X147955000Y-57785000D02*
X147955000Y-62230000D01*
X153670000Y-78740000D02*
X153670000Y-76200000D01*
X153670000Y-76200000D02*
X158115000Y-76200000D01*
X158750000Y-69850000D02*
X158750000Y-76200000D01*
X158750000Y-76200000D02*
X158115000Y-76200000D01*
X130175000Y-67310000D02*
X130175000Y-69215000D01*
X135890000Y-69215000D02*
X135890000Y-71120000D01*
X130175000Y-69215000D02*
X135890000Y-69215000D01*
X112395000Y-67310000D02*
X112395000Y-71120000D01*
X98425000Y-95882460D02*
X98425000Y-93980000D01*
X112395000Y-89535000D02*
X112395000Y-91440000D01*
X104140000Y-89535000D02*
X112395000Y-89535000D01*
X104140000Y-93345000D02*
X104140000Y-89535000D01*
X98425000Y-93345000D02*
X104140000Y-93345000D01*
X98425000Y-93980000D02*
X98425000Y-93345000D01*
X98425000Y-95882460D02*
X98425000Y-99060000D01*
X126365000Y-67312540D02*
X126365000Y-73660000D01*
X126365000Y-73660000D02*
X125730000Y-73660000D01*
X126365000Y-67312540D02*
X126365000Y-64135000D01*
X140970000Y-88900000D02*
X140970000Y-86995000D01*
X117475000Y-86995000D02*
X117475000Y-88900000D01*
X140970000Y-86995000D02*
X117475000Y-86995000D01*
X133985000Y-95882460D02*
X133985000Y-93980000D01*
X140970000Y-93980000D02*
X140970000Y-88900000D01*
X133985000Y-93980000D02*
X140970000Y-93980000D01*
X133985000Y-95882460D02*
X133985000Y-99060000D01*
X117475000Y-73660000D02*
X117475000Y-75565000D01*
X140970000Y-75565000D02*
X140970000Y-73660000D01*
X117475000Y-75565000D02*
X140970000Y-75565000D01*
X144145000Y-67312540D02*
X140972540Y-67312540D01*
X140970000Y-67315080D02*
X140970000Y-73660000D01*
X140972540Y-67312540D02*
X140970000Y-67315080D01*
X144145000Y-67312540D02*
X144145000Y-64135000D01*
X108585000Y-67312540D02*
X102237540Y-67312540D01*
X102235000Y-67315080D02*
X102235000Y-73660000D01*
X102237540Y-67312540D02*
X102235000Y-67315080D01*
X108585000Y-64135000D02*
X108585000Y-67312540D01*
X143510000Y-83820000D02*
X143510000Y-81915000D01*
X120015000Y-81915000D02*
X120015000Y-83820000D01*
X143510000Y-81915000D02*
X120015000Y-81915000D01*
D22*
X143510000Y-83820000D02*
X143510000Y-83185000D01*
D21*
X143510000Y-83820000D02*
X143510000Y-86360000D01*
X147317460Y-86362540D02*
X147317460Y-93980000D01*
X147320000Y-86360000D02*
X147317460Y-86362540D01*
X143510000Y-86360000D02*
X147320000Y-86360000D01*
X150495000Y-93980000D02*
X147317460Y-93980000D01*
X123190000Y-83820000D02*
X123190000Y-85725000D01*
X99695000Y-85725000D02*
X99695000Y-83820000D01*
X123190000Y-85725000D02*
X99695000Y-85725000D01*
X93345000Y-67312540D02*
X93345000Y-83820000D01*
X93345000Y-83820000D02*
X99695000Y-83820000D01*
X93345000Y-67312540D02*
X93345000Y-64135000D01*
X83185000Y-95882460D02*
X83185000Y-92075000D01*
X102235000Y-92075000D02*
X102235000Y-88900000D01*
X83185000Y-92075000D02*
X102235000Y-92075000D01*
X83185000Y-95882460D02*
X83185000Y-99060000D01*
X107315000Y-91440000D02*
X107315000Y-93345000D01*
X107315000Y-93345000D02*
X116205000Y-93345000D01*
X116205000Y-95882460D02*
X116205000Y-93345000D01*
X116205000Y-93345000D02*
X116205000Y-91440000D01*
X116205000Y-91440000D02*
X130810000Y-91440000D01*
X116205000Y-99060000D02*
X116205000Y-95882460D01*
X143510000Y-78740000D02*
X143510000Y-80645000D01*
X120015000Y-80645000D02*
X120015000Y-78740000D01*
X143510000Y-80645000D02*
X120015000Y-80645000D01*
X147952460Y-78740000D02*
X143510000Y-78740000D01*
X150495000Y-78740000D02*
X147952460Y-78740000D01*
X106045000Y-56515000D02*
X106045000Y-60960000D01*
X106045000Y-60960000D02*
X108585000Y-60960000D01*
X99695000Y-55880000D02*
X106045000Y-55880000D01*
X106045000Y-55880000D02*
X106045000Y-56515000D01*
X98425000Y-106680000D02*
X98425000Y-110490000D01*
X126365000Y-56515000D02*
X126365000Y-52705000D01*
X108585000Y-99060000D02*
X106045000Y-99060000D01*
X106045000Y-99060000D02*
X106045000Y-106045000D01*
X116205000Y-64135000D02*
X118745000Y-64135000D01*
X118745000Y-64135000D02*
X118745000Y-57150000D01*
X133985000Y-106680000D02*
X133985000Y-110490000D01*
X144145000Y-60960000D02*
X141605000Y-60960000D01*
X141605000Y-60960000D02*
X141605000Y-56515000D01*
X135255000Y-55880000D02*
X141605000Y-55880000D01*
X141605000Y-55880000D02*
X141605000Y-56515000D01*
X144145000Y-56515000D02*
X144145000Y-52705000D01*
X133985000Y-64135000D02*
X136525000Y-64135000D01*
X136525000Y-64135000D02*
X136525000Y-57150000D01*
X108585000Y-56515000D02*
X108585000Y-52705000D01*
X98425000Y-64135000D02*
X100965000Y-64135000D01*
X100965000Y-64135000D02*
X100965000Y-57150000D01*
X158115000Y-93980000D02*
X161925000Y-93980000D01*
X150495000Y-83820000D02*
X150495000Y-86360000D01*
X150495000Y-86360000D02*
X157480000Y-86360000D01*
X93345000Y-52705000D02*
X93345000Y-56515000D01*
X83185000Y-64135000D02*
X85725000Y-64135000D01*
X85725000Y-64135000D02*
X85725000Y-57150000D01*
X83185000Y-106680000D02*
X83185000Y-110490000D01*
X93345000Y-99060000D02*
X90805000Y-99060000D01*
X90805000Y-99060000D02*
X90805000Y-106045000D01*
X116205000Y-106680000D02*
X116205000Y-110490000D01*
X126365000Y-99060000D02*
X123825000Y-99060000D01*
X123825000Y-99060000D02*
X123825000Y-106045000D01*
X158115000Y-78740000D02*
X161925000Y-78740000D01*
X150495000Y-68580000D02*
X150495000Y-71120000D01*
X150495000Y-71120000D02*
X157480000Y-71120000D01*
D23*
G36*
X88079833Y-56849838D02*
X87988857Y-56887428D01*
X87900494Y-56905005D01*
X87826239Y-56954621D01*
X87736057Y-56991883D01*
X87666390Y-57061428D01*
X87591481Y-57111481D01*
X87541865Y-57185736D01*
X87472808Y-57254673D01*
X87435058Y-57345584D01*
X87385005Y-57420494D01*
X87367582Y-57508083D01*
X87330162Y-57598201D01*
X87330076Y-57696638D01*
X87312500Y-57785000D01*
X87312500Y-70230655D01*
X87271917Y-70222582D01*
X87181799Y-70185162D01*
X87083362Y-70185076D01*
X86995000Y-70167500D01*
X86907409Y-70184923D01*
X86809833Y-70184838D01*
X86718857Y-70222428D01*
X86630494Y-70240005D01*
X86556239Y-70289621D01*
X86466057Y-70326883D01*
X86396390Y-70396428D01*
X86321481Y-70446481D01*
X86271865Y-70520736D01*
X86202808Y-70589673D01*
X86165058Y-70680584D01*
X86115005Y-70755494D01*
X86097582Y-70843083D01*
X86060162Y-70933201D01*
X86060076Y-71031638D01*
X86042500Y-71120000D01*
X86042500Y-76517500D01*
X78151024Y-76517500D01*
X78079415Y-76410330D01*
X77764634Y-76200000D01*
X78079415Y-75989670D01*
X78404271Y-75503489D01*
X78518345Y-74930000D01*
X78404271Y-74356511D01*
X78079415Y-73870330D01*
X78065087Y-73860757D01*
X78086317Y-73856762D01*
X78302441Y-73717690D01*
X78447431Y-73505490D01*
X78498440Y-73253600D01*
X78498440Y-71526400D01*
X78454162Y-71291083D01*
X78315090Y-71074959D01*
X78102890Y-70929969D01*
X77851000Y-70878960D01*
X75819000Y-70878960D01*
X75583683Y-70923238D01*
X75367559Y-71062310D01*
X75222569Y-71274510D01*
X75171560Y-71526400D01*
X75171560Y-73253600D01*
X75215838Y-73488917D01*
X75354910Y-73705041D01*
X75567110Y-73850031D01*
X75608439Y-73858400D01*
X75590585Y-73870330D01*
X75265729Y-74356511D01*
X75151655Y-74930000D01*
X75265729Y-75503489D01*
X75590585Y-75989670D01*
X75905366Y-76200000D01*
X75590585Y-76410330D01*
X75265729Y-76896511D01*
X75151655Y-77470000D01*
X75265729Y-78043489D01*
X75590585Y-78529670D01*
X75905366Y-78740000D01*
X75590585Y-78950330D01*
X75265729Y-79436511D01*
X75151655Y-80010000D01*
X75265729Y-80583489D01*
X75590585Y-81069670D01*
X75905366Y-81280000D01*
X75590585Y-81490330D01*
X75265729Y-81976511D01*
X75151655Y-82550000D01*
X75265729Y-83123489D01*
X75590585Y-83609670D01*
X75905366Y-83820000D01*
X75590585Y-84030330D01*
X75265729Y-84516511D01*
X75151655Y-85090000D01*
X75265729Y-85663489D01*
X75590585Y-86149670D01*
X75905366Y-86360000D01*
X75590585Y-86570330D01*
X75265729Y-87056511D01*
X75151655Y-87630000D01*
X75265729Y-88203489D01*
X75590585Y-88689670D01*
X75905366Y-88900000D01*
X75590585Y-89110330D01*
X75265729Y-89596511D01*
X75151655Y-90170000D01*
X75265729Y-90743489D01*
X75590585Y-91229670D01*
X76076766Y-91554526D01*
X76650255Y-91668600D01*
X77019745Y-91668600D01*
X77593234Y-91554526D01*
X78079415Y-91229670D01*
X78404271Y-90743489D01*
X78518345Y-90170000D01*
X78404271Y-89596511D01*
X78079415Y-89110330D01*
X77764634Y-88900000D01*
X78079415Y-88689670D01*
X78404271Y-88203489D01*
X78518345Y-87630000D01*
X78404271Y-87056511D01*
X78079415Y-86570330D01*
X77764634Y-86360000D01*
X78079415Y-86149670D01*
X78151024Y-86042500D01*
X80327500Y-86042500D01*
X80327500Y-105410000D01*
X80400005Y-105774506D01*
X80606481Y-106083519D01*
X80915494Y-106289995D01*
X81280000Y-106362500D01*
X82087467Y-106362500D01*
X82049818Y-106453168D01*
X82049424Y-106904850D01*
X82221911Y-107322301D01*
X82232500Y-107332909D01*
X82232500Y-109131334D01*
X81800154Y-109562927D01*
X81550794Y-110163453D01*
X81550226Y-110813694D01*
X81798538Y-111414655D01*
X82257927Y-111874846D01*
X82858453Y-112124206D01*
X83508694Y-112124774D01*
X84109655Y-111876462D01*
X84569846Y-111417073D01*
X84819206Y-110816547D01*
X84819722Y-110225582D01*
X91699599Y-110225582D01*
X91723659Y-110875377D01*
X91926035Y-111363958D01*
X92192837Y-111462557D01*
X93165395Y-110490000D01*
X92192837Y-109517443D01*
X91926035Y-109616042D01*
X91699599Y-110225582D01*
X84819722Y-110225582D01*
X84819774Y-110166306D01*
X84571462Y-109565345D01*
X84137500Y-109130625D01*
X84137500Y-107333431D01*
X84146967Y-107323981D01*
X84320182Y-106906832D01*
X84320497Y-106545263D01*
X84589737Y-106545497D01*
X84589424Y-106904850D01*
X84761911Y-107322301D01*
X84776949Y-107337365D01*
X84845005Y-107679506D01*
X85051481Y-107988519D01*
X85360494Y-108194995D01*
X85725000Y-108267500D01*
X91421569Y-108267500D01*
X91431019Y-108276967D01*
X91848168Y-108450182D01*
X92299850Y-108450576D01*
X92717301Y-108278089D01*
X93036967Y-107958981D01*
X93210182Y-107541832D01*
X93210497Y-107180263D01*
X93569850Y-107180576D01*
X93987301Y-107008089D01*
X94297500Y-106698431D01*
X94297500Y-109283564D01*
X94218958Y-109071035D01*
X93609418Y-108844599D01*
X92959623Y-108868659D01*
X92471042Y-109071035D01*
X92372443Y-109337837D01*
X93345000Y-110310395D01*
X93359142Y-110296252D01*
X93538748Y-110475858D01*
X93524605Y-110490000D01*
X93538748Y-110504142D01*
X93359142Y-110683748D01*
X93345000Y-110669605D01*
X92372443Y-111642163D01*
X92471042Y-111908965D01*
X93080582Y-112135401D01*
X93730377Y-112111341D01*
X94218958Y-111908965D01*
X94297500Y-111696436D01*
X94297500Y-113665000D01*
X94370005Y-114029506D01*
X94575293Y-114336741D01*
X70612000Y-114178044D01*
X70612000Y-111634017D01*
X70762709Y-111998761D01*
X71512293Y-112749655D01*
X72492173Y-113156536D01*
X73553172Y-113157462D01*
X74533761Y-112752291D01*
X75284655Y-112002707D01*
X75691536Y-111022827D01*
X75692462Y-109961828D01*
X75287291Y-108981239D01*
X74537707Y-108230345D01*
X73557827Y-107823464D01*
X72496828Y-107822538D01*
X71516239Y-108227709D01*
X70765345Y-108977293D01*
X70612000Y-109346589D01*
X70612000Y-68464703D01*
X82212443Y-68464703D01*
X82311042Y-68731505D01*
X82920582Y-68957941D01*
X83570377Y-68933881D01*
X84058958Y-68731505D01*
X84157557Y-68464703D01*
X83185000Y-67492145D01*
X82212443Y-68464703D01*
X70612000Y-68464703D01*
X70612000Y-67048122D01*
X81539599Y-67048122D01*
X81563659Y-67697917D01*
X81766035Y-68186498D01*
X82032837Y-68285097D01*
X83005395Y-67312540D01*
X83364605Y-67312540D01*
X84337163Y-68285097D01*
X84603965Y-68186498D01*
X84830401Y-67576958D01*
X84806341Y-66927163D01*
X84603965Y-66438582D01*
X84337163Y-66339983D01*
X83364605Y-67312540D01*
X83005395Y-67312540D01*
X82032837Y-66339983D01*
X81766035Y-66438582D01*
X81539599Y-67048122D01*
X70612000Y-67048122D01*
X70612000Y-58294017D01*
X70762709Y-58658761D01*
X71512293Y-59409655D01*
X72492173Y-59816536D01*
X73553172Y-59817462D01*
X74533761Y-59412291D01*
X75284655Y-58662707D01*
X75691536Y-57682827D01*
X75692462Y-56621828D01*
X75287291Y-55641239D01*
X74537707Y-54890345D01*
X73557827Y-54483464D01*
X72496828Y-54482538D01*
X71516239Y-54887709D01*
X70765345Y-55637293D01*
X70612000Y-56006589D01*
X70612000Y-49657000D01*
X165608000Y-49657000D01*
X165608000Y-114807156D01*
X136969917Y-114617500D01*
X150495000Y-114617500D01*
X150859506Y-114544995D01*
X151168519Y-114338519D01*
X151374995Y-114029506D01*
X151447500Y-113665000D01*
X151447500Y-111018172D01*
X156082538Y-111018172D01*
X156487709Y-111998761D01*
X157237293Y-112749655D01*
X158217173Y-113156536D01*
X159278172Y-113157462D01*
X160258761Y-112752291D01*
X161009655Y-112002707D01*
X161416536Y-111022827D01*
X161417462Y-109961828D01*
X161012291Y-108981239D01*
X160262707Y-108230345D01*
X159282827Y-107823464D01*
X158221828Y-107822538D01*
X157241239Y-108227709D01*
X156490345Y-108977293D01*
X156083464Y-109957173D01*
X156082538Y-111018172D01*
X151447500Y-111018172D01*
X151447500Y-105727500D01*
X164465000Y-105727500D01*
X164829506Y-105654995D01*
X165138519Y-105448519D01*
X165344995Y-105139506D01*
X165417500Y-104775000D01*
X165417500Y-50800000D01*
X165344995Y-50435494D01*
X165138519Y-50126481D01*
X164829506Y-49920005D01*
X164465000Y-49847500D01*
X81280000Y-49847500D01*
X80915494Y-49920005D01*
X80606481Y-50126481D01*
X80400005Y-50435494D01*
X80327500Y-50800000D01*
X80327500Y-59055000D01*
X80400005Y-59419506D01*
X80606481Y-59728519D01*
X80915494Y-59934995D01*
X81280000Y-60007500D01*
X81825625Y-60007500D01*
X81800154Y-60032927D01*
X81550794Y-60633453D01*
X81550226Y-61283694D01*
X81798538Y-61884655D01*
X82257927Y-62344846D01*
X82746432Y-62547691D01*
X82260345Y-62748538D01*
X81800154Y-63207927D01*
X81550794Y-63808453D01*
X81550226Y-64458694D01*
X81798538Y-65059655D01*
X82257927Y-65519846D01*
X82735027Y-65717955D01*
X82311042Y-65893575D01*
X82212443Y-66160377D01*
X83185000Y-67132935D01*
X84157557Y-66160377D01*
X84058958Y-65893575D01*
X83611430Y-65727324D01*
X84109655Y-65521462D01*
X84544375Y-65087500D01*
X85725000Y-65087500D01*
X86089506Y-65014995D01*
X86398519Y-64808519D01*
X86604995Y-64499506D01*
X86677500Y-64135000D01*
X86677500Y-57803431D01*
X86686967Y-57793981D01*
X86860182Y-57376832D01*
X86860576Y-56925150D01*
X86822294Y-56832500D01*
X88265000Y-56832500D01*
X88177409Y-56849923D01*
X88079833Y-56849838D01*
X88079833Y-56849838D01*
G37*
X88079833Y-56849838D02*
X87988857Y-56887428D01*
X87900494Y-56905005D01*
X87826239Y-56954621D01*
X87736057Y-56991883D01*
X87666390Y-57061428D01*
X87591481Y-57111481D01*
X87541865Y-57185736D01*
X87472808Y-57254673D01*
X87435058Y-57345584D01*
X87385005Y-57420494D01*
X87367582Y-57508083D01*
X87330162Y-57598201D01*
X87330076Y-57696638D01*
X87312500Y-57785000D01*
X87312500Y-70230655D01*
X87271917Y-70222582D01*
X87181799Y-70185162D01*
X87083362Y-70185076D01*
X86995000Y-70167500D01*
X86907409Y-70184923D01*
X86809833Y-70184838D01*
X86718857Y-70222428D01*
X86630494Y-70240005D01*
X86556239Y-70289621D01*
X86466057Y-70326883D01*
X86396390Y-70396428D01*
X86321481Y-70446481D01*
X86271865Y-70520736D01*
X86202808Y-70589673D01*
X86165058Y-70680584D01*
X86115005Y-70755494D01*
X86097582Y-70843083D01*
X86060162Y-70933201D01*
X86060076Y-71031638D01*
X86042500Y-71120000D01*
X86042500Y-76517500D01*
X78151024Y-76517500D01*
X78079415Y-76410330D01*
X77764634Y-76200000D01*
X78079415Y-75989670D01*
X78404271Y-75503489D01*
X78518345Y-74930000D01*
X78404271Y-74356511D01*
X78079415Y-73870330D01*
X78065087Y-73860757D01*
X78086317Y-73856762D01*
X78302441Y-73717690D01*
X78447431Y-73505490D01*
X78498440Y-73253600D01*
X78498440Y-71526400D01*
X78454162Y-71291083D01*
X78315090Y-71074959D01*
X78102890Y-70929969D01*
X77851000Y-70878960D01*
X75819000Y-70878960D01*
X75583683Y-70923238D01*
X75367559Y-71062310D01*
X75222569Y-71274510D01*
X75171560Y-71526400D01*
X75171560Y-73253600D01*
X75215838Y-73488917D01*
X75354910Y-73705041D01*
X75567110Y-73850031D01*
X75608439Y-73858400D01*
X75590585Y-73870330D01*
X75265729Y-74356511D01*
X75151655Y-74930000D01*
X75265729Y-75503489D01*
X75590585Y-75989670D01*
X75905366Y-76200000D01*
X75590585Y-76410330D01*
X75265729Y-76896511D01*
X75151655Y-77470000D01*
X75265729Y-78043489D01*
X75590585Y-78529670D01*
X75905366Y-78740000D01*
X75590585Y-78950330D01*
X75265729Y-79436511D01*
X75151655Y-80010000D01*
X75265729Y-80583489D01*
X75590585Y-81069670D01*
X75905366Y-81280000D01*
X75590585Y-81490330D01*
X75265729Y-81976511D01*
X75151655Y-82550000D01*
X75265729Y-83123489D01*
X75590585Y-83609670D01*
X75905366Y-83820000D01*
X75590585Y-84030330D01*
X75265729Y-84516511D01*
X75151655Y-85090000D01*
X75265729Y-85663489D01*
X75590585Y-86149670D01*
X75905366Y-86360000D01*
X75590585Y-86570330D01*
X75265729Y-87056511D01*
X75151655Y-87630000D01*
X75265729Y-88203489D01*
X75590585Y-88689670D01*
X75905366Y-88900000D01*
X75590585Y-89110330D01*
X75265729Y-89596511D01*
X75151655Y-90170000D01*
X75265729Y-90743489D01*
X75590585Y-91229670D01*
X76076766Y-91554526D01*
X76650255Y-91668600D01*
X77019745Y-91668600D01*
X77593234Y-91554526D01*
X78079415Y-91229670D01*
X78404271Y-90743489D01*
X78518345Y-90170000D01*
X78404271Y-89596511D01*
X78079415Y-89110330D01*
X77764634Y-88900000D01*
X78079415Y-88689670D01*
X78404271Y-88203489D01*
X78518345Y-87630000D01*
X78404271Y-87056511D01*
X78079415Y-86570330D01*
X77764634Y-86360000D01*
X78079415Y-86149670D01*
X78151024Y-86042500D01*
X80327500Y-86042500D01*
X80327500Y-105410000D01*
X80400005Y-105774506D01*
X80606481Y-106083519D01*
X80915494Y-106289995D01*
X81280000Y-106362500D01*
X82087467Y-106362500D01*
X82049818Y-106453168D01*
X82049424Y-106904850D01*
X82221911Y-107322301D01*
X82232500Y-107332909D01*
X82232500Y-109131334D01*
X81800154Y-109562927D01*
X81550794Y-110163453D01*
X81550226Y-110813694D01*
X81798538Y-111414655D01*
X82257927Y-111874846D01*
X82858453Y-112124206D01*
X83508694Y-112124774D01*
X84109655Y-111876462D01*
X84569846Y-111417073D01*
X84819206Y-110816547D01*
X84819722Y-110225582D01*
X91699599Y-110225582D01*
X91723659Y-110875377D01*
X91926035Y-111363958D01*
X92192837Y-111462557D01*
X93165395Y-110490000D01*
X92192837Y-109517443D01*
X91926035Y-109616042D01*
X91699599Y-110225582D01*
X84819722Y-110225582D01*
X84819774Y-110166306D01*
X84571462Y-109565345D01*
X84137500Y-109130625D01*
X84137500Y-107333431D01*
X84146967Y-107323981D01*
X84320182Y-106906832D01*
X84320497Y-106545263D01*
X84589737Y-106545497D01*
X84589424Y-106904850D01*
X84761911Y-107322301D01*
X84776949Y-107337365D01*
X84845005Y-107679506D01*
X85051481Y-107988519D01*
X85360494Y-108194995D01*
X85725000Y-108267500D01*
X91421569Y-108267500D01*
X91431019Y-108276967D01*
X91848168Y-108450182D01*
X92299850Y-108450576D01*
X92717301Y-108278089D01*
X93036967Y-107958981D01*
X93210182Y-107541832D01*
X93210497Y-107180263D01*
X93569850Y-107180576D01*
X93987301Y-107008089D01*
X94297500Y-106698431D01*
X94297500Y-109283564D01*
X94218958Y-109071035D01*
X93609418Y-108844599D01*
X92959623Y-108868659D01*
X92471042Y-109071035D01*
X92372443Y-109337837D01*
X93345000Y-110310395D01*
X93359142Y-110296252D01*
X93538748Y-110475858D01*
X93524605Y-110490000D01*
X93538748Y-110504142D01*
X93359142Y-110683748D01*
X93345000Y-110669605D01*
X92372443Y-111642163D01*
X92471042Y-111908965D01*
X93080582Y-112135401D01*
X93730377Y-112111341D01*
X94218958Y-111908965D01*
X94297500Y-111696436D01*
X94297500Y-113665000D01*
X94370005Y-114029506D01*
X94575293Y-114336741D01*
X70612000Y-114178044D01*
X70612000Y-111634017D01*
X70762709Y-111998761D01*
X71512293Y-112749655D01*
X72492173Y-113156536D01*
X73553172Y-113157462D01*
X74533761Y-112752291D01*
X75284655Y-112002707D01*
X75691536Y-111022827D01*
X75692462Y-109961828D01*
X75287291Y-108981239D01*
X74537707Y-108230345D01*
X73557827Y-107823464D01*
X72496828Y-107822538D01*
X71516239Y-108227709D01*
X70765345Y-108977293D01*
X70612000Y-109346589D01*
X70612000Y-68464703D01*
X82212443Y-68464703D01*
X82311042Y-68731505D01*
X82920582Y-68957941D01*
X83570377Y-68933881D01*
X84058958Y-68731505D01*
X84157557Y-68464703D01*
X83185000Y-67492145D01*
X82212443Y-68464703D01*
X70612000Y-68464703D01*
X70612000Y-67048122D01*
X81539599Y-67048122D01*
X81563659Y-67697917D01*
X81766035Y-68186498D01*
X82032837Y-68285097D01*
X83005395Y-67312540D01*
X83364605Y-67312540D01*
X84337163Y-68285097D01*
X84603965Y-68186498D01*
X84830401Y-67576958D01*
X84806341Y-66927163D01*
X84603965Y-66438582D01*
X84337163Y-66339983D01*
X83364605Y-67312540D01*
X83005395Y-67312540D01*
X82032837Y-66339983D01*
X81766035Y-66438582D01*
X81539599Y-67048122D01*
X70612000Y-67048122D01*
X70612000Y-58294017D01*
X70762709Y-58658761D01*
X71512293Y-59409655D01*
X72492173Y-59816536D01*
X73553172Y-59817462D01*
X74533761Y-59412291D01*
X75284655Y-58662707D01*
X75691536Y-57682827D01*
X75692462Y-56621828D01*
X75287291Y-55641239D01*
X74537707Y-54890345D01*
X73557827Y-54483464D01*
X72496828Y-54482538D01*
X71516239Y-54887709D01*
X70765345Y-55637293D01*
X70612000Y-56006589D01*
X70612000Y-49657000D01*
X165608000Y-49657000D01*
X165608000Y-114807156D01*
X136969917Y-114617500D01*
X150495000Y-114617500D01*
X150859506Y-114544995D01*
X151168519Y-114338519D01*
X151374995Y-114029506D01*
X151447500Y-113665000D01*
X151447500Y-111018172D01*
X156082538Y-111018172D01*
X156487709Y-111998761D01*
X157237293Y-112749655D01*
X158217173Y-113156536D01*
X159278172Y-113157462D01*
X160258761Y-112752291D01*
X161009655Y-112002707D01*
X161416536Y-111022827D01*
X161417462Y-109961828D01*
X161012291Y-108981239D01*
X160262707Y-108230345D01*
X159282827Y-107823464D01*
X158221828Y-107822538D01*
X157241239Y-108227709D01*
X156490345Y-108977293D01*
X156083464Y-109957173D01*
X156082538Y-111018172D01*
X151447500Y-111018172D01*
X151447500Y-105727500D01*
X164465000Y-105727500D01*
X164829506Y-105654995D01*
X165138519Y-105448519D01*
X165344995Y-105139506D01*
X165417500Y-104775000D01*
X165417500Y-50800000D01*
X165344995Y-50435494D01*
X165138519Y-50126481D01*
X164829506Y-49920005D01*
X164465000Y-49847500D01*
X81280000Y-49847500D01*
X80915494Y-49920005D01*
X80606481Y-50126481D01*
X80400005Y-50435494D01*
X80327500Y-50800000D01*
X80327500Y-59055000D01*
X80400005Y-59419506D01*
X80606481Y-59728519D01*
X80915494Y-59934995D01*
X81280000Y-60007500D01*
X81825625Y-60007500D01*
X81800154Y-60032927D01*
X81550794Y-60633453D01*
X81550226Y-61283694D01*
X81798538Y-61884655D01*
X82257927Y-62344846D01*
X82746432Y-62547691D01*
X82260345Y-62748538D01*
X81800154Y-63207927D01*
X81550794Y-63808453D01*
X81550226Y-64458694D01*
X81798538Y-65059655D01*
X82257927Y-65519846D01*
X82735027Y-65717955D01*
X82311042Y-65893575D01*
X82212443Y-66160377D01*
X83185000Y-67132935D01*
X84157557Y-66160377D01*
X84058958Y-65893575D01*
X83611430Y-65727324D01*
X84109655Y-65521462D01*
X84544375Y-65087500D01*
X85725000Y-65087500D01*
X86089506Y-65014995D01*
X86398519Y-64808519D01*
X86604995Y-64499506D01*
X86677500Y-64135000D01*
X86677500Y-57803431D01*
X86686967Y-57793981D01*
X86860182Y-57376832D01*
X86860576Y-56925150D01*
X86822294Y-56832500D01*
X88265000Y-56832500D01*
X88177409Y-56849923D01*
X88079833Y-56849838D01*
G36*
X149542500Y-112712500D02*
X132397500Y-112712500D01*
X132397500Y-110928106D01*
X132598538Y-111414655D01*
X133057927Y-111874846D01*
X133658453Y-112124206D01*
X134308694Y-112124774D01*
X134909655Y-111876462D01*
X135144363Y-111642163D01*
X143172443Y-111642163D01*
X143271042Y-111908965D01*
X143880582Y-112135401D01*
X144530377Y-112111341D01*
X145018958Y-111908965D01*
X145117557Y-111642163D01*
X144145000Y-110669605D01*
X143172443Y-111642163D01*
X135144363Y-111642163D01*
X135369846Y-111417073D01*
X135619206Y-110816547D01*
X135619722Y-110225582D01*
X142499599Y-110225582D01*
X142523659Y-110875377D01*
X142726035Y-111363958D01*
X142992837Y-111462557D01*
X143965395Y-110490000D01*
X144324605Y-110490000D01*
X145297163Y-111462557D01*
X145563965Y-111363958D01*
X145790401Y-110754418D01*
X145766341Y-110104623D01*
X145563965Y-109616042D01*
X145297163Y-109517443D01*
X144324605Y-110490000D01*
X143965395Y-110490000D01*
X142992837Y-109517443D01*
X142726035Y-109616042D01*
X142499599Y-110225582D01*
X135619722Y-110225582D01*
X135619774Y-110166306D01*
X135371462Y-109565345D01*
X135144351Y-109337837D01*
X143172443Y-109337837D01*
X144145000Y-110310395D01*
X145117557Y-109337837D01*
X145018958Y-109071035D01*
X144409418Y-108844599D01*
X143759623Y-108868659D01*
X143271042Y-109071035D01*
X143172443Y-109337837D01*
X135144351Y-109337837D01*
X134937500Y-109130625D01*
X134937500Y-107333431D01*
X134946967Y-107323981D01*
X135120182Y-106906832D01*
X135120497Y-106545263D01*
X135389737Y-106545497D01*
X135389424Y-106904850D01*
X135561911Y-107322301D01*
X135576949Y-107337365D01*
X135645005Y-107679506D01*
X135851481Y-107988519D01*
X136160494Y-108194995D01*
X136525000Y-108267500D01*
X142221569Y-108267500D01*
X142231019Y-108276967D01*
X142648168Y-108450182D01*
X143099850Y-108450576D01*
X143517301Y-108278089D01*
X143836967Y-107958981D01*
X144010182Y-107541832D01*
X144010497Y-107180263D01*
X144369850Y-107180576D01*
X144787301Y-107008089D01*
X145106967Y-106688981D01*
X145280182Y-106271832D01*
X145280576Y-105820150D01*
X145242294Y-105727500D01*
X149542500Y-105727500D01*
X149542500Y-112712500D01*
X149542500Y-112712500D01*
G37*
X149542500Y-112712500D02*
X132397500Y-112712500D01*
X132397500Y-110928106D01*
X132598538Y-111414655D01*
X133057927Y-111874846D01*
X133658453Y-112124206D01*
X134308694Y-112124774D01*
X134909655Y-111876462D01*
X135144363Y-111642163D01*
X143172443Y-111642163D01*
X143271042Y-111908965D01*
X143880582Y-112135401D01*
X144530377Y-112111341D01*
X145018958Y-111908965D01*
X145117557Y-111642163D01*
X144145000Y-110669605D01*
X143172443Y-111642163D01*
X135144363Y-111642163D01*
X135369846Y-111417073D01*
X135619206Y-110816547D01*
X135619722Y-110225582D01*
X142499599Y-110225582D01*
X142523659Y-110875377D01*
X142726035Y-111363958D01*
X142992837Y-111462557D01*
X143965395Y-110490000D01*
X144324605Y-110490000D01*
X145297163Y-111462557D01*
X145563965Y-111363958D01*
X145790401Y-110754418D01*
X145766341Y-110104623D01*
X145563965Y-109616042D01*
X145297163Y-109517443D01*
X144324605Y-110490000D01*
X143965395Y-110490000D01*
X142992837Y-109517443D01*
X142726035Y-109616042D01*
X142499599Y-110225582D01*
X135619722Y-110225582D01*
X135619774Y-110166306D01*
X135371462Y-109565345D01*
X135144351Y-109337837D01*
X143172443Y-109337837D01*
X144145000Y-110310395D01*
X145117557Y-109337837D01*
X145018958Y-109071035D01*
X144409418Y-108844599D01*
X143759623Y-108868659D01*
X143271042Y-109071035D01*
X143172443Y-109337837D01*
X135144351Y-109337837D01*
X134937500Y-109130625D01*
X134937500Y-107333431D01*
X134946967Y-107323981D01*
X135120182Y-106906832D01*
X135120497Y-106545263D01*
X135389737Y-106545497D01*
X135389424Y-106904850D01*
X135561911Y-107322301D01*
X135576949Y-107337365D01*
X135645005Y-107679506D01*
X135851481Y-107988519D01*
X136160494Y-108194995D01*
X136525000Y-108267500D01*
X142221569Y-108267500D01*
X142231019Y-108276967D01*
X142648168Y-108450182D01*
X143099850Y-108450576D01*
X143517301Y-108278089D01*
X143836967Y-107958981D01*
X144010182Y-107541832D01*
X144010497Y-107180263D01*
X144369850Y-107180576D01*
X144787301Y-107008089D01*
X145106967Y-106688981D01*
X145280182Y-106271832D01*
X145280576Y-105820150D01*
X145242294Y-105727500D01*
X149542500Y-105727500D01*
X149542500Y-112712500D01*
G36*
X106131371Y-90647630D02*
X105918243Y-91160900D01*
X105917758Y-91716661D01*
X106129990Y-92230303D01*
X106362500Y-92463219D01*
X106362500Y-93345000D01*
X106435005Y-93709506D01*
X106641481Y-94018519D01*
X106950494Y-94224995D01*
X107315000Y-94297500D01*
X108111791Y-94297500D01*
X107711042Y-94463495D01*
X107612443Y-94730297D01*
X108585000Y-95702855D01*
X109557557Y-94730297D01*
X109458958Y-94463495D01*
X109012118Y-94297500D01*
X114942699Y-94297500D01*
X114754069Y-94418880D01*
X114609079Y-94631080D01*
X114558070Y-94882970D01*
X114558070Y-96881950D01*
X114602348Y-97117267D01*
X114741420Y-97333391D01*
X114953620Y-97478381D01*
X115205510Y-97529390D01*
X115252500Y-97529390D01*
X115252500Y-97701334D01*
X114820154Y-98132927D01*
X114570794Y-98733453D01*
X114570226Y-99383694D01*
X114818538Y-99984655D01*
X115277927Y-100444846D01*
X115766432Y-100647691D01*
X115280345Y-100848538D01*
X114820154Y-101307927D01*
X114570794Y-101908453D01*
X114570226Y-102558694D01*
X114818538Y-103159655D01*
X115277927Y-103619846D01*
X115878453Y-103869206D01*
X116528694Y-103869774D01*
X117129655Y-103621462D01*
X117564375Y-103187500D01*
X117792500Y-103187500D01*
X117792500Y-104312467D01*
X117701832Y-104274818D01*
X117250150Y-104274424D01*
X116832699Y-104446911D01*
X116513033Y-104766019D01*
X116339818Y-105183168D01*
X116339503Y-105544737D01*
X115980150Y-105544424D01*
X115562699Y-105716911D01*
X115243033Y-106036019D01*
X115069818Y-106453168D01*
X115069424Y-106904850D01*
X115241911Y-107322301D01*
X115252500Y-107332909D01*
X115252500Y-109131334D01*
X114820154Y-109562927D01*
X114570794Y-110163453D01*
X114570226Y-110813694D01*
X114818538Y-111414655D01*
X115277927Y-111874846D01*
X115878453Y-112124206D01*
X116528694Y-112124774D01*
X117129655Y-111876462D01*
X117364363Y-111642163D01*
X125392443Y-111642163D01*
X125491042Y-111908965D01*
X126100582Y-112135401D01*
X126750377Y-112111341D01*
X127238958Y-111908965D01*
X127337557Y-111642163D01*
X126365000Y-110669605D01*
X125392443Y-111642163D01*
X117364363Y-111642163D01*
X117589846Y-111417073D01*
X117839206Y-110816547D01*
X117839722Y-110225582D01*
X124719599Y-110225582D01*
X124743659Y-110875377D01*
X124946035Y-111363958D01*
X125212837Y-111462557D01*
X126185395Y-110490000D01*
X126544605Y-110490000D01*
X127517163Y-111462557D01*
X127783965Y-111363958D01*
X128010401Y-110754418D01*
X127986341Y-110104623D01*
X127783965Y-109616042D01*
X127517163Y-109517443D01*
X126544605Y-110490000D01*
X126185395Y-110490000D01*
X125212837Y-109517443D01*
X124946035Y-109616042D01*
X124719599Y-110225582D01*
X117839722Y-110225582D01*
X117839774Y-110166306D01*
X117591462Y-109565345D01*
X117364351Y-109337837D01*
X125392443Y-109337837D01*
X126365000Y-110310395D01*
X127337557Y-109337837D01*
X127238958Y-109071035D01*
X126629418Y-108844599D01*
X125979623Y-108868659D01*
X125491042Y-109071035D01*
X125392443Y-109337837D01*
X117364351Y-109337837D01*
X117157500Y-109130625D01*
X117157500Y-107333431D01*
X117166967Y-107323981D01*
X117340182Y-106906832D01*
X117340497Y-106545263D01*
X117609737Y-106545497D01*
X117609424Y-106904850D01*
X117781911Y-107322301D01*
X117796949Y-107337365D01*
X117865005Y-107679506D01*
X118071481Y-107988519D01*
X118380494Y-108194995D01*
X118745000Y-108267500D01*
X124441569Y-108267500D01*
X124451019Y-108276967D01*
X124868168Y-108450182D01*
X125319850Y-108450576D01*
X125737301Y-108278089D01*
X126056967Y-107958981D01*
X126230182Y-107541832D01*
X126230497Y-107180263D01*
X126589850Y-107180576D01*
X127007301Y-107008089D01*
X127326967Y-106688981D01*
X127500182Y-106271832D01*
X127500576Y-105820150D01*
X127328089Y-105402699D01*
X127317500Y-105392091D01*
X127317500Y-105092500D01*
X130492500Y-105092500D01*
X130492500Y-112712500D01*
X112712500Y-112712500D01*
X112712500Y-104140000D01*
X112639995Y-103775494D01*
X112433519Y-103466481D01*
X112124506Y-103260005D01*
X111760000Y-103187500D01*
X109944375Y-103187500D01*
X109969846Y-103162073D01*
X110219206Y-102561547D01*
X110219774Y-101911306D01*
X109971462Y-101310345D01*
X109512073Y-100850154D01*
X109023568Y-100647309D01*
X109509655Y-100446462D01*
X109969846Y-99987073D01*
X110219206Y-99386547D01*
X110219774Y-98736306D01*
X109971462Y-98135345D01*
X109512073Y-97675154D01*
X109034973Y-97477045D01*
X109458958Y-97301425D01*
X109557557Y-97034623D01*
X108585000Y-96062065D01*
X107612443Y-97034623D01*
X107711042Y-97301425D01*
X108158570Y-97467676D01*
X107660345Y-97673538D01*
X107225625Y-98107500D01*
X106045000Y-98107500D01*
X105680494Y-98180005D01*
X105371481Y-98386481D01*
X105165005Y-98695494D01*
X105092500Y-99060000D01*
X105092500Y-105391569D01*
X105083033Y-105401019D01*
X104909818Y-105818168D01*
X104909424Y-106269850D01*
X104947706Y-106362500D01*
X102062294Y-106362500D01*
X101928089Y-106037699D01*
X101917500Y-106027091D01*
X101917500Y-102235000D01*
X101844995Y-101870494D01*
X101638519Y-101561481D01*
X101329506Y-101355005D01*
X100965000Y-101282500D01*
X99783666Y-101282500D01*
X99352073Y-100850154D01*
X98863568Y-100647309D01*
X99349655Y-100446462D01*
X99809846Y-99987073D01*
X100059206Y-99386547D01*
X100059774Y-98736306D01*
X99811462Y-98135345D01*
X99377500Y-97700625D01*
X99377500Y-97529390D01*
X99424490Y-97529390D01*
X99659807Y-97485112D01*
X99875931Y-97346040D01*
X100020921Y-97133840D01*
X100071930Y-96881950D01*
X100071930Y-95618042D01*
X106939599Y-95618042D01*
X106963659Y-96267837D01*
X107166035Y-96756418D01*
X107432837Y-96855017D01*
X108405395Y-95882460D01*
X108764605Y-95882460D01*
X109737163Y-96855017D01*
X110003965Y-96756418D01*
X110230401Y-96146878D01*
X110206341Y-95497083D01*
X110003965Y-95008502D01*
X109737163Y-94909903D01*
X108764605Y-95882460D01*
X108405395Y-95882460D01*
X107432837Y-94909903D01*
X107166035Y-95008502D01*
X106939599Y-95618042D01*
X100071930Y-95618042D01*
X100071930Y-94882970D01*
X100027652Y-94647653D01*
X99888580Y-94431529D01*
X99692422Y-94297500D01*
X104140000Y-94297500D01*
X104504506Y-94224995D01*
X104813519Y-94018519D01*
X105019995Y-93709506D01*
X105092500Y-93345000D01*
X105092500Y-90487500D01*
X106291781Y-90487500D01*
X106131371Y-90647630D01*
X106131371Y-90647630D01*
G37*
X106131371Y-90647630D02*
X105918243Y-91160900D01*
X105917758Y-91716661D01*
X106129990Y-92230303D01*
X106362500Y-92463219D01*
X106362500Y-93345000D01*
X106435005Y-93709506D01*
X106641481Y-94018519D01*
X106950494Y-94224995D01*
X107315000Y-94297500D01*
X108111791Y-94297500D01*
X107711042Y-94463495D01*
X107612443Y-94730297D01*
X108585000Y-95702855D01*
X109557557Y-94730297D01*
X109458958Y-94463495D01*
X109012118Y-94297500D01*
X114942699Y-94297500D01*
X114754069Y-94418880D01*
X114609079Y-94631080D01*
X114558070Y-94882970D01*
X114558070Y-96881950D01*
X114602348Y-97117267D01*
X114741420Y-97333391D01*
X114953620Y-97478381D01*
X115205510Y-97529390D01*
X115252500Y-97529390D01*
X115252500Y-97701334D01*
X114820154Y-98132927D01*
X114570794Y-98733453D01*
X114570226Y-99383694D01*
X114818538Y-99984655D01*
X115277927Y-100444846D01*
X115766432Y-100647691D01*
X115280345Y-100848538D01*
X114820154Y-101307927D01*
X114570794Y-101908453D01*
X114570226Y-102558694D01*
X114818538Y-103159655D01*
X115277927Y-103619846D01*
X115878453Y-103869206D01*
X116528694Y-103869774D01*
X117129655Y-103621462D01*
X117564375Y-103187500D01*
X117792500Y-103187500D01*
X117792500Y-104312467D01*
X117701832Y-104274818D01*
X117250150Y-104274424D01*
X116832699Y-104446911D01*
X116513033Y-104766019D01*
X116339818Y-105183168D01*
X116339503Y-105544737D01*
X115980150Y-105544424D01*
X115562699Y-105716911D01*
X115243033Y-106036019D01*
X115069818Y-106453168D01*
X115069424Y-106904850D01*
X115241911Y-107322301D01*
X115252500Y-107332909D01*
X115252500Y-109131334D01*
X114820154Y-109562927D01*
X114570794Y-110163453D01*
X114570226Y-110813694D01*
X114818538Y-111414655D01*
X115277927Y-111874846D01*
X115878453Y-112124206D01*
X116528694Y-112124774D01*
X117129655Y-111876462D01*
X117364363Y-111642163D01*
X125392443Y-111642163D01*
X125491042Y-111908965D01*
X126100582Y-112135401D01*
X126750377Y-112111341D01*
X127238958Y-111908965D01*
X127337557Y-111642163D01*
X126365000Y-110669605D01*
X125392443Y-111642163D01*
X117364363Y-111642163D01*
X117589846Y-111417073D01*
X117839206Y-110816547D01*
X117839722Y-110225582D01*
X124719599Y-110225582D01*
X124743659Y-110875377D01*
X124946035Y-111363958D01*
X125212837Y-111462557D01*
X126185395Y-110490000D01*
X126544605Y-110490000D01*
X127517163Y-111462557D01*
X127783965Y-111363958D01*
X128010401Y-110754418D01*
X127986341Y-110104623D01*
X127783965Y-109616042D01*
X127517163Y-109517443D01*
X126544605Y-110490000D01*
X126185395Y-110490000D01*
X125212837Y-109517443D01*
X124946035Y-109616042D01*
X124719599Y-110225582D01*
X117839722Y-110225582D01*
X117839774Y-110166306D01*
X117591462Y-109565345D01*
X117364351Y-109337837D01*
X125392443Y-109337837D01*
X126365000Y-110310395D01*
X127337557Y-109337837D01*
X127238958Y-109071035D01*
X126629418Y-108844599D01*
X125979623Y-108868659D01*
X125491042Y-109071035D01*
X125392443Y-109337837D01*
X117364351Y-109337837D01*
X117157500Y-109130625D01*
X117157500Y-107333431D01*
X117166967Y-107323981D01*
X117340182Y-106906832D01*
X117340497Y-106545263D01*
X117609737Y-106545497D01*
X117609424Y-106904850D01*
X117781911Y-107322301D01*
X117796949Y-107337365D01*
X117865005Y-107679506D01*
X118071481Y-107988519D01*
X118380494Y-108194995D01*
X118745000Y-108267500D01*
X124441569Y-108267500D01*
X124451019Y-108276967D01*
X124868168Y-108450182D01*
X125319850Y-108450576D01*
X125737301Y-108278089D01*
X126056967Y-107958981D01*
X126230182Y-107541832D01*
X126230497Y-107180263D01*
X126589850Y-107180576D01*
X127007301Y-107008089D01*
X127326967Y-106688981D01*
X127500182Y-106271832D01*
X127500576Y-105820150D01*
X127328089Y-105402699D01*
X127317500Y-105392091D01*
X127317500Y-105092500D01*
X130492500Y-105092500D01*
X130492500Y-112712500D01*
X112712500Y-112712500D01*
X112712500Y-104140000D01*
X112639995Y-103775494D01*
X112433519Y-103466481D01*
X112124506Y-103260005D01*
X111760000Y-103187500D01*
X109944375Y-103187500D01*
X109969846Y-103162073D01*
X110219206Y-102561547D01*
X110219774Y-101911306D01*
X109971462Y-101310345D01*
X109512073Y-100850154D01*
X109023568Y-100647309D01*
X109509655Y-100446462D01*
X109969846Y-99987073D01*
X110219206Y-99386547D01*
X110219774Y-98736306D01*
X109971462Y-98135345D01*
X109512073Y-97675154D01*
X109034973Y-97477045D01*
X109458958Y-97301425D01*
X109557557Y-97034623D01*
X108585000Y-96062065D01*
X107612443Y-97034623D01*
X107711042Y-97301425D01*
X108158570Y-97467676D01*
X107660345Y-97673538D01*
X107225625Y-98107500D01*
X106045000Y-98107500D01*
X105680494Y-98180005D01*
X105371481Y-98386481D01*
X105165005Y-98695494D01*
X105092500Y-99060000D01*
X105092500Y-105391569D01*
X105083033Y-105401019D01*
X104909818Y-105818168D01*
X104909424Y-106269850D01*
X104947706Y-106362500D01*
X102062294Y-106362500D01*
X101928089Y-106037699D01*
X101917500Y-106027091D01*
X101917500Y-102235000D01*
X101844995Y-101870494D01*
X101638519Y-101561481D01*
X101329506Y-101355005D01*
X100965000Y-101282500D01*
X99783666Y-101282500D01*
X99352073Y-100850154D01*
X98863568Y-100647309D01*
X99349655Y-100446462D01*
X99809846Y-99987073D01*
X100059206Y-99386547D01*
X100059774Y-98736306D01*
X99811462Y-98135345D01*
X99377500Y-97700625D01*
X99377500Y-97529390D01*
X99424490Y-97529390D01*
X99659807Y-97485112D01*
X99875931Y-97346040D01*
X100020921Y-97133840D01*
X100071930Y-96881950D01*
X100071930Y-95618042D01*
X106939599Y-95618042D01*
X106963659Y-96267837D01*
X107166035Y-96756418D01*
X107432837Y-96855017D01*
X108405395Y-95882460D01*
X108764605Y-95882460D01*
X109737163Y-96855017D01*
X110003965Y-96756418D01*
X110230401Y-96146878D01*
X110206341Y-95497083D01*
X110003965Y-95008502D01*
X109737163Y-94909903D01*
X108764605Y-95882460D01*
X108405395Y-95882460D01*
X107432837Y-94909903D01*
X107166035Y-95008502D01*
X106939599Y-95618042D01*
X100071930Y-95618042D01*
X100071930Y-94882970D01*
X100027652Y-94647653D01*
X99888580Y-94431529D01*
X99692422Y-94297500D01*
X104140000Y-94297500D01*
X104504506Y-94224995D01*
X104813519Y-94018519D01*
X105019995Y-93709506D01*
X105092500Y-93345000D01*
X105092500Y-90487500D01*
X106291781Y-90487500D01*
X106131371Y-90647630D01*
G36*
X97472500Y-93345000D02*
X97472500Y-94235530D01*
X97425510Y-94235530D01*
X97190193Y-94279808D01*
X96974069Y-94418880D01*
X96829079Y-94631080D01*
X96778070Y-94882970D01*
X96778070Y-96881950D01*
X96822348Y-97117267D01*
X96961420Y-97333391D01*
X97173620Y-97478381D01*
X97425510Y-97529390D01*
X97472500Y-97529390D01*
X97472500Y-97701334D01*
X97040154Y-98132927D01*
X96790794Y-98733453D01*
X96790226Y-99383694D01*
X97038538Y-99984655D01*
X97497927Y-100444846D01*
X97986432Y-100647691D01*
X97500345Y-100848538D01*
X97040154Y-101307927D01*
X96790794Y-101908453D01*
X96790226Y-102558694D01*
X97038538Y-103159655D01*
X97497927Y-103619846D01*
X98098453Y-103869206D01*
X98748694Y-103869774D01*
X99349655Y-103621462D01*
X99784375Y-103187500D01*
X100012500Y-103187500D01*
X100012500Y-104312467D01*
X99921832Y-104274818D01*
X99470150Y-104274424D01*
X99052699Y-104446911D01*
X98733033Y-104766019D01*
X98559818Y-105183168D01*
X98559503Y-105544737D01*
X98200150Y-105544424D01*
X97782699Y-105716911D01*
X97463033Y-106036019D01*
X97289818Y-106453168D01*
X97289424Y-106904850D01*
X97461911Y-107322301D01*
X97472500Y-107332909D01*
X97472500Y-109131334D01*
X97040154Y-109562927D01*
X96790794Y-110163453D01*
X96790226Y-110813694D01*
X97038538Y-111414655D01*
X97497927Y-111874846D01*
X98098453Y-112124206D01*
X98748694Y-112124774D01*
X99349655Y-111876462D01*
X99584363Y-111642163D01*
X107612443Y-111642163D01*
X107711042Y-111908965D01*
X108320582Y-112135401D01*
X108970377Y-112111341D01*
X109458958Y-111908965D01*
X109557557Y-111642163D01*
X108585000Y-110669605D01*
X107612443Y-111642163D01*
X99584363Y-111642163D01*
X99809846Y-111417073D01*
X100059206Y-110816547D01*
X100059722Y-110225582D01*
X106939599Y-110225582D01*
X106963659Y-110875377D01*
X107166035Y-111363958D01*
X107432837Y-111462557D01*
X108405395Y-110490000D01*
X108764605Y-110490000D01*
X109737163Y-111462557D01*
X110003965Y-111363958D01*
X110230401Y-110754418D01*
X110206341Y-110104623D01*
X110003965Y-109616042D01*
X109737163Y-109517443D01*
X108764605Y-110490000D01*
X108405395Y-110490000D01*
X107432837Y-109517443D01*
X107166035Y-109616042D01*
X106939599Y-110225582D01*
X100059722Y-110225582D01*
X100059774Y-110166306D01*
X99811462Y-109565345D01*
X99584351Y-109337837D01*
X107612443Y-109337837D01*
X108585000Y-110310395D01*
X109557557Y-109337837D01*
X109458958Y-109071035D01*
X108849418Y-108844599D01*
X108199623Y-108868659D01*
X107711042Y-109071035D01*
X107612443Y-109337837D01*
X99584351Y-109337837D01*
X99377500Y-109130625D01*
X99377500Y-107333431D01*
X99386967Y-107323981D01*
X99560182Y-106906832D01*
X99560497Y-106545263D01*
X99829737Y-106545497D01*
X99829424Y-106904850D01*
X100001911Y-107322301D01*
X100016949Y-107337365D01*
X100085005Y-107679506D01*
X100291481Y-107988519D01*
X100600494Y-108194995D01*
X100965000Y-108267500D01*
X106661569Y-108267500D01*
X106671019Y-108276967D01*
X107088168Y-108450182D01*
X107539850Y-108450576D01*
X107957301Y-108278089D01*
X108276967Y-107958981D01*
X108450182Y-107541832D01*
X108450497Y-107180263D01*
X108809850Y-107180576D01*
X109227301Y-107008089D01*
X109546967Y-106688981D01*
X109720182Y-106271832D01*
X109720576Y-105820150D01*
X109548089Y-105402699D01*
X109537500Y-105392091D01*
X109537500Y-105092500D01*
X110807500Y-105092500D01*
X110807500Y-112712500D01*
X96202500Y-112712500D01*
X96202500Y-104140000D01*
X96129995Y-103775494D01*
X95923519Y-103466481D01*
X95614506Y-103260005D01*
X95250000Y-103187500D01*
X94704375Y-103187500D01*
X94729846Y-103162073D01*
X94979206Y-102561547D01*
X94979774Y-101911306D01*
X94731462Y-101310345D01*
X94272073Y-100850154D01*
X93783568Y-100647309D01*
X94269655Y-100446462D01*
X94729846Y-99987073D01*
X94979206Y-99386547D01*
X94979774Y-98736306D01*
X94731462Y-98135345D01*
X94272073Y-97675154D01*
X93794973Y-97477045D01*
X94218958Y-97301425D01*
X94317557Y-97034623D01*
X93345000Y-96062065D01*
X92372443Y-97034623D01*
X92471042Y-97301425D01*
X92918570Y-97467676D01*
X92420345Y-97673538D01*
X91985625Y-98107500D01*
X90805000Y-98107500D01*
X90440494Y-98180005D01*
X90131481Y-98386481D01*
X89925005Y-98695494D01*
X89852500Y-99060000D01*
X89852500Y-105391569D01*
X89843033Y-105401019D01*
X89669818Y-105818168D01*
X89669424Y-106269850D01*
X89707706Y-106362500D01*
X86822294Y-106362500D01*
X86688089Y-106037699D01*
X86677500Y-106027091D01*
X86677500Y-102235000D01*
X86604995Y-101870494D01*
X86398519Y-101561481D01*
X86089506Y-101355005D01*
X85725000Y-101282500D01*
X84543666Y-101282500D01*
X84112073Y-100850154D01*
X83623568Y-100647309D01*
X84109655Y-100446462D01*
X84569846Y-99987073D01*
X84819206Y-99386547D01*
X84819774Y-98736306D01*
X84571462Y-98135345D01*
X84137500Y-97700625D01*
X84137500Y-97529390D01*
X84184490Y-97529390D01*
X84419807Y-97485112D01*
X84635931Y-97346040D01*
X84780921Y-97133840D01*
X84831930Y-96881950D01*
X84831930Y-95618042D01*
X91699599Y-95618042D01*
X91723659Y-96267837D01*
X91926035Y-96756418D01*
X92192837Y-96855017D01*
X93165395Y-95882460D01*
X93524605Y-95882460D01*
X94497163Y-96855017D01*
X94763965Y-96756418D01*
X94990401Y-96146878D01*
X94966341Y-95497083D01*
X94763965Y-95008502D01*
X94497163Y-94909903D01*
X93524605Y-95882460D01*
X93165395Y-95882460D01*
X92192837Y-94909903D01*
X91926035Y-95008502D01*
X91699599Y-95618042D01*
X84831930Y-95618042D01*
X84831930Y-94882970D01*
X84803203Y-94730297D01*
X92372443Y-94730297D01*
X93345000Y-95702855D01*
X94317557Y-94730297D01*
X94218958Y-94463495D01*
X93609418Y-94237059D01*
X92959623Y-94261119D01*
X92471042Y-94463495D01*
X92372443Y-94730297D01*
X84803203Y-94730297D01*
X84787652Y-94647653D01*
X84648580Y-94431529D01*
X84436380Y-94286539D01*
X84184490Y-94235530D01*
X84137500Y-94235530D01*
X84137500Y-93027500D01*
X97535655Y-93027500D01*
X97472500Y-93345000D01*
X97472500Y-93345000D01*
G37*
X97472500Y-93345000D02*
X97472500Y-94235530D01*
X97425510Y-94235530D01*
X97190193Y-94279808D01*
X96974069Y-94418880D01*
X96829079Y-94631080D01*
X96778070Y-94882970D01*
X96778070Y-96881950D01*
X96822348Y-97117267D01*
X96961420Y-97333391D01*
X97173620Y-97478381D01*
X97425510Y-97529390D01*
X97472500Y-97529390D01*
X97472500Y-97701334D01*
X97040154Y-98132927D01*
X96790794Y-98733453D01*
X96790226Y-99383694D01*
X97038538Y-99984655D01*
X97497927Y-100444846D01*
X97986432Y-100647691D01*
X97500345Y-100848538D01*
X97040154Y-101307927D01*
X96790794Y-101908453D01*
X96790226Y-102558694D01*
X97038538Y-103159655D01*
X97497927Y-103619846D01*
X98098453Y-103869206D01*
X98748694Y-103869774D01*
X99349655Y-103621462D01*
X99784375Y-103187500D01*
X100012500Y-103187500D01*
X100012500Y-104312467D01*
X99921832Y-104274818D01*
X99470150Y-104274424D01*
X99052699Y-104446911D01*
X98733033Y-104766019D01*
X98559818Y-105183168D01*
X98559503Y-105544737D01*
X98200150Y-105544424D01*
X97782699Y-105716911D01*
X97463033Y-106036019D01*
X97289818Y-106453168D01*
X97289424Y-106904850D01*
X97461911Y-107322301D01*
X97472500Y-107332909D01*
X97472500Y-109131334D01*
X97040154Y-109562927D01*
X96790794Y-110163453D01*
X96790226Y-110813694D01*
X97038538Y-111414655D01*
X97497927Y-111874846D01*
X98098453Y-112124206D01*
X98748694Y-112124774D01*
X99349655Y-111876462D01*
X99584363Y-111642163D01*
X107612443Y-111642163D01*
X107711042Y-111908965D01*
X108320582Y-112135401D01*
X108970377Y-112111341D01*
X109458958Y-111908965D01*
X109557557Y-111642163D01*
X108585000Y-110669605D01*
X107612443Y-111642163D01*
X99584363Y-111642163D01*
X99809846Y-111417073D01*
X100059206Y-110816547D01*
X100059722Y-110225582D01*
X106939599Y-110225582D01*
X106963659Y-110875377D01*
X107166035Y-111363958D01*
X107432837Y-111462557D01*
X108405395Y-110490000D01*
X108764605Y-110490000D01*
X109737163Y-111462557D01*
X110003965Y-111363958D01*
X110230401Y-110754418D01*
X110206341Y-110104623D01*
X110003965Y-109616042D01*
X109737163Y-109517443D01*
X108764605Y-110490000D01*
X108405395Y-110490000D01*
X107432837Y-109517443D01*
X107166035Y-109616042D01*
X106939599Y-110225582D01*
X100059722Y-110225582D01*
X100059774Y-110166306D01*
X99811462Y-109565345D01*
X99584351Y-109337837D01*
X107612443Y-109337837D01*
X108585000Y-110310395D01*
X109557557Y-109337837D01*
X109458958Y-109071035D01*
X108849418Y-108844599D01*
X108199623Y-108868659D01*
X107711042Y-109071035D01*
X107612443Y-109337837D01*
X99584351Y-109337837D01*
X99377500Y-109130625D01*
X99377500Y-107333431D01*
X99386967Y-107323981D01*
X99560182Y-106906832D01*
X99560497Y-106545263D01*
X99829737Y-106545497D01*
X99829424Y-106904850D01*
X100001911Y-107322301D01*
X100016949Y-107337365D01*
X100085005Y-107679506D01*
X100291481Y-107988519D01*
X100600494Y-108194995D01*
X100965000Y-108267500D01*
X106661569Y-108267500D01*
X106671019Y-108276967D01*
X107088168Y-108450182D01*
X107539850Y-108450576D01*
X107957301Y-108278089D01*
X108276967Y-107958981D01*
X108450182Y-107541832D01*
X108450497Y-107180263D01*
X108809850Y-107180576D01*
X109227301Y-107008089D01*
X109546967Y-106688981D01*
X109720182Y-106271832D01*
X109720576Y-105820150D01*
X109548089Y-105402699D01*
X109537500Y-105392091D01*
X109537500Y-105092500D01*
X110807500Y-105092500D01*
X110807500Y-112712500D01*
X96202500Y-112712500D01*
X96202500Y-104140000D01*
X96129995Y-103775494D01*
X95923519Y-103466481D01*
X95614506Y-103260005D01*
X95250000Y-103187500D01*
X94704375Y-103187500D01*
X94729846Y-103162073D01*
X94979206Y-102561547D01*
X94979774Y-101911306D01*
X94731462Y-101310345D01*
X94272073Y-100850154D01*
X93783568Y-100647309D01*
X94269655Y-100446462D01*
X94729846Y-99987073D01*
X94979206Y-99386547D01*
X94979774Y-98736306D01*
X94731462Y-98135345D01*
X94272073Y-97675154D01*
X93794973Y-97477045D01*
X94218958Y-97301425D01*
X94317557Y-97034623D01*
X93345000Y-96062065D01*
X92372443Y-97034623D01*
X92471042Y-97301425D01*
X92918570Y-97467676D01*
X92420345Y-97673538D01*
X91985625Y-98107500D01*
X90805000Y-98107500D01*
X90440494Y-98180005D01*
X90131481Y-98386481D01*
X89925005Y-98695494D01*
X89852500Y-99060000D01*
X89852500Y-105391569D01*
X89843033Y-105401019D01*
X89669818Y-105818168D01*
X89669424Y-106269850D01*
X89707706Y-106362500D01*
X86822294Y-106362500D01*
X86688089Y-106037699D01*
X86677500Y-106027091D01*
X86677500Y-102235000D01*
X86604995Y-101870494D01*
X86398519Y-101561481D01*
X86089506Y-101355005D01*
X85725000Y-101282500D01*
X84543666Y-101282500D01*
X84112073Y-100850154D01*
X83623568Y-100647309D01*
X84109655Y-100446462D01*
X84569846Y-99987073D01*
X84819206Y-99386547D01*
X84819774Y-98736306D01*
X84571462Y-98135345D01*
X84137500Y-97700625D01*
X84137500Y-97529390D01*
X84184490Y-97529390D01*
X84419807Y-97485112D01*
X84635931Y-97346040D01*
X84780921Y-97133840D01*
X84831930Y-96881950D01*
X84831930Y-95618042D01*
X91699599Y-95618042D01*
X91723659Y-96267837D01*
X91926035Y-96756418D01*
X92192837Y-96855017D01*
X93165395Y-95882460D01*
X93524605Y-95882460D01*
X94497163Y-96855017D01*
X94763965Y-96756418D01*
X94990401Y-96146878D01*
X94966341Y-95497083D01*
X94763965Y-95008502D01*
X94497163Y-94909903D01*
X93524605Y-95882460D01*
X93165395Y-95882460D01*
X92192837Y-94909903D01*
X91926035Y-95008502D01*
X91699599Y-95618042D01*
X84831930Y-95618042D01*
X84831930Y-94882970D01*
X84803203Y-94730297D01*
X92372443Y-94730297D01*
X93345000Y-95702855D01*
X94317557Y-94730297D01*
X94218958Y-94463495D01*
X93609418Y-94237059D01*
X92959623Y-94261119D01*
X92471042Y-94463495D01*
X92372443Y-94730297D01*
X84803203Y-94730297D01*
X84787652Y-94647653D01*
X84648580Y-94431529D01*
X84436380Y-94286539D01*
X84184490Y-94235530D01*
X84137500Y-94235530D01*
X84137500Y-93027500D01*
X97535655Y-93027500D01*
X97472500Y-93345000D01*
G36*
X89841911Y-57157301D02*
X89852500Y-57167909D01*
X89852500Y-60960000D01*
X89925005Y-61324506D01*
X90131481Y-61633519D01*
X90440494Y-61839995D01*
X90805000Y-61912500D01*
X91986334Y-61912500D01*
X92417927Y-62344846D01*
X92906432Y-62547691D01*
X92420345Y-62748538D01*
X91960154Y-63207927D01*
X91710794Y-63808453D01*
X91710226Y-64458694D01*
X91958538Y-65059655D01*
X92392500Y-65494375D01*
X92392500Y-65665610D01*
X92345510Y-65665610D01*
X92110193Y-65709888D01*
X91894069Y-65848960D01*
X91749079Y-66061160D01*
X91698070Y-66313050D01*
X91698070Y-68312030D01*
X91742348Y-68547347D01*
X91881420Y-68763471D01*
X92093620Y-68908461D01*
X92345510Y-68959470D01*
X92392500Y-68959470D01*
X92392500Y-83820000D01*
X92465005Y-84184506D01*
X92671481Y-84493519D01*
X92980494Y-84699995D01*
X93345000Y-84772500D01*
X98671904Y-84772500D01*
X98742500Y-84843219D01*
X98742500Y-85725000D01*
X98815005Y-86089506D01*
X99021481Y-86398519D01*
X99330494Y-86604995D01*
X99695000Y-86677500D01*
X116585655Y-86677500D01*
X116522500Y-86995000D01*
X116522500Y-87876904D01*
X116291371Y-88107630D01*
X116078243Y-88620900D01*
X116077758Y-89176661D01*
X116289990Y-89690303D01*
X116682630Y-90083629D01*
X117195900Y-90296757D01*
X117751661Y-90297242D01*
X118265303Y-90085010D01*
X118658629Y-89692370D01*
X118871757Y-89179100D01*
X118872242Y-88623339D01*
X118660010Y-88109697D01*
X118498096Y-87947500D01*
X124706781Y-87947500D01*
X124546371Y-88107630D01*
X124333243Y-88620900D01*
X124332758Y-89176661D01*
X124544990Y-89690303D01*
X124937630Y-90083629D01*
X125450900Y-90296757D01*
X126006661Y-90297242D01*
X126520303Y-90085010D01*
X126913629Y-89692370D01*
X127126757Y-89179100D01*
X127127242Y-88623339D01*
X126915010Y-88109697D01*
X126753096Y-87947500D01*
X139946781Y-87947500D01*
X139786371Y-88107630D01*
X139573243Y-88620900D01*
X139572758Y-89176661D01*
X139784990Y-89690303D01*
X140017500Y-89923219D01*
X140017500Y-93027500D01*
X133985000Y-93027500D01*
X133620494Y-93100005D01*
X133311481Y-93306481D01*
X133105005Y-93615494D01*
X133032500Y-93980000D01*
X133032500Y-94235530D01*
X132985510Y-94235530D01*
X132750193Y-94279808D01*
X132534069Y-94418880D01*
X132389079Y-94631080D01*
X132338070Y-94882970D01*
X132338070Y-96881950D01*
X132382348Y-97117267D01*
X132521420Y-97333391D01*
X132733620Y-97478381D01*
X132985510Y-97529390D01*
X133032500Y-97529390D01*
X133032500Y-97701334D01*
X132600154Y-98132927D01*
X132350794Y-98733453D01*
X132350226Y-99383694D01*
X132598538Y-99984655D01*
X133057927Y-100444846D01*
X133546432Y-100647691D01*
X133060345Y-100848538D01*
X132600154Y-101307927D01*
X132350794Y-101908453D01*
X132350226Y-102558694D01*
X132598538Y-103159655D01*
X133057927Y-103619846D01*
X133658453Y-103869206D01*
X134308694Y-103869774D01*
X134909655Y-103621462D01*
X135344375Y-103187500D01*
X135572500Y-103187500D01*
X135572500Y-104312467D01*
X135481832Y-104274818D01*
X135030150Y-104274424D01*
X134612699Y-104446911D01*
X134293033Y-104766019D01*
X134119818Y-105183168D01*
X134119503Y-105544737D01*
X133760150Y-105544424D01*
X133342699Y-105716911D01*
X133023033Y-106036019D01*
X132849818Y-106453168D01*
X132849424Y-106904850D01*
X133021911Y-107322301D01*
X133032500Y-107332909D01*
X133032500Y-109131334D01*
X132600154Y-109562927D01*
X132397500Y-110050972D01*
X132397500Y-104140000D01*
X132324995Y-103775494D01*
X132118519Y-103466481D01*
X131809506Y-103260005D01*
X131445000Y-103187500D01*
X127724375Y-103187500D01*
X127749846Y-103162073D01*
X127999206Y-102561547D01*
X127999774Y-101911306D01*
X127751462Y-101310345D01*
X127292073Y-100850154D01*
X126803568Y-100647309D01*
X127289655Y-100446462D01*
X127749846Y-99987073D01*
X127999206Y-99386547D01*
X127999774Y-98736306D01*
X127751462Y-98135345D01*
X127292073Y-97675154D01*
X126814973Y-97477045D01*
X127238958Y-97301425D01*
X127337557Y-97034623D01*
X126365000Y-96062065D01*
X125392443Y-97034623D01*
X125491042Y-97301425D01*
X125938570Y-97467676D01*
X125440345Y-97673538D01*
X125005625Y-98107500D01*
X123825000Y-98107500D01*
X123460494Y-98180005D01*
X123151481Y-98386481D01*
X122945005Y-98695494D01*
X122872500Y-99060000D01*
X122872500Y-105391569D01*
X122863033Y-105401019D01*
X122689818Y-105818168D01*
X122689424Y-106269850D01*
X122727706Y-106362500D01*
X119842294Y-106362500D01*
X119708089Y-106037699D01*
X119697500Y-106027091D01*
X119697500Y-102235000D01*
X119624995Y-101870494D01*
X119418519Y-101561481D01*
X119109506Y-101355005D01*
X118745000Y-101282500D01*
X117563666Y-101282500D01*
X117132073Y-100850154D01*
X116643568Y-100647309D01*
X117129655Y-100446462D01*
X117589846Y-99987073D01*
X117839206Y-99386547D01*
X117839774Y-98736306D01*
X117591462Y-98135345D01*
X117157500Y-97700625D01*
X117157500Y-97529390D01*
X117204490Y-97529390D01*
X117439807Y-97485112D01*
X117655931Y-97346040D01*
X117800921Y-97133840D01*
X117851930Y-96881950D01*
X117851930Y-95618042D01*
X124719599Y-95618042D01*
X124743659Y-96267837D01*
X124946035Y-96756418D01*
X125212837Y-96855017D01*
X126185395Y-95882460D01*
X126544605Y-95882460D01*
X127517163Y-96855017D01*
X127783965Y-96756418D01*
X128010401Y-96146878D01*
X127986341Y-95497083D01*
X127783965Y-95008502D01*
X127517163Y-94909903D01*
X126544605Y-95882460D01*
X126185395Y-95882460D01*
X125212837Y-94909903D01*
X124946035Y-95008502D01*
X124719599Y-95618042D01*
X117851930Y-95618042D01*
X117851930Y-94882970D01*
X117823203Y-94730297D01*
X125392443Y-94730297D01*
X126365000Y-95702855D01*
X127337557Y-94730297D01*
X127238958Y-94463495D01*
X126629418Y-94237059D01*
X125979623Y-94261119D01*
X125491042Y-94463495D01*
X125392443Y-94730297D01*
X117823203Y-94730297D01*
X117807652Y-94647653D01*
X117668580Y-94431529D01*
X117456380Y-94286539D01*
X117204490Y-94235530D01*
X117157500Y-94235530D01*
X117157500Y-92392500D01*
X129786904Y-92392500D01*
X130017630Y-92623629D01*
X130530900Y-92836757D01*
X131086661Y-92837242D01*
X131600303Y-92625010D01*
X131993629Y-92232370D01*
X132206757Y-91719100D01*
X132206759Y-91716661D01*
X134492758Y-91716661D01*
X134704990Y-92230303D01*
X135097630Y-92623629D01*
X135610900Y-92836757D01*
X136166661Y-92837242D01*
X136680303Y-92625010D01*
X137073629Y-92232370D01*
X137286757Y-91719100D01*
X137287242Y-91163339D01*
X137075010Y-90649697D01*
X136682370Y-90256371D01*
X136169100Y-90043243D01*
X135613339Y-90042758D01*
X135099697Y-90254990D01*
X134706371Y-90647630D01*
X134493243Y-91160900D01*
X134492758Y-91716661D01*
X132206759Y-91716661D01*
X132207242Y-91163339D01*
X131995010Y-90649697D01*
X131602370Y-90256371D01*
X131089100Y-90043243D01*
X130533339Y-90042758D01*
X130019697Y-90254990D01*
X129786781Y-90487500D01*
X116205000Y-90487500D01*
X115840494Y-90560005D01*
X115531481Y-90766481D01*
X115325005Y-91075494D01*
X115252500Y-91440000D01*
X115252500Y-92392500D01*
X113418219Y-92392500D01*
X113578629Y-92232370D01*
X113791757Y-91719100D01*
X113792242Y-91163339D01*
X113580010Y-90649697D01*
X113347500Y-90416781D01*
X113347500Y-89535000D01*
X113274995Y-89170494D01*
X113068519Y-88861481D01*
X112759506Y-88655005D01*
X112395000Y-88582500D01*
X104140000Y-88582500D01*
X103775494Y-88655005D01*
X103632131Y-88750797D01*
X103632242Y-88623339D01*
X103420010Y-88109697D01*
X103027370Y-87716371D01*
X102514100Y-87503243D01*
X101958339Y-87502758D01*
X101444697Y-87714990D01*
X101051371Y-88107630D01*
X100838243Y-88620900D01*
X100837758Y-89176661D01*
X101049990Y-89690303D01*
X101282500Y-89923219D01*
X101282500Y-91122500D01*
X83185000Y-91122500D01*
X82820494Y-91195005D01*
X82511481Y-91401481D01*
X82305005Y-91710494D01*
X82232500Y-92075000D01*
X82232500Y-85090000D01*
X82159995Y-84725494D01*
X81953519Y-84416481D01*
X81644506Y-84210005D01*
X81280000Y-84137500D01*
X78151024Y-84137500D01*
X78079415Y-84030330D01*
X77764634Y-83820000D01*
X78079415Y-83609670D01*
X78151024Y-83502500D01*
X88265000Y-83502500D01*
X88629506Y-83429995D01*
X88938519Y-83223519D01*
X89144995Y-82914506D01*
X89217500Y-82550000D01*
X89217500Y-57785000D01*
X89200077Y-57697409D01*
X89200162Y-57599833D01*
X89162572Y-57508857D01*
X89144995Y-57420494D01*
X89095379Y-57346239D01*
X89058117Y-57256057D01*
X88988572Y-57186390D01*
X88938519Y-57111481D01*
X88864264Y-57061865D01*
X88795327Y-56992808D01*
X88704416Y-56955058D01*
X88629506Y-56905005D01*
X88541917Y-56887582D01*
X88451799Y-56850162D01*
X88353362Y-56850076D01*
X88265000Y-56832500D01*
X89707706Y-56832500D01*
X89841911Y-57157301D01*
X89841911Y-57157301D01*
G37*
X89841911Y-57157301D02*
X89852500Y-57167909D01*
X89852500Y-60960000D01*
X89925005Y-61324506D01*
X90131481Y-61633519D01*
X90440494Y-61839995D01*
X90805000Y-61912500D01*
X91986334Y-61912500D01*
X92417927Y-62344846D01*
X92906432Y-62547691D01*
X92420345Y-62748538D01*
X91960154Y-63207927D01*
X91710794Y-63808453D01*
X91710226Y-64458694D01*
X91958538Y-65059655D01*
X92392500Y-65494375D01*
X92392500Y-65665610D01*
X92345510Y-65665610D01*
X92110193Y-65709888D01*
X91894069Y-65848960D01*
X91749079Y-66061160D01*
X91698070Y-66313050D01*
X91698070Y-68312030D01*
X91742348Y-68547347D01*
X91881420Y-68763471D01*
X92093620Y-68908461D01*
X92345510Y-68959470D01*
X92392500Y-68959470D01*
X92392500Y-83820000D01*
X92465005Y-84184506D01*
X92671481Y-84493519D01*
X92980494Y-84699995D01*
X93345000Y-84772500D01*
X98671904Y-84772500D01*
X98742500Y-84843219D01*
X98742500Y-85725000D01*
X98815005Y-86089506D01*
X99021481Y-86398519D01*
X99330494Y-86604995D01*
X99695000Y-86677500D01*
X116585655Y-86677500D01*
X116522500Y-86995000D01*
X116522500Y-87876904D01*
X116291371Y-88107630D01*
X116078243Y-88620900D01*
X116077758Y-89176661D01*
X116289990Y-89690303D01*
X116682630Y-90083629D01*
X117195900Y-90296757D01*
X117751661Y-90297242D01*
X118265303Y-90085010D01*
X118658629Y-89692370D01*
X118871757Y-89179100D01*
X118872242Y-88623339D01*
X118660010Y-88109697D01*
X118498096Y-87947500D01*
X124706781Y-87947500D01*
X124546371Y-88107630D01*
X124333243Y-88620900D01*
X124332758Y-89176661D01*
X124544990Y-89690303D01*
X124937630Y-90083629D01*
X125450900Y-90296757D01*
X126006661Y-90297242D01*
X126520303Y-90085010D01*
X126913629Y-89692370D01*
X127126757Y-89179100D01*
X127127242Y-88623339D01*
X126915010Y-88109697D01*
X126753096Y-87947500D01*
X139946781Y-87947500D01*
X139786371Y-88107630D01*
X139573243Y-88620900D01*
X139572758Y-89176661D01*
X139784990Y-89690303D01*
X140017500Y-89923219D01*
X140017500Y-93027500D01*
X133985000Y-93027500D01*
X133620494Y-93100005D01*
X133311481Y-93306481D01*
X133105005Y-93615494D01*
X133032500Y-93980000D01*
X133032500Y-94235530D01*
X132985510Y-94235530D01*
X132750193Y-94279808D01*
X132534069Y-94418880D01*
X132389079Y-94631080D01*
X132338070Y-94882970D01*
X132338070Y-96881950D01*
X132382348Y-97117267D01*
X132521420Y-97333391D01*
X132733620Y-97478381D01*
X132985510Y-97529390D01*
X133032500Y-97529390D01*
X133032500Y-97701334D01*
X132600154Y-98132927D01*
X132350794Y-98733453D01*
X132350226Y-99383694D01*
X132598538Y-99984655D01*
X133057927Y-100444846D01*
X133546432Y-100647691D01*
X133060345Y-100848538D01*
X132600154Y-101307927D01*
X132350794Y-101908453D01*
X132350226Y-102558694D01*
X132598538Y-103159655D01*
X133057927Y-103619846D01*
X133658453Y-103869206D01*
X134308694Y-103869774D01*
X134909655Y-103621462D01*
X135344375Y-103187500D01*
X135572500Y-103187500D01*
X135572500Y-104312467D01*
X135481832Y-104274818D01*
X135030150Y-104274424D01*
X134612699Y-104446911D01*
X134293033Y-104766019D01*
X134119818Y-105183168D01*
X134119503Y-105544737D01*
X133760150Y-105544424D01*
X133342699Y-105716911D01*
X133023033Y-106036019D01*
X132849818Y-106453168D01*
X132849424Y-106904850D01*
X133021911Y-107322301D01*
X133032500Y-107332909D01*
X133032500Y-109131334D01*
X132600154Y-109562927D01*
X132397500Y-110050972D01*
X132397500Y-104140000D01*
X132324995Y-103775494D01*
X132118519Y-103466481D01*
X131809506Y-103260005D01*
X131445000Y-103187500D01*
X127724375Y-103187500D01*
X127749846Y-103162073D01*
X127999206Y-102561547D01*
X127999774Y-101911306D01*
X127751462Y-101310345D01*
X127292073Y-100850154D01*
X126803568Y-100647309D01*
X127289655Y-100446462D01*
X127749846Y-99987073D01*
X127999206Y-99386547D01*
X127999774Y-98736306D01*
X127751462Y-98135345D01*
X127292073Y-97675154D01*
X126814973Y-97477045D01*
X127238958Y-97301425D01*
X127337557Y-97034623D01*
X126365000Y-96062065D01*
X125392443Y-97034623D01*
X125491042Y-97301425D01*
X125938570Y-97467676D01*
X125440345Y-97673538D01*
X125005625Y-98107500D01*
X123825000Y-98107500D01*
X123460494Y-98180005D01*
X123151481Y-98386481D01*
X122945005Y-98695494D01*
X122872500Y-99060000D01*
X122872500Y-105391569D01*
X122863033Y-105401019D01*
X122689818Y-105818168D01*
X122689424Y-106269850D01*
X122727706Y-106362500D01*
X119842294Y-106362500D01*
X119708089Y-106037699D01*
X119697500Y-106027091D01*
X119697500Y-102235000D01*
X119624995Y-101870494D01*
X119418519Y-101561481D01*
X119109506Y-101355005D01*
X118745000Y-101282500D01*
X117563666Y-101282500D01*
X117132073Y-100850154D01*
X116643568Y-100647309D01*
X117129655Y-100446462D01*
X117589846Y-99987073D01*
X117839206Y-99386547D01*
X117839774Y-98736306D01*
X117591462Y-98135345D01*
X117157500Y-97700625D01*
X117157500Y-97529390D01*
X117204490Y-97529390D01*
X117439807Y-97485112D01*
X117655931Y-97346040D01*
X117800921Y-97133840D01*
X117851930Y-96881950D01*
X117851930Y-95618042D01*
X124719599Y-95618042D01*
X124743659Y-96267837D01*
X124946035Y-96756418D01*
X125212837Y-96855017D01*
X126185395Y-95882460D01*
X126544605Y-95882460D01*
X127517163Y-96855017D01*
X127783965Y-96756418D01*
X128010401Y-96146878D01*
X127986341Y-95497083D01*
X127783965Y-95008502D01*
X127517163Y-94909903D01*
X126544605Y-95882460D01*
X126185395Y-95882460D01*
X125212837Y-94909903D01*
X124946035Y-95008502D01*
X124719599Y-95618042D01*
X117851930Y-95618042D01*
X117851930Y-94882970D01*
X117823203Y-94730297D01*
X125392443Y-94730297D01*
X126365000Y-95702855D01*
X127337557Y-94730297D01*
X127238958Y-94463495D01*
X126629418Y-94237059D01*
X125979623Y-94261119D01*
X125491042Y-94463495D01*
X125392443Y-94730297D01*
X117823203Y-94730297D01*
X117807652Y-94647653D01*
X117668580Y-94431529D01*
X117456380Y-94286539D01*
X117204490Y-94235530D01*
X117157500Y-94235530D01*
X117157500Y-92392500D01*
X129786904Y-92392500D01*
X130017630Y-92623629D01*
X130530900Y-92836757D01*
X131086661Y-92837242D01*
X131600303Y-92625010D01*
X131993629Y-92232370D01*
X132206757Y-91719100D01*
X132206759Y-91716661D01*
X134492758Y-91716661D01*
X134704990Y-92230303D01*
X135097630Y-92623629D01*
X135610900Y-92836757D01*
X136166661Y-92837242D01*
X136680303Y-92625010D01*
X137073629Y-92232370D01*
X137286757Y-91719100D01*
X137287242Y-91163339D01*
X137075010Y-90649697D01*
X136682370Y-90256371D01*
X136169100Y-90043243D01*
X135613339Y-90042758D01*
X135099697Y-90254990D01*
X134706371Y-90647630D01*
X134493243Y-91160900D01*
X134492758Y-91716661D01*
X132206759Y-91716661D01*
X132207242Y-91163339D01*
X131995010Y-90649697D01*
X131602370Y-90256371D01*
X131089100Y-90043243D01*
X130533339Y-90042758D01*
X130019697Y-90254990D01*
X129786781Y-90487500D01*
X116205000Y-90487500D01*
X115840494Y-90560005D01*
X115531481Y-90766481D01*
X115325005Y-91075494D01*
X115252500Y-91440000D01*
X115252500Y-92392500D01*
X113418219Y-92392500D01*
X113578629Y-92232370D01*
X113791757Y-91719100D01*
X113792242Y-91163339D01*
X113580010Y-90649697D01*
X113347500Y-90416781D01*
X113347500Y-89535000D01*
X113274995Y-89170494D01*
X113068519Y-88861481D01*
X112759506Y-88655005D01*
X112395000Y-88582500D01*
X104140000Y-88582500D01*
X103775494Y-88655005D01*
X103632131Y-88750797D01*
X103632242Y-88623339D01*
X103420010Y-88109697D01*
X103027370Y-87716371D01*
X102514100Y-87503243D01*
X101958339Y-87502758D01*
X101444697Y-87714990D01*
X101051371Y-88107630D01*
X100838243Y-88620900D01*
X100837758Y-89176661D01*
X101049990Y-89690303D01*
X101282500Y-89923219D01*
X101282500Y-91122500D01*
X83185000Y-91122500D01*
X82820494Y-91195005D01*
X82511481Y-91401481D01*
X82305005Y-91710494D01*
X82232500Y-92075000D01*
X82232500Y-85090000D01*
X82159995Y-84725494D01*
X81953519Y-84416481D01*
X81644506Y-84210005D01*
X81280000Y-84137500D01*
X78151024Y-84137500D01*
X78079415Y-84030330D01*
X77764634Y-83820000D01*
X78079415Y-83609670D01*
X78151024Y-83502500D01*
X88265000Y-83502500D01*
X88629506Y-83429995D01*
X88938519Y-83223519D01*
X89144995Y-82914506D01*
X89217500Y-82550000D01*
X89217500Y-57785000D01*
X89200077Y-57697409D01*
X89200162Y-57599833D01*
X89162572Y-57508857D01*
X89144995Y-57420494D01*
X89095379Y-57346239D01*
X89058117Y-57256057D01*
X88988572Y-57186390D01*
X88938519Y-57111481D01*
X88864264Y-57061865D01*
X88795327Y-56992808D01*
X88704416Y-56955058D01*
X88629506Y-56905005D01*
X88541917Y-56887582D01*
X88451799Y-56850162D01*
X88353362Y-56850076D01*
X88265000Y-56832500D01*
X89707706Y-56832500D01*
X89841911Y-57157301D01*
G36*
X142326371Y-83027630D02*
X142113243Y-83540900D01*
X142112758Y-84096661D01*
X142324990Y-84610303D01*
X142557500Y-84843219D01*
X142557500Y-86360000D01*
X142630005Y-86724506D01*
X142836481Y-87033519D01*
X143145494Y-87239995D01*
X143510000Y-87312500D01*
X146364960Y-87312500D01*
X146364960Y-92333070D01*
X146317970Y-92333070D01*
X146082653Y-92377348D01*
X145866529Y-92516420D01*
X145721539Y-92728620D01*
X145670530Y-92980510D01*
X145670530Y-94979490D01*
X145714808Y-95214807D01*
X145853880Y-95430931D01*
X146066080Y-95575921D01*
X146317970Y-95626930D01*
X148316950Y-95626930D01*
X148552267Y-95582652D01*
X148768391Y-95443580D01*
X148913381Y-95231380D01*
X148964390Y-94979490D01*
X148964390Y-94932500D01*
X149136334Y-94932500D01*
X149567927Y-95364846D01*
X150168453Y-95614206D01*
X150818694Y-95614774D01*
X151419655Y-95366462D01*
X151879846Y-94907073D01*
X152082691Y-94418568D01*
X152283538Y-94904655D01*
X152742927Y-95364846D01*
X153343453Y-95614206D01*
X153993694Y-95614774D01*
X154594655Y-95366462D01*
X155054846Y-94907073D01*
X155304206Y-94306547D01*
X155304774Y-93656306D01*
X155056462Y-93055345D01*
X154622500Y-92620625D01*
X154622500Y-92392500D01*
X155747467Y-92392500D01*
X155709818Y-92483168D01*
X155709424Y-92934850D01*
X155881911Y-93352301D01*
X156201019Y-93671967D01*
X156618168Y-93845182D01*
X156979737Y-93845497D01*
X156979424Y-94204850D01*
X157151911Y-94622301D01*
X157471019Y-94941967D01*
X157888168Y-95115182D01*
X158339850Y-95115576D01*
X158757301Y-94943089D01*
X158767909Y-94932500D01*
X160566334Y-94932500D01*
X160997927Y-95364846D01*
X161598453Y-95614206D01*
X162248694Y-95614774D01*
X162849655Y-95366462D01*
X163309846Y-94907073D01*
X163512500Y-94419028D01*
X163512500Y-103822500D01*
X151447500Y-103822500D01*
X151447500Y-102297659D01*
X151694778Y-102132433D01*
X152052670Y-101596810D01*
X152178345Y-100965000D01*
X152052670Y-100333190D01*
X151694778Y-99797567D01*
X151159155Y-99439675D01*
X150527345Y-99314000D01*
X150462655Y-99314000D01*
X149830845Y-99439675D01*
X149530481Y-99640372D01*
X149509327Y-99589301D01*
X149330698Y-99410673D01*
X149097309Y-99314000D01*
X148240750Y-99314000D01*
X148082000Y-99472750D01*
X148082000Y-100838000D01*
X148102000Y-100838000D01*
X148102000Y-101092000D01*
X148082000Y-101092000D01*
X148082000Y-102457250D01*
X148240750Y-102616000D01*
X149097309Y-102616000D01*
X149330698Y-102519327D01*
X149509327Y-102340699D01*
X149530481Y-102289628D01*
X149542500Y-102297659D01*
X149542500Y-103822500D01*
X145097500Y-103822500D01*
X145097500Y-103593666D01*
X145529846Y-103162073D01*
X145779206Y-102561547D01*
X145779774Y-101911306D01*
X145531462Y-101310345D01*
X145471971Y-101250750D01*
X146304000Y-101250750D01*
X146304000Y-102107310D01*
X146400673Y-102340699D01*
X146579302Y-102519327D01*
X146812691Y-102616000D01*
X147669250Y-102616000D01*
X147828000Y-102457250D01*
X147828000Y-101092000D01*
X146462750Y-101092000D01*
X146304000Y-101250750D01*
X145471971Y-101250750D01*
X145072073Y-100850154D01*
X144583568Y-100647309D01*
X145069655Y-100446462D01*
X145529846Y-99987073D01*
X145598103Y-99822690D01*
X146304000Y-99822690D01*
X146304000Y-100679250D01*
X146462750Y-100838000D01*
X147828000Y-100838000D01*
X147828000Y-99472750D01*
X147669250Y-99314000D01*
X146812691Y-99314000D01*
X146579302Y-99410673D01*
X146400673Y-99589301D01*
X146304000Y-99822690D01*
X145598103Y-99822690D01*
X145779206Y-99386547D01*
X145779774Y-98736306D01*
X145531462Y-98135345D01*
X145072073Y-97675154D01*
X144594973Y-97477045D01*
X145018958Y-97301425D01*
X145117557Y-97034623D01*
X144145000Y-96062065D01*
X143172443Y-97034623D01*
X143271042Y-97301425D01*
X143718570Y-97467676D01*
X143220345Y-97673538D01*
X142785625Y-98107500D01*
X141605000Y-98107500D01*
X141240494Y-98180005D01*
X140931481Y-98386481D01*
X140725005Y-98695494D01*
X140652500Y-99060000D01*
X140652500Y-105391569D01*
X140643033Y-105401019D01*
X140469818Y-105818168D01*
X140469424Y-106269850D01*
X140507706Y-106362500D01*
X137622294Y-106362500D01*
X137488089Y-106037699D01*
X137477500Y-106027091D01*
X137477500Y-102235000D01*
X137404995Y-101870494D01*
X137198519Y-101561481D01*
X136889506Y-101355005D01*
X136525000Y-101282500D01*
X135343666Y-101282500D01*
X134912073Y-100850154D01*
X134423568Y-100647309D01*
X134909655Y-100446462D01*
X135369846Y-99987073D01*
X135619206Y-99386547D01*
X135619774Y-98736306D01*
X135371462Y-98135345D01*
X134937500Y-97700625D01*
X134937500Y-97529390D01*
X134984490Y-97529390D01*
X135219807Y-97485112D01*
X135435931Y-97346040D01*
X135580921Y-97133840D01*
X135631930Y-96881950D01*
X135631930Y-95618042D01*
X142499599Y-95618042D01*
X142523659Y-96267837D01*
X142726035Y-96756418D01*
X142992837Y-96855017D01*
X143965395Y-95882460D01*
X144324605Y-95882460D01*
X145297163Y-96855017D01*
X145563965Y-96756418D01*
X145790401Y-96146878D01*
X145766341Y-95497083D01*
X145563965Y-95008502D01*
X145297163Y-94909903D01*
X144324605Y-95882460D01*
X143965395Y-95882460D01*
X142992837Y-94909903D01*
X142726035Y-95008502D01*
X142499599Y-95618042D01*
X135631930Y-95618042D01*
X135631930Y-94932500D01*
X140970000Y-94932500D01*
X141334506Y-94859995D01*
X141528612Y-94730297D01*
X143172443Y-94730297D01*
X144145000Y-95702855D01*
X145117557Y-94730297D01*
X145018958Y-94463495D01*
X144409418Y-94237059D01*
X143759623Y-94261119D01*
X143271042Y-94463495D01*
X143172443Y-94730297D01*
X141528612Y-94730297D01*
X141643519Y-94653519D01*
X141849995Y-94344506D01*
X141922500Y-93980000D01*
X141922500Y-89923096D01*
X142153629Y-89692370D01*
X142366757Y-89179100D01*
X142367242Y-88623339D01*
X142155010Y-88109697D01*
X141922500Y-87876781D01*
X141922500Y-86995000D01*
X141849995Y-86630494D01*
X141643519Y-86321481D01*
X141334506Y-86115005D01*
X140970000Y-86042500D01*
X124079345Y-86042500D01*
X124142500Y-85725000D01*
X124142500Y-84843096D01*
X124373629Y-84612370D01*
X124586757Y-84099100D01*
X124587242Y-83543339D01*
X124375010Y-83029697D01*
X124213096Y-82867500D01*
X142486781Y-82867500D01*
X142326371Y-83027630D01*
X142326371Y-83027630D01*
G37*
X142326371Y-83027630D02*
X142113243Y-83540900D01*
X142112758Y-84096661D01*
X142324990Y-84610303D01*
X142557500Y-84843219D01*
X142557500Y-86360000D01*
X142630005Y-86724506D01*
X142836481Y-87033519D01*
X143145494Y-87239995D01*
X143510000Y-87312500D01*
X146364960Y-87312500D01*
X146364960Y-92333070D01*
X146317970Y-92333070D01*
X146082653Y-92377348D01*
X145866529Y-92516420D01*
X145721539Y-92728620D01*
X145670530Y-92980510D01*
X145670530Y-94979490D01*
X145714808Y-95214807D01*
X145853880Y-95430931D01*
X146066080Y-95575921D01*
X146317970Y-95626930D01*
X148316950Y-95626930D01*
X148552267Y-95582652D01*
X148768391Y-95443580D01*
X148913381Y-95231380D01*
X148964390Y-94979490D01*
X148964390Y-94932500D01*
X149136334Y-94932500D01*
X149567927Y-95364846D01*
X150168453Y-95614206D01*
X150818694Y-95614774D01*
X151419655Y-95366462D01*
X151879846Y-94907073D01*
X152082691Y-94418568D01*
X152283538Y-94904655D01*
X152742927Y-95364846D01*
X153343453Y-95614206D01*
X153993694Y-95614774D01*
X154594655Y-95366462D01*
X155054846Y-94907073D01*
X155304206Y-94306547D01*
X155304774Y-93656306D01*
X155056462Y-93055345D01*
X154622500Y-92620625D01*
X154622500Y-92392500D01*
X155747467Y-92392500D01*
X155709818Y-92483168D01*
X155709424Y-92934850D01*
X155881911Y-93352301D01*
X156201019Y-93671967D01*
X156618168Y-93845182D01*
X156979737Y-93845497D01*
X156979424Y-94204850D01*
X157151911Y-94622301D01*
X157471019Y-94941967D01*
X157888168Y-95115182D01*
X158339850Y-95115576D01*
X158757301Y-94943089D01*
X158767909Y-94932500D01*
X160566334Y-94932500D01*
X160997927Y-95364846D01*
X161598453Y-95614206D01*
X162248694Y-95614774D01*
X162849655Y-95366462D01*
X163309846Y-94907073D01*
X163512500Y-94419028D01*
X163512500Y-103822500D01*
X151447500Y-103822500D01*
X151447500Y-102297659D01*
X151694778Y-102132433D01*
X152052670Y-101596810D01*
X152178345Y-100965000D01*
X152052670Y-100333190D01*
X151694778Y-99797567D01*
X151159155Y-99439675D01*
X150527345Y-99314000D01*
X150462655Y-99314000D01*
X149830845Y-99439675D01*
X149530481Y-99640372D01*
X149509327Y-99589301D01*
X149330698Y-99410673D01*
X149097309Y-99314000D01*
X148240750Y-99314000D01*
X148082000Y-99472750D01*
X148082000Y-100838000D01*
X148102000Y-100838000D01*
X148102000Y-101092000D01*
X148082000Y-101092000D01*
X148082000Y-102457250D01*
X148240750Y-102616000D01*
X149097309Y-102616000D01*
X149330698Y-102519327D01*
X149509327Y-102340699D01*
X149530481Y-102289628D01*
X149542500Y-102297659D01*
X149542500Y-103822500D01*
X145097500Y-103822500D01*
X145097500Y-103593666D01*
X145529846Y-103162073D01*
X145779206Y-102561547D01*
X145779774Y-101911306D01*
X145531462Y-101310345D01*
X145471971Y-101250750D01*
X146304000Y-101250750D01*
X146304000Y-102107310D01*
X146400673Y-102340699D01*
X146579302Y-102519327D01*
X146812691Y-102616000D01*
X147669250Y-102616000D01*
X147828000Y-102457250D01*
X147828000Y-101092000D01*
X146462750Y-101092000D01*
X146304000Y-101250750D01*
X145471971Y-101250750D01*
X145072073Y-100850154D01*
X144583568Y-100647309D01*
X145069655Y-100446462D01*
X145529846Y-99987073D01*
X145598103Y-99822690D01*
X146304000Y-99822690D01*
X146304000Y-100679250D01*
X146462750Y-100838000D01*
X147828000Y-100838000D01*
X147828000Y-99472750D01*
X147669250Y-99314000D01*
X146812691Y-99314000D01*
X146579302Y-99410673D01*
X146400673Y-99589301D01*
X146304000Y-99822690D01*
X145598103Y-99822690D01*
X145779206Y-99386547D01*
X145779774Y-98736306D01*
X145531462Y-98135345D01*
X145072073Y-97675154D01*
X144594973Y-97477045D01*
X145018958Y-97301425D01*
X145117557Y-97034623D01*
X144145000Y-96062065D01*
X143172443Y-97034623D01*
X143271042Y-97301425D01*
X143718570Y-97467676D01*
X143220345Y-97673538D01*
X142785625Y-98107500D01*
X141605000Y-98107500D01*
X141240494Y-98180005D01*
X140931481Y-98386481D01*
X140725005Y-98695494D01*
X140652500Y-99060000D01*
X140652500Y-105391569D01*
X140643033Y-105401019D01*
X140469818Y-105818168D01*
X140469424Y-106269850D01*
X140507706Y-106362500D01*
X137622294Y-106362500D01*
X137488089Y-106037699D01*
X137477500Y-106027091D01*
X137477500Y-102235000D01*
X137404995Y-101870494D01*
X137198519Y-101561481D01*
X136889506Y-101355005D01*
X136525000Y-101282500D01*
X135343666Y-101282500D01*
X134912073Y-100850154D01*
X134423568Y-100647309D01*
X134909655Y-100446462D01*
X135369846Y-99987073D01*
X135619206Y-99386547D01*
X135619774Y-98736306D01*
X135371462Y-98135345D01*
X134937500Y-97700625D01*
X134937500Y-97529390D01*
X134984490Y-97529390D01*
X135219807Y-97485112D01*
X135435931Y-97346040D01*
X135580921Y-97133840D01*
X135631930Y-96881950D01*
X135631930Y-95618042D01*
X142499599Y-95618042D01*
X142523659Y-96267837D01*
X142726035Y-96756418D01*
X142992837Y-96855017D01*
X143965395Y-95882460D01*
X144324605Y-95882460D01*
X145297163Y-96855017D01*
X145563965Y-96756418D01*
X145790401Y-96146878D01*
X145766341Y-95497083D01*
X145563965Y-95008502D01*
X145297163Y-94909903D01*
X144324605Y-95882460D01*
X143965395Y-95882460D01*
X142992837Y-94909903D01*
X142726035Y-95008502D01*
X142499599Y-95618042D01*
X135631930Y-95618042D01*
X135631930Y-94932500D01*
X140970000Y-94932500D01*
X141334506Y-94859995D01*
X141528612Y-94730297D01*
X143172443Y-94730297D01*
X144145000Y-95702855D01*
X145117557Y-94730297D01*
X145018958Y-94463495D01*
X144409418Y-94237059D01*
X143759623Y-94261119D01*
X143271042Y-94463495D01*
X143172443Y-94730297D01*
X141528612Y-94730297D01*
X141643519Y-94653519D01*
X141849995Y-94344506D01*
X141922500Y-93980000D01*
X141922500Y-89923096D01*
X142153629Y-89692370D01*
X142366757Y-89179100D01*
X142367242Y-88623339D01*
X142155010Y-88109697D01*
X141922500Y-87876781D01*
X141922500Y-86995000D01*
X141849995Y-86630494D01*
X141643519Y-86321481D01*
X141334506Y-86115005D01*
X140970000Y-86042500D01*
X124079345Y-86042500D01*
X124142500Y-85725000D01*
X124142500Y-84843096D01*
X124373629Y-84612370D01*
X124586757Y-84099100D01*
X124587242Y-83543339D01*
X124375010Y-83029697D01*
X124213096Y-82867500D01*
X142486781Y-82867500D01*
X142326371Y-83027630D01*
G36*
X161051042Y-82401035D02*
X160952443Y-82667837D01*
X161925000Y-83640395D01*
X162897557Y-82667837D01*
X162798958Y-82401035D01*
X162345281Y-82232500D01*
X163512500Y-82232500D01*
X163512500Y-83352923D01*
X163343965Y-82946042D01*
X163077163Y-82847443D01*
X162104605Y-83820000D01*
X163077163Y-84792557D01*
X163343965Y-84693958D01*
X163512500Y-84240281D01*
X163512500Y-93541894D01*
X163311462Y-93055345D01*
X162852073Y-92595154D01*
X162251547Y-92345794D01*
X161601306Y-92345226D01*
X161000345Y-92593538D01*
X160565625Y-93027500D01*
X158768431Y-93027500D01*
X158758981Y-93018033D01*
X158341832Y-92844818D01*
X157980263Y-92844503D01*
X157980497Y-92575263D01*
X158339850Y-92575576D01*
X158757301Y-92403089D01*
X158772365Y-92388051D01*
X159114506Y-92319995D01*
X159423519Y-92113519D01*
X159629995Y-91804506D01*
X159702500Y-91440000D01*
X159702500Y-85743431D01*
X159711967Y-85733981D01*
X159885182Y-85316832D01*
X159885482Y-84972163D01*
X160952443Y-84972163D01*
X161051042Y-85238965D01*
X161660582Y-85465401D01*
X162310377Y-85441341D01*
X162798958Y-85238965D01*
X162897557Y-84972163D01*
X161925000Y-83999605D01*
X160952443Y-84972163D01*
X159885482Y-84972163D01*
X159885576Y-84865150D01*
X159713089Y-84447699D01*
X159393981Y-84128033D01*
X158976832Y-83954818D01*
X158615263Y-83954503D01*
X158615576Y-83595150D01*
X158599227Y-83555582D01*
X160279599Y-83555582D01*
X160303659Y-84205377D01*
X160506035Y-84693958D01*
X160772837Y-84792557D01*
X161745395Y-83820000D01*
X160772837Y-82847443D01*
X160506035Y-82946042D01*
X160279599Y-83555582D01*
X158599227Y-83555582D01*
X158443089Y-83177699D01*
X158123981Y-82858033D01*
X157706832Y-82684818D01*
X157255150Y-82684424D01*
X156837699Y-82856911D01*
X156827091Y-82867500D01*
X156527500Y-82867500D01*
X156527500Y-82232500D01*
X161457923Y-82232500D01*
X161051042Y-82401035D01*
X161051042Y-82401035D01*
G37*
X161051042Y-82401035D02*
X160952443Y-82667837D01*
X161925000Y-83640395D01*
X162897557Y-82667837D01*
X162798958Y-82401035D01*
X162345281Y-82232500D01*
X163512500Y-82232500D01*
X163512500Y-83352923D01*
X163343965Y-82946042D01*
X163077163Y-82847443D01*
X162104605Y-83820000D01*
X163077163Y-84792557D01*
X163343965Y-84693958D01*
X163512500Y-84240281D01*
X163512500Y-93541894D01*
X163311462Y-93055345D01*
X162852073Y-92595154D01*
X162251547Y-92345794D01*
X161601306Y-92345226D01*
X161000345Y-92593538D01*
X160565625Y-93027500D01*
X158768431Y-93027500D01*
X158758981Y-93018033D01*
X158341832Y-92844818D01*
X157980263Y-92844503D01*
X157980497Y-92575263D01*
X158339850Y-92575576D01*
X158757301Y-92403089D01*
X158772365Y-92388051D01*
X159114506Y-92319995D01*
X159423519Y-92113519D01*
X159629995Y-91804506D01*
X159702500Y-91440000D01*
X159702500Y-85743431D01*
X159711967Y-85733981D01*
X159885182Y-85316832D01*
X159885482Y-84972163D01*
X160952443Y-84972163D01*
X161051042Y-85238965D01*
X161660582Y-85465401D01*
X162310377Y-85441341D01*
X162798958Y-85238965D01*
X162897557Y-84972163D01*
X161925000Y-83999605D01*
X160952443Y-84972163D01*
X159885482Y-84972163D01*
X159885576Y-84865150D01*
X159713089Y-84447699D01*
X159393981Y-84128033D01*
X158976832Y-83954818D01*
X158615263Y-83954503D01*
X158615576Y-83595150D01*
X158599227Y-83555582D01*
X160279599Y-83555582D01*
X160303659Y-84205377D01*
X160506035Y-84693958D01*
X160772837Y-84792557D01*
X161745395Y-83820000D01*
X160772837Y-82847443D01*
X160506035Y-82946042D01*
X160279599Y-83555582D01*
X158599227Y-83555582D01*
X158443089Y-83177699D01*
X158123981Y-82858033D01*
X157706832Y-82684818D01*
X157255150Y-82684424D01*
X156837699Y-82856911D01*
X156827091Y-82867500D01*
X156527500Y-82867500D01*
X156527500Y-82232500D01*
X161457923Y-82232500D01*
X161051042Y-82401035D01*
G36*
X155709818Y-77243168D02*
X155709424Y-77694850D01*
X155881911Y-78112301D01*
X156201019Y-78431967D01*
X156618168Y-78605182D01*
X156979737Y-78605497D01*
X156979424Y-78964850D01*
X157151911Y-79382301D01*
X157471019Y-79701967D01*
X157888168Y-79875182D01*
X158339850Y-79875576D01*
X158757301Y-79703089D01*
X158767909Y-79692500D01*
X160566334Y-79692500D01*
X160997927Y-80124846D01*
X161485972Y-80327500D01*
X155575000Y-80327500D01*
X155210494Y-80400005D01*
X154901481Y-80606481D01*
X154695005Y-80915494D01*
X154622500Y-81280000D01*
X154622500Y-82460625D01*
X154597073Y-82435154D01*
X153996547Y-82185794D01*
X153346306Y-82185226D01*
X152745345Y-82433538D01*
X152285154Y-82892927D01*
X152082309Y-83381432D01*
X151881462Y-82895345D01*
X151422073Y-82435154D01*
X150821547Y-82185794D01*
X150171306Y-82185226D01*
X149570345Y-82433538D01*
X149110154Y-82892927D01*
X148912045Y-83370027D01*
X148736425Y-82946042D01*
X148469623Y-82847443D01*
X147497065Y-83820000D01*
X148469623Y-84792557D01*
X148736425Y-84693958D01*
X148902676Y-84246430D01*
X149108538Y-84744655D01*
X149542500Y-85179375D01*
X149542500Y-86360000D01*
X149615005Y-86724506D01*
X149821481Y-87033519D01*
X150130494Y-87239995D01*
X150495000Y-87312500D01*
X156826569Y-87312500D01*
X156836019Y-87321967D01*
X157253168Y-87495182D01*
X157704850Y-87495576D01*
X157797500Y-87457294D01*
X157797500Y-90342706D01*
X157472699Y-90476911D01*
X157462091Y-90487500D01*
X153670000Y-90487500D01*
X153305494Y-90560005D01*
X152996481Y-90766481D01*
X152790005Y-91075494D01*
X152717500Y-91440000D01*
X152717500Y-92621334D01*
X152285154Y-93052927D01*
X152082309Y-93541432D01*
X151881462Y-93055345D01*
X151422073Y-92595154D01*
X150821547Y-92345794D01*
X150171306Y-92345226D01*
X149570345Y-92593538D01*
X149135625Y-93027500D01*
X148964390Y-93027500D01*
X148964390Y-92980510D01*
X148920112Y-92745193D01*
X148781040Y-92529069D01*
X148568840Y-92384079D01*
X148316950Y-92333070D01*
X148269960Y-92333070D01*
X148269960Y-86372769D01*
X148272500Y-86360000D01*
X148199995Y-85995494D01*
X147993519Y-85686481D01*
X147684506Y-85480005D01*
X147523511Y-85447981D01*
X147702837Y-85441341D01*
X148191418Y-85238965D01*
X148290017Y-84972163D01*
X147317460Y-83999605D01*
X146344903Y-84972163D01*
X146443502Y-85238965D01*
X146897179Y-85407500D01*
X144462500Y-85407500D01*
X144462500Y-84843096D01*
X144693629Y-84612370D01*
X144906757Y-84099100D01*
X144907231Y-83555582D01*
X145672059Y-83555582D01*
X145696119Y-84205377D01*
X145898495Y-84693958D01*
X146165297Y-84792557D01*
X147137855Y-83820000D01*
X146165297Y-82847443D01*
X145898495Y-82946042D01*
X145672059Y-83555582D01*
X144907231Y-83555582D01*
X144907242Y-83543339D01*
X144695010Y-83029697D01*
X144462500Y-82796781D01*
X144462500Y-82667837D01*
X146344903Y-82667837D01*
X147317460Y-83640395D01*
X148290017Y-82667837D01*
X148191418Y-82401035D01*
X147581878Y-82174599D01*
X146932083Y-82198659D01*
X146443502Y-82401035D01*
X146344903Y-82667837D01*
X144462500Y-82667837D01*
X144462500Y-81915000D01*
X144389995Y-81550494D01*
X144209257Y-81280000D01*
X144389995Y-81009506D01*
X144462500Y-80645000D01*
X144462500Y-79763096D01*
X144533219Y-79692500D01*
X146305530Y-79692500D01*
X146305530Y-79739490D01*
X146349808Y-79974807D01*
X146488880Y-80190931D01*
X146701080Y-80335921D01*
X146952970Y-80386930D01*
X148951950Y-80386930D01*
X149187267Y-80342652D01*
X149403391Y-80203580D01*
X149502185Y-80058990D01*
X149567927Y-80124846D01*
X150168453Y-80374206D01*
X150818694Y-80374774D01*
X151419655Y-80126462D01*
X151879846Y-79667073D01*
X152082691Y-79178568D01*
X152283538Y-79664655D01*
X152742927Y-80124846D01*
X153343453Y-80374206D01*
X153993694Y-80374774D01*
X154594655Y-80126462D01*
X155054846Y-79667073D01*
X155304206Y-79066547D01*
X155304774Y-78416306D01*
X155056462Y-77815345D01*
X154622500Y-77380625D01*
X154622500Y-77152500D01*
X155747467Y-77152500D01*
X155709818Y-77243168D01*
X155709818Y-77243168D01*
G37*
X155709818Y-77243168D02*
X155709424Y-77694850D01*
X155881911Y-78112301D01*
X156201019Y-78431967D01*
X156618168Y-78605182D01*
X156979737Y-78605497D01*
X156979424Y-78964850D01*
X157151911Y-79382301D01*
X157471019Y-79701967D01*
X157888168Y-79875182D01*
X158339850Y-79875576D01*
X158757301Y-79703089D01*
X158767909Y-79692500D01*
X160566334Y-79692500D01*
X160997927Y-80124846D01*
X161485972Y-80327500D01*
X155575000Y-80327500D01*
X155210494Y-80400005D01*
X154901481Y-80606481D01*
X154695005Y-80915494D01*
X154622500Y-81280000D01*
X154622500Y-82460625D01*
X154597073Y-82435154D01*
X153996547Y-82185794D01*
X153346306Y-82185226D01*
X152745345Y-82433538D01*
X152285154Y-82892927D01*
X152082309Y-83381432D01*
X151881462Y-82895345D01*
X151422073Y-82435154D01*
X150821547Y-82185794D01*
X150171306Y-82185226D01*
X149570345Y-82433538D01*
X149110154Y-82892927D01*
X148912045Y-83370027D01*
X148736425Y-82946042D01*
X148469623Y-82847443D01*
X147497065Y-83820000D01*
X148469623Y-84792557D01*
X148736425Y-84693958D01*
X148902676Y-84246430D01*
X149108538Y-84744655D01*
X149542500Y-85179375D01*
X149542500Y-86360000D01*
X149615005Y-86724506D01*
X149821481Y-87033519D01*
X150130494Y-87239995D01*
X150495000Y-87312500D01*
X156826569Y-87312500D01*
X156836019Y-87321967D01*
X157253168Y-87495182D01*
X157704850Y-87495576D01*
X157797500Y-87457294D01*
X157797500Y-90342706D01*
X157472699Y-90476911D01*
X157462091Y-90487500D01*
X153670000Y-90487500D01*
X153305494Y-90560005D01*
X152996481Y-90766481D01*
X152790005Y-91075494D01*
X152717500Y-91440000D01*
X152717500Y-92621334D01*
X152285154Y-93052927D01*
X152082309Y-93541432D01*
X151881462Y-93055345D01*
X151422073Y-92595154D01*
X150821547Y-92345794D01*
X150171306Y-92345226D01*
X149570345Y-92593538D01*
X149135625Y-93027500D01*
X148964390Y-93027500D01*
X148964390Y-92980510D01*
X148920112Y-92745193D01*
X148781040Y-92529069D01*
X148568840Y-92384079D01*
X148316950Y-92333070D01*
X148269960Y-92333070D01*
X148269960Y-86372769D01*
X148272500Y-86360000D01*
X148199995Y-85995494D01*
X147993519Y-85686481D01*
X147684506Y-85480005D01*
X147523511Y-85447981D01*
X147702837Y-85441341D01*
X148191418Y-85238965D01*
X148290017Y-84972163D01*
X147317460Y-83999605D01*
X146344903Y-84972163D01*
X146443502Y-85238965D01*
X146897179Y-85407500D01*
X144462500Y-85407500D01*
X144462500Y-84843096D01*
X144693629Y-84612370D01*
X144906757Y-84099100D01*
X144907231Y-83555582D01*
X145672059Y-83555582D01*
X145696119Y-84205377D01*
X145898495Y-84693958D01*
X146165297Y-84792557D01*
X147137855Y-83820000D01*
X146165297Y-82847443D01*
X145898495Y-82946042D01*
X145672059Y-83555582D01*
X144907231Y-83555582D01*
X144907242Y-83543339D01*
X144695010Y-83029697D01*
X144462500Y-82796781D01*
X144462500Y-82667837D01*
X146344903Y-82667837D01*
X147317460Y-83640395D01*
X148290017Y-82667837D01*
X148191418Y-82401035D01*
X147581878Y-82174599D01*
X146932083Y-82198659D01*
X146443502Y-82401035D01*
X146344903Y-82667837D01*
X144462500Y-82667837D01*
X144462500Y-81915000D01*
X144389995Y-81550494D01*
X144209257Y-81280000D01*
X144389995Y-81009506D01*
X144462500Y-80645000D01*
X144462500Y-79763096D01*
X144533219Y-79692500D01*
X146305530Y-79692500D01*
X146305530Y-79739490D01*
X146349808Y-79974807D01*
X146488880Y-80190931D01*
X146701080Y-80335921D01*
X146952970Y-80386930D01*
X148951950Y-80386930D01*
X149187267Y-80342652D01*
X149403391Y-80203580D01*
X149502185Y-80058990D01*
X149567927Y-80124846D01*
X150168453Y-80374206D01*
X150818694Y-80374774D01*
X151419655Y-80126462D01*
X151879846Y-79667073D01*
X152082691Y-79178568D01*
X152283538Y-79664655D01*
X152742927Y-80124846D01*
X153343453Y-80374206D01*
X153993694Y-80374774D01*
X154594655Y-80126462D01*
X155054846Y-79667073D01*
X155304206Y-79066547D01*
X155304774Y-78416306D01*
X155056462Y-77815345D01*
X154622500Y-77380625D01*
X154622500Y-77152500D01*
X155747467Y-77152500D01*
X155709818Y-77243168D01*
G36*
X110760794Y-51983453D02*
X110760226Y-52633694D01*
X111008538Y-53234655D01*
X111442500Y-53669375D01*
X111442500Y-59055000D01*
X111515005Y-59419506D01*
X111721481Y-59728519D01*
X112030494Y-59934995D01*
X112395000Y-60007500D01*
X114845625Y-60007500D01*
X114820154Y-60032927D01*
X114570794Y-60633453D01*
X114570226Y-61283694D01*
X114818538Y-61884655D01*
X115277927Y-62344846D01*
X115766432Y-62547691D01*
X115280345Y-62748538D01*
X114820154Y-63207927D01*
X114570794Y-63808453D01*
X114570226Y-64458694D01*
X114818538Y-65059655D01*
X115277927Y-65519846D01*
X115755027Y-65717955D01*
X115331042Y-65893575D01*
X115232443Y-66160377D01*
X116205000Y-67132935D01*
X117177557Y-66160377D01*
X117078958Y-65893575D01*
X116631430Y-65727324D01*
X117129655Y-65521462D01*
X117564375Y-65087500D01*
X118745000Y-65087500D01*
X119109506Y-65014995D01*
X119418519Y-64808519D01*
X119624995Y-64499506D01*
X119697500Y-64135000D01*
X119697500Y-57803431D01*
X119706967Y-57793981D01*
X119880182Y-57376832D01*
X119880576Y-56925150D01*
X119842294Y-56832500D01*
X122727706Y-56832500D01*
X122861911Y-57157301D01*
X122872500Y-57167909D01*
X122872500Y-60960000D01*
X122945005Y-61324506D01*
X123151481Y-61633519D01*
X123460494Y-61839995D01*
X123825000Y-61912500D01*
X125006334Y-61912500D01*
X125437927Y-62344846D01*
X125926432Y-62547691D01*
X125440345Y-62748538D01*
X124980154Y-63207927D01*
X124730794Y-63808453D01*
X124730226Y-64458694D01*
X124978538Y-65059655D01*
X125412500Y-65494375D01*
X125412500Y-65665610D01*
X125365510Y-65665610D01*
X125130193Y-65709888D01*
X124914069Y-65848960D01*
X124769079Y-66061160D01*
X124718070Y-66313050D01*
X124718070Y-68312030D01*
X124762348Y-68547347D01*
X124901420Y-68763471D01*
X125113620Y-68908461D01*
X125365510Y-68959470D01*
X125412500Y-68959470D01*
X125412500Y-72279632D01*
X124939697Y-72474990D01*
X124546371Y-72867630D01*
X124333243Y-73380900D01*
X124332758Y-73936661D01*
X124544990Y-74450303D01*
X124706904Y-74612500D01*
X118498219Y-74612500D01*
X118658629Y-74452370D01*
X118871757Y-73939100D01*
X118872242Y-73383339D01*
X118660010Y-72869697D01*
X118267370Y-72476371D01*
X117754100Y-72263243D01*
X117198339Y-72262758D01*
X116684697Y-72474990D01*
X116291371Y-72867630D01*
X116078243Y-73380900D01*
X116077758Y-73936661D01*
X116289990Y-74450303D01*
X116522500Y-74683219D01*
X116522500Y-75565000D01*
X116595005Y-75929506D01*
X116801481Y-76238519D01*
X117110494Y-76444995D01*
X117475000Y-76517500D01*
X140970000Y-76517500D01*
X141334506Y-76444995D01*
X141643519Y-76238519D01*
X141849995Y-75929506D01*
X141922500Y-75565000D01*
X141922500Y-74683096D01*
X142153629Y-74452370D01*
X142366757Y-73939100D01*
X142367242Y-73383339D01*
X142155010Y-72869697D01*
X141922500Y-72636781D01*
X141922500Y-69732163D01*
X146979903Y-69732163D01*
X147078502Y-69998965D01*
X147688042Y-70225401D01*
X148337837Y-70201341D01*
X148826418Y-69998965D01*
X148925017Y-69732163D01*
X147952460Y-68759605D01*
X146979903Y-69732163D01*
X141922500Y-69732163D01*
X141922500Y-68265040D01*
X142498070Y-68265040D01*
X142498070Y-68312030D01*
X142542348Y-68547347D01*
X142681420Y-68763471D01*
X142893620Y-68908461D01*
X143145510Y-68959470D01*
X145144490Y-68959470D01*
X145379807Y-68915192D01*
X145595931Y-68776120D01*
X145740921Y-68563920D01*
X145791210Y-68315582D01*
X146307059Y-68315582D01*
X146331119Y-68965377D01*
X146533495Y-69453958D01*
X146800297Y-69552557D01*
X147772855Y-68580000D01*
X146800297Y-67607443D01*
X146533495Y-67706042D01*
X146307059Y-68315582D01*
X145791210Y-68315582D01*
X145791930Y-68312030D01*
X145791930Y-67427837D01*
X146979903Y-67427837D01*
X147952460Y-68400395D01*
X148925017Y-67427837D01*
X148826418Y-67161035D01*
X148216878Y-66934599D01*
X147567083Y-66958659D01*
X147078502Y-67161035D01*
X146979903Y-67427837D01*
X145791930Y-67427837D01*
X145791930Y-66313050D01*
X145747652Y-66077733D01*
X145608580Y-65861609D01*
X145396380Y-65716619D01*
X145144490Y-65665610D01*
X145097500Y-65665610D01*
X145097500Y-65493666D01*
X145529846Y-65062073D01*
X145779206Y-64461547D01*
X145779774Y-63811306D01*
X145531462Y-63210345D01*
X145072073Y-62750154D01*
X144583568Y-62547309D01*
X145069655Y-62346462D01*
X145529846Y-61887073D01*
X145779206Y-61286547D01*
X145779774Y-60636306D01*
X145531462Y-60035345D01*
X145072073Y-59575154D01*
X144471547Y-59325794D01*
X143821306Y-59325226D01*
X143220345Y-59573538D01*
X142785625Y-60007500D01*
X142557500Y-60007500D01*
X142557500Y-58882533D01*
X142648168Y-58920182D01*
X143099850Y-58920576D01*
X143517301Y-58748089D01*
X143527909Y-58737500D01*
X147002500Y-58737500D01*
X147002500Y-60897341D01*
X146755222Y-61062567D01*
X146397330Y-61598190D01*
X146271655Y-62230000D01*
X146397330Y-62861810D01*
X146755222Y-63397433D01*
X147290845Y-63755325D01*
X147922655Y-63881000D01*
X147987345Y-63881000D01*
X148619155Y-63755325D01*
X148921962Y-63552996D01*
X149014910Y-63697441D01*
X149227110Y-63842431D01*
X149479000Y-63893440D01*
X151511000Y-63893440D01*
X151746317Y-63849162D01*
X151962441Y-63710090D01*
X152107431Y-63497890D01*
X152158440Y-63246000D01*
X152158440Y-61214000D01*
X152114162Y-60978683D01*
X151975090Y-60762559D01*
X151762890Y-60617569D01*
X151511000Y-60566560D01*
X149479000Y-60566560D01*
X149243683Y-60610838D01*
X149027559Y-60749910D01*
X148920767Y-60906206D01*
X148907500Y-60897341D01*
X148907500Y-57785000D01*
X148886251Y-57678172D01*
X156082538Y-57678172D01*
X156487709Y-58658761D01*
X157237293Y-59409655D01*
X158217173Y-59816536D01*
X159278172Y-59817462D01*
X160258761Y-59412291D01*
X161009655Y-58662707D01*
X161416536Y-57682827D01*
X161417462Y-56621828D01*
X161012291Y-55641239D01*
X160262707Y-54890345D01*
X159282827Y-54483464D01*
X158221828Y-54482538D01*
X157241239Y-54887709D01*
X156490345Y-55637293D01*
X156083464Y-56617173D01*
X156082538Y-57678172D01*
X148886251Y-57678172D01*
X148834995Y-57420494D01*
X148628519Y-57111481D01*
X148319506Y-56905005D01*
X147955000Y-56832500D01*
X145242533Y-56832500D01*
X145280182Y-56741832D01*
X145280576Y-56290150D01*
X145108089Y-55872699D01*
X145097500Y-55862091D01*
X145097500Y-54063666D01*
X145529846Y-53632073D01*
X145779206Y-53031547D01*
X145779774Y-52381306D01*
X145531462Y-51780345D01*
X145503666Y-51752500D01*
X163512500Y-51752500D01*
X163512500Y-65087500D01*
X155575000Y-65087500D01*
X155210494Y-65160005D01*
X154901481Y-65366481D01*
X154695005Y-65675494D01*
X154622500Y-66040000D01*
X154622500Y-67220625D01*
X154597073Y-67195154D01*
X153996547Y-66945794D01*
X153346306Y-66945226D01*
X152745345Y-67193538D01*
X152285154Y-67652927D01*
X152082309Y-68141432D01*
X151881462Y-67655345D01*
X151422073Y-67195154D01*
X150821547Y-66945794D01*
X150171306Y-66945226D01*
X149570345Y-67193538D01*
X149141913Y-67621224D01*
X149104623Y-67607443D01*
X148132065Y-68580000D01*
X149104623Y-69552557D01*
X149142415Y-69538591D01*
X149542500Y-69939375D01*
X149542500Y-71120000D01*
X149615005Y-71484506D01*
X149821481Y-71793519D01*
X150130494Y-71999995D01*
X150495000Y-72072500D01*
X156826569Y-72072500D01*
X156836019Y-72081967D01*
X157253168Y-72255182D01*
X157704850Y-72255576D01*
X157797500Y-72217294D01*
X157797500Y-75102706D01*
X157472699Y-75236911D01*
X157462091Y-75247500D01*
X153670000Y-75247500D01*
X153305494Y-75320005D01*
X152996481Y-75526481D01*
X152790005Y-75835494D01*
X152717500Y-76200000D01*
X152717500Y-77381334D01*
X152285154Y-77812927D01*
X152082309Y-78301432D01*
X151881462Y-77815345D01*
X151422073Y-77355154D01*
X150821547Y-77105794D01*
X150171306Y-77105226D01*
X149570345Y-77353538D01*
X149501651Y-77422112D01*
X149416040Y-77289069D01*
X149203840Y-77144079D01*
X148951950Y-77093070D01*
X146952970Y-77093070D01*
X146717653Y-77137348D01*
X146501529Y-77276420D01*
X146356539Y-77488620D01*
X146305530Y-77740510D01*
X146305530Y-77787500D01*
X144533096Y-77787500D01*
X144302370Y-77556371D01*
X143789100Y-77343243D01*
X143233339Y-77342758D01*
X142719697Y-77554990D01*
X142326371Y-77947630D01*
X142113243Y-78460900D01*
X142112758Y-79016661D01*
X142324990Y-79530303D01*
X142486904Y-79692500D01*
X124248344Y-79692500D01*
X124285226Y-79655618D01*
X124170215Y-79540607D01*
X124412397Y-79471143D01*
X124599144Y-78947698D01*
X124571362Y-78392632D01*
X124412397Y-78008857D01*
X124170213Y-77939392D01*
X123369605Y-78740000D01*
X123383748Y-78754143D01*
X123204143Y-78933748D01*
X123190000Y-78919605D01*
X123175858Y-78933748D01*
X122996253Y-78754143D01*
X123010395Y-78740000D01*
X122209787Y-77939392D01*
X121967603Y-78008857D01*
X121780856Y-78532302D01*
X121808638Y-79087368D01*
X121967603Y-79471143D01*
X122209785Y-79540607D01*
X122094774Y-79655618D01*
X122131656Y-79692500D01*
X121038219Y-79692500D01*
X121198629Y-79532370D01*
X121411757Y-79019100D01*
X121412242Y-78463339D01*
X121200010Y-77949697D01*
X121010432Y-77759787D01*
X122389392Y-77759787D01*
X123190000Y-78560395D01*
X123990608Y-77759787D01*
X123921143Y-77517603D01*
X123397698Y-77330856D01*
X122842632Y-77358638D01*
X122458857Y-77517603D01*
X122389392Y-77759787D01*
X121010432Y-77759787D01*
X120807370Y-77556371D01*
X120294100Y-77343243D01*
X119738339Y-77342758D01*
X119224697Y-77554990D01*
X118831371Y-77947630D01*
X118618243Y-78460900D01*
X118617758Y-79016661D01*
X118829990Y-79530303D01*
X119062500Y-79763219D01*
X119062500Y-80645000D01*
X119135005Y-81009506D01*
X119315743Y-81280000D01*
X119135005Y-81550494D01*
X119062500Y-81915000D01*
X119062500Y-82796904D01*
X118831371Y-83027630D01*
X118618243Y-83540900D01*
X118617758Y-84096661D01*
X118829990Y-84610303D01*
X118991904Y-84772500D01*
X100718219Y-84772500D01*
X100878629Y-84612370D01*
X101091757Y-84099100D01*
X101092242Y-83543339D01*
X100880010Y-83029697D01*
X100487370Y-82636371D01*
X99974100Y-82423243D01*
X99418339Y-82422758D01*
X98904697Y-82634990D01*
X98671781Y-82867500D01*
X94297500Y-82867500D01*
X94297500Y-79720213D01*
X98894392Y-79720213D01*
X98963857Y-79962397D01*
X99487302Y-80149144D01*
X100042368Y-80121362D01*
X100426143Y-79962397D01*
X100495608Y-79720213D01*
X99695000Y-78919605D01*
X98894392Y-79720213D01*
X94297500Y-79720213D01*
X94297500Y-78532302D01*
X98285856Y-78532302D01*
X98313638Y-79087368D01*
X98472603Y-79471143D01*
X98714787Y-79540608D01*
X99515395Y-78740000D01*
X99874605Y-78740000D01*
X100675213Y-79540608D01*
X100917397Y-79471143D01*
X101104144Y-78947698D01*
X101076362Y-78392632D01*
X100917397Y-78008857D01*
X100675213Y-77939392D01*
X99874605Y-78740000D01*
X99515395Y-78740000D01*
X98714787Y-77939392D01*
X98472603Y-78008857D01*
X98285856Y-78532302D01*
X94297500Y-78532302D01*
X94297500Y-77759787D01*
X98894392Y-77759787D01*
X99695000Y-78560395D01*
X100495608Y-77759787D01*
X100426143Y-77517603D01*
X99902698Y-77330856D01*
X99347632Y-77358638D01*
X98963857Y-77517603D01*
X98894392Y-77759787D01*
X94297500Y-77759787D01*
X94297500Y-68959470D01*
X94344490Y-68959470D01*
X94579807Y-68915192D01*
X94795931Y-68776120D01*
X94940921Y-68563920D01*
X94961012Y-68464703D01*
X97452443Y-68464703D01*
X97551042Y-68731505D01*
X98160582Y-68957941D01*
X98810377Y-68933881D01*
X99298958Y-68731505D01*
X99397557Y-68464703D01*
X98425000Y-67492145D01*
X97452443Y-68464703D01*
X94961012Y-68464703D01*
X94991930Y-68312030D01*
X94991930Y-67048122D01*
X96779599Y-67048122D01*
X96803659Y-67697917D01*
X97006035Y-68186498D01*
X97272837Y-68285097D01*
X98245395Y-67312540D01*
X98604605Y-67312540D01*
X99577163Y-68285097D01*
X99843965Y-68186498D01*
X100070401Y-67576958D01*
X100046341Y-66927163D01*
X99843965Y-66438582D01*
X99577163Y-66339983D01*
X98604605Y-67312540D01*
X98245395Y-67312540D01*
X97272837Y-66339983D01*
X97006035Y-66438582D01*
X96779599Y-67048122D01*
X94991930Y-67048122D01*
X94991930Y-66313050D01*
X94947652Y-66077733D01*
X94808580Y-65861609D01*
X94596380Y-65716619D01*
X94344490Y-65665610D01*
X94297500Y-65665610D01*
X94297500Y-65493666D01*
X94729846Y-65062073D01*
X94979206Y-64461547D01*
X94979774Y-63811306D01*
X94731462Y-63210345D01*
X94272073Y-62750154D01*
X93783568Y-62547309D01*
X94269655Y-62346462D01*
X94729846Y-61887073D01*
X94979206Y-61286547D01*
X94979774Y-60636306D01*
X94731462Y-60035345D01*
X94272073Y-59575154D01*
X93671547Y-59325794D01*
X93021306Y-59325226D01*
X92420345Y-59573538D01*
X91985625Y-60007500D01*
X91757500Y-60007500D01*
X91757500Y-58882533D01*
X91848168Y-58920182D01*
X92299850Y-58920576D01*
X92717301Y-58748089D01*
X93036967Y-58428981D01*
X93210182Y-58011832D01*
X93210497Y-57650263D01*
X93569850Y-57650576D01*
X93987301Y-57478089D01*
X94306967Y-57158981D01*
X94480182Y-56741832D01*
X94480576Y-56290150D01*
X94308089Y-55872699D01*
X94297500Y-55862091D01*
X94297500Y-54063666D01*
X94729846Y-53632073D01*
X94932500Y-53144028D01*
X94932500Y-59055000D01*
X95005005Y-59419506D01*
X95211481Y-59728519D01*
X95520494Y-59934995D01*
X95885000Y-60007500D01*
X97065625Y-60007500D01*
X97040154Y-60032927D01*
X96790794Y-60633453D01*
X96790226Y-61283694D01*
X97038538Y-61884655D01*
X97497927Y-62344846D01*
X97986432Y-62547691D01*
X97500345Y-62748538D01*
X97040154Y-63207927D01*
X96790794Y-63808453D01*
X96790226Y-64458694D01*
X97038538Y-65059655D01*
X97497927Y-65519846D01*
X97975027Y-65717955D01*
X97551042Y-65893575D01*
X97452443Y-66160377D01*
X98425000Y-67132935D01*
X99397557Y-66160377D01*
X99298958Y-65893575D01*
X98851430Y-65727324D01*
X99349655Y-65521462D01*
X99784375Y-65087500D01*
X100965000Y-65087500D01*
X101329506Y-65014995D01*
X101638519Y-64808519D01*
X101844995Y-64499506D01*
X101917500Y-64135000D01*
X101917500Y-57803431D01*
X101926967Y-57793981D01*
X102100182Y-57376832D01*
X102100576Y-56925150D01*
X102062294Y-56832500D01*
X104947706Y-56832500D01*
X105081911Y-57157301D01*
X105092500Y-57167909D01*
X105092500Y-60960000D01*
X105165005Y-61324506D01*
X105371481Y-61633519D01*
X105680494Y-61839995D01*
X106045000Y-61912500D01*
X107226334Y-61912500D01*
X107657927Y-62344846D01*
X108146432Y-62547691D01*
X107660345Y-62748538D01*
X107200154Y-63207927D01*
X106950794Y-63808453D01*
X106950226Y-64458694D01*
X107198538Y-65059655D01*
X107632500Y-65494375D01*
X107632500Y-65665610D01*
X107585510Y-65665610D01*
X107350193Y-65709888D01*
X107134069Y-65848960D01*
X106989079Y-66061160D01*
X106938070Y-66313050D01*
X106938070Y-66360040D01*
X102237540Y-66360040D01*
X101873034Y-66432545D01*
X101564021Y-66639021D01*
X101561481Y-66641561D01*
X101355005Y-66950574D01*
X101282500Y-67315080D01*
X101282500Y-72636904D01*
X101051371Y-72867630D01*
X100838243Y-73380900D01*
X100837758Y-73936661D01*
X101049990Y-74450303D01*
X101442630Y-74843629D01*
X101955900Y-75056757D01*
X102511661Y-75057242D01*
X103025303Y-74845010D01*
X103418629Y-74452370D01*
X103631757Y-73939100D01*
X103632242Y-73383339D01*
X103420010Y-72869697D01*
X103187500Y-72636781D01*
X103187500Y-72100213D01*
X106514392Y-72100213D01*
X106583857Y-72342397D01*
X107107302Y-72529144D01*
X107662368Y-72501362D01*
X108046143Y-72342397D01*
X108115608Y-72100213D01*
X107315000Y-71299605D01*
X106514392Y-72100213D01*
X103187500Y-72100213D01*
X103187500Y-70912302D01*
X105905856Y-70912302D01*
X105933638Y-71467368D01*
X106092603Y-71851143D01*
X106334787Y-71920608D01*
X107135395Y-71120000D01*
X107494605Y-71120000D01*
X108295213Y-71920608D01*
X108537397Y-71851143D01*
X108724144Y-71327698D01*
X108696362Y-70772632D01*
X108537397Y-70388857D01*
X108295213Y-70319392D01*
X107494605Y-71120000D01*
X107135395Y-71120000D01*
X106334787Y-70319392D01*
X106092603Y-70388857D01*
X105905856Y-70912302D01*
X103187500Y-70912302D01*
X103187500Y-70139787D01*
X106514392Y-70139787D01*
X107315000Y-70940395D01*
X108115608Y-70139787D01*
X108046143Y-69897603D01*
X107522698Y-69710856D01*
X106967632Y-69738638D01*
X106583857Y-69897603D01*
X106514392Y-70139787D01*
X103187500Y-70139787D01*
X103187500Y-68265040D01*
X106938070Y-68265040D01*
X106938070Y-68312030D01*
X106982348Y-68547347D01*
X107121420Y-68763471D01*
X107333620Y-68908461D01*
X107585510Y-68959470D01*
X109584490Y-68959470D01*
X109819807Y-68915192D01*
X110035931Y-68776120D01*
X110180921Y-68563920D01*
X110231930Y-68312030D01*
X110231930Y-67633694D01*
X110760226Y-67633694D01*
X111008538Y-68234655D01*
X111442500Y-68669375D01*
X111442500Y-70096904D01*
X111211371Y-70327630D01*
X110998243Y-70840900D01*
X110997758Y-71396661D01*
X111209990Y-71910303D01*
X111602630Y-72303629D01*
X112115900Y-72516757D01*
X112671661Y-72517242D01*
X113185303Y-72305010D01*
X113578629Y-71912370D01*
X113791757Y-71399100D01*
X113792242Y-70843339D01*
X113580010Y-70329697D01*
X113347500Y-70096781D01*
X113347500Y-68668666D01*
X113551818Y-68464703D01*
X115232443Y-68464703D01*
X115331042Y-68731505D01*
X115940582Y-68957941D01*
X116590377Y-68933881D01*
X117078958Y-68731505D01*
X117177557Y-68464703D01*
X116205000Y-67492145D01*
X115232443Y-68464703D01*
X113551818Y-68464703D01*
X113779846Y-68237073D01*
X114029206Y-67636547D01*
X114029720Y-67048122D01*
X114559599Y-67048122D01*
X114583659Y-67697917D01*
X114786035Y-68186498D01*
X115052837Y-68285097D01*
X116025395Y-67312540D01*
X116384605Y-67312540D01*
X117357163Y-68285097D01*
X117623965Y-68186498D01*
X117850401Y-67576958D01*
X117826341Y-66927163D01*
X117623965Y-66438582D01*
X117357163Y-66339983D01*
X116384605Y-67312540D01*
X116025395Y-67312540D01*
X115052837Y-66339983D01*
X114786035Y-66438582D01*
X114559599Y-67048122D01*
X114029720Y-67048122D01*
X114029774Y-66986306D01*
X113781462Y-66385345D01*
X113322073Y-65925154D01*
X112721547Y-65675794D01*
X112071306Y-65675226D01*
X111470345Y-65923538D01*
X111010154Y-66382927D01*
X110760794Y-66983453D01*
X110760226Y-67633694D01*
X110231930Y-67633694D01*
X110231930Y-66313050D01*
X110187652Y-66077733D01*
X110048580Y-65861609D01*
X109836380Y-65716619D01*
X109584490Y-65665610D01*
X109537500Y-65665610D01*
X109537500Y-65493666D01*
X109969846Y-65062073D01*
X110219206Y-64461547D01*
X110219774Y-63811306D01*
X109971462Y-63210345D01*
X109512073Y-62750154D01*
X109023568Y-62547309D01*
X109509655Y-62346462D01*
X109969846Y-61887073D01*
X110219206Y-61286547D01*
X110219774Y-60636306D01*
X109971462Y-60035345D01*
X109512073Y-59575154D01*
X108911547Y-59325794D01*
X108261306Y-59325226D01*
X107660345Y-59573538D01*
X107225625Y-60007500D01*
X106997500Y-60007500D01*
X106997500Y-58882533D01*
X107088168Y-58920182D01*
X107539850Y-58920576D01*
X107957301Y-58748089D01*
X108276967Y-58428981D01*
X108450182Y-58011832D01*
X108450497Y-57650263D01*
X108809850Y-57650576D01*
X109227301Y-57478089D01*
X109546967Y-57158981D01*
X109720182Y-56741832D01*
X109720576Y-56290150D01*
X109548089Y-55872699D01*
X109537500Y-55862091D01*
X109537500Y-54063666D01*
X109969846Y-53632073D01*
X110219206Y-53031547D01*
X110219774Y-52381306D01*
X109971462Y-51780345D01*
X109943666Y-51752500D01*
X110856694Y-51752500D01*
X110760794Y-51983453D01*
X110760794Y-51983453D01*
G37*
X110760794Y-51983453D02*
X110760226Y-52633694D01*
X111008538Y-53234655D01*
X111442500Y-53669375D01*
X111442500Y-59055000D01*
X111515005Y-59419506D01*
X111721481Y-59728519D01*
X112030494Y-59934995D01*
X112395000Y-60007500D01*
X114845625Y-60007500D01*
X114820154Y-60032927D01*
X114570794Y-60633453D01*
X114570226Y-61283694D01*
X114818538Y-61884655D01*
X115277927Y-62344846D01*
X115766432Y-62547691D01*
X115280345Y-62748538D01*
X114820154Y-63207927D01*
X114570794Y-63808453D01*
X114570226Y-64458694D01*
X114818538Y-65059655D01*
X115277927Y-65519846D01*
X115755027Y-65717955D01*
X115331042Y-65893575D01*
X115232443Y-66160377D01*
X116205000Y-67132935D01*
X117177557Y-66160377D01*
X117078958Y-65893575D01*
X116631430Y-65727324D01*
X117129655Y-65521462D01*
X117564375Y-65087500D01*
X118745000Y-65087500D01*
X119109506Y-65014995D01*
X119418519Y-64808519D01*
X119624995Y-64499506D01*
X119697500Y-64135000D01*
X119697500Y-57803431D01*
X119706967Y-57793981D01*
X119880182Y-57376832D01*
X119880576Y-56925150D01*
X119842294Y-56832500D01*
X122727706Y-56832500D01*
X122861911Y-57157301D01*
X122872500Y-57167909D01*
X122872500Y-60960000D01*
X122945005Y-61324506D01*
X123151481Y-61633519D01*
X123460494Y-61839995D01*
X123825000Y-61912500D01*
X125006334Y-61912500D01*
X125437927Y-62344846D01*
X125926432Y-62547691D01*
X125440345Y-62748538D01*
X124980154Y-63207927D01*
X124730794Y-63808453D01*
X124730226Y-64458694D01*
X124978538Y-65059655D01*
X125412500Y-65494375D01*
X125412500Y-65665610D01*
X125365510Y-65665610D01*
X125130193Y-65709888D01*
X124914069Y-65848960D01*
X124769079Y-66061160D01*
X124718070Y-66313050D01*
X124718070Y-68312030D01*
X124762348Y-68547347D01*
X124901420Y-68763471D01*
X125113620Y-68908461D01*
X125365510Y-68959470D01*
X125412500Y-68959470D01*
X125412500Y-72279632D01*
X124939697Y-72474990D01*
X124546371Y-72867630D01*
X124333243Y-73380900D01*
X124332758Y-73936661D01*
X124544990Y-74450303D01*
X124706904Y-74612500D01*
X118498219Y-74612500D01*
X118658629Y-74452370D01*
X118871757Y-73939100D01*
X118872242Y-73383339D01*
X118660010Y-72869697D01*
X118267370Y-72476371D01*
X117754100Y-72263243D01*
X117198339Y-72262758D01*
X116684697Y-72474990D01*
X116291371Y-72867630D01*
X116078243Y-73380900D01*
X116077758Y-73936661D01*
X116289990Y-74450303D01*
X116522500Y-74683219D01*
X116522500Y-75565000D01*
X116595005Y-75929506D01*
X116801481Y-76238519D01*
X117110494Y-76444995D01*
X117475000Y-76517500D01*
X140970000Y-76517500D01*
X141334506Y-76444995D01*
X141643519Y-76238519D01*
X141849995Y-75929506D01*
X141922500Y-75565000D01*
X141922500Y-74683096D01*
X142153629Y-74452370D01*
X142366757Y-73939100D01*
X142367242Y-73383339D01*
X142155010Y-72869697D01*
X141922500Y-72636781D01*
X141922500Y-69732163D01*
X146979903Y-69732163D01*
X147078502Y-69998965D01*
X147688042Y-70225401D01*
X148337837Y-70201341D01*
X148826418Y-69998965D01*
X148925017Y-69732163D01*
X147952460Y-68759605D01*
X146979903Y-69732163D01*
X141922500Y-69732163D01*
X141922500Y-68265040D01*
X142498070Y-68265040D01*
X142498070Y-68312030D01*
X142542348Y-68547347D01*
X142681420Y-68763471D01*
X142893620Y-68908461D01*
X143145510Y-68959470D01*
X145144490Y-68959470D01*
X145379807Y-68915192D01*
X145595931Y-68776120D01*
X145740921Y-68563920D01*
X145791210Y-68315582D01*
X146307059Y-68315582D01*
X146331119Y-68965377D01*
X146533495Y-69453958D01*
X146800297Y-69552557D01*
X147772855Y-68580000D01*
X146800297Y-67607443D01*
X146533495Y-67706042D01*
X146307059Y-68315582D01*
X145791210Y-68315582D01*
X145791930Y-68312030D01*
X145791930Y-67427837D01*
X146979903Y-67427837D01*
X147952460Y-68400395D01*
X148925017Y-67427837D01*
X148826418Y-67161035D01*
X148216878Y-66934599D01*
X147567083Y-66958659D01*
X147078502Y-67161035D01*
X146979903Y-67427837D01*
X145791930Y-67427837D01*
X145791930Y-66313050D01*
X145747652Y-66077733D01*
X145608580Y-65861609D01*
X145396380Y-65716619D01*
X145144490Y-65665610D01*
X145097500Y-65665610D01*
X145097500Y-65493666D01*
X145529846Y-65062073D01*
X145779206Y-64461547D01*
X145779774Y-63811306D01*
X145531462Y-63210345D01*
X145072073Y-62750154D01*
X144583568Y-62547309D01*
X145069655Y-62346462D01*
X145529846Y-61887073D01*
X145779206Y-61286547D01*
X145779774Y-60636306D01*
X145531462Y-60035345D01*
X145072073Y-59575154D01*
X144471547Y-59325794D01*
X143821306Y-59325226D01*
X143220345Y-59573538D01*
X142785625Y-60007500D01*
X142557500Y-60007500D01*
X142557500Y-58882533D01*
X142648168Y-58920182D01*
X143099850Y-58920576D01*
X143517301Y-58748089D01*
X143527909Y-58737500D01*
X147002500Y-58737500D01*
X147002500Y-60897341D01*
X146755222Y-61062567D01*
X146397330Y-61598190D01*
X146271655Y-62230000D01*
X146397330Y-62861810D01*
X146755222Y-63397433D01*
X147290845Y-63755325D01*
X147922655Y-63881000D01*
X147987345Y-63881000D01*
X148619155Y-63755325D01*
X148921962Y-63552996D01*
X149014910Y-63697441D01*
X149227110Y-63842431D01*
X149479000Y-63893440D01*
X151511000Y-63893440D01*
X151746317Y-63849162D01*
X151962441Y-63710090D01*
X152107431Y-63497890D01*
X152158440Y-63246000D01*
X152158440Y-61214000D01*
X152114162Y-60978683D01*
X151975090Y-60762559D01*
X151762890Y-60617569D01*
X151511000Y-60566560D01*
X149479000Y-60566560D01*
X149243683Y-60610838D01*
X149027559Y-60749910D01*
X148920767Y-60906206D01*
X148907500Y-60897341D01*
X148907500Y-57785000D01*
X148886251Y-57678172D01*
X156082538Y-57678172D01*
X156487709Y-58658761D01*
X157237293Y-59409655D01*
X158217173Y-59816536D01*
X159278172Y-59817462D01*
X160258761Y-59412291D01*
X161009655Y-58662707D01*
X161416536Y-57682827D01*
X161417462Y-56621828D01*
X161012291Y-55641239D01*
X160262707Y-54890345D01*
X159282827Y-54483464D01*
X158221828Y-54482538D01*
X157241239Y-54887709D01*
X156490345Y-55637293D01*
X156083464Y-56617173D01*
X156082538Y-57678172D01*
X148886251Y-57678172D01*
X148834995Y-57420494D01*
X148628519Y-57111481D01*
X148319506Y-56905005D01*
X147955000Y-56832500D01*
X145242533Y-56832500D01*
X145280182Y-56741832D01*
X145280576Y-56290150D01*
X145108089Y-55872699D01*
X145097500Y-55862091D01*
X145097500Y-54063666D01*
X145529846Y-53632073D01*
X145779206Y-53031547D01*
X145779774Y-52381306D01*
X145531462Y-51780345D01*
X145503666Y-51752500D01*
X163512500Y-51752500D01*
X163512500Y-65087500D01*
X155575000Y-65087500D01*
X155210494Y-65160005D01*
X154901481Y-65366481D01*
X154695005Y-65675494D01*
X154622500Y-66040000D01*
X154622500Y-67220625D01*
X154597073Y-67195154D01*
X153996547Y-66945794D01*
X153346306Y-66945226D01*
X152745345Y-67193538D01*
X152285154Y-67652927D01*
X152082309Y-68141432D01*
X151881462Y-67655345D01*
X151422073Y-67195154D01*
X150821547Y-66945794D01*
X150171306Y-66945226D01*
X149570345Y-67193538D01*
X149141913Y-67621224D01*
X149104623Y-67607443D01*
X148132065Y-68580000D01*
X149104623Y-69552557D01*
X149142415Y-69538591D01*
X149542500Y-69939375D01*
X149542500Y-71120000D01*
X149615005Y-71484506D01*
X149821481Y-71793519D01*
X150130494Y-71999995D01*
X150495000Y-72072500D01*
X156826569Y-72072500D01*
X156836019Y-72081967D01*
X157253168Y-72255182D01*
X157704850Y-72255576D01*
X157797500Y-72217294D01*
X157797500Y-75102706D01*
X157472699Y-75236911D01*
X157462091Y-75247500D01*
X153670000Y-75247500D01*
X153305494Y-75320005D01*
X152996481Y-75526481D01*
X152790005Y-75835494D01*
X152717500Y-76200000D01*
X152717500Y-77381334D01*
X152285154Y-77812927D01*
X152082309Y-78301432D01*
X151881462Y-77815345D01*
X151422073Y-77355154D01*
X150821547Y-77105794D01*
X150171306Y-77105226D01*
X149570345Y-77353538D01*
X149501651Y-77422112D01*
X149416040Y-77289069D01*
X149203840Y-77144079D01*
X148951950Y-77093070D01*
X146952970Y-77093070D01*
X146717653Y-77137348D01*
X146501529Y-77276420D01*
X146356539Y-77488620D01*
X146305530Y-77740510D01*
X146305530Y-77787500D01*
X144533096Y-77787500D01*
X144302370Y-77556371D01*
X143789100Y-77343243D01*
X143233339Y-77342758D01*
X142719697Y-77554990D01*
X142326371Y-77947630D01*
X142113243Y-78460900D01*
X142112758Y-79016661D01*
X142324990Y-79530303D01*
X142486904Y-79692500D01*
X124248344Y-79692500D01*
X124285226Y-79655618D01*
X124170215Y-79540607D01*
X124412397Y-79471143D01*
X124599144Y-78947698D01*
X124571362Y-78392632D01*
X124412397Y-78008857D01*
X124170213Y-77939392D01*
X123369605Y-78740000D01*
X123383748Y-78754143D01*
X123204143Y-78933748D01*
X123190000Y-78919605D01*
X123175858Y-78933748D01*
X122996253Y-78754143D01*
X123010395Y-78740000D01*
X122209787Y-77939392D01*
X121967603Y-78008857D01*
X121780856Y-78532302D01*
X121808638Y-79087368D01*
X121967603Y-79471143D01*
X122209785Y-79540607D01*
X122094774Y-79655618D01*
X122131656Y-79692500D01*
X121038219Y-79692500D01*
X121198629Y-79532370D01*
X121411757Y-79019100D01*
X121412242Y-78463339D01*
X121200010Y-77949697D01*
X121010432Y-77759787D01*
X122389392Y-77759787D01*
X123190000Y-78560395D01*
X123990608Y-77759787D01*
X123921143Y-77517603D01*
X123397698Y-77330856D01*
X122842632Y-77358638D01*
X122458857Y-77517603D01*
X122389392Y-77759787D01*
X121010432Y-77759787D01*
X120807370Y-77556371D01*
X120294100Y-77343243D01*
X119738339Y-77342758D01*
X119224697Y-77554990D01*
X118831371Y-77947630D01*
X118618243Y-78460900D01*
X118617758Y-79016661D01*
X118829990Y-79530303D01*
X119062500Y-79763219D01*
X119062500Y-80645000D01*
X119135005Y-81009506D01*
X119315743Y-81280000D01*
X119135005Y-81550494D01*
X119062500Y-81915000D01*
X119062500Y-82796904D01*
X118831371Y-83027630D01*
X118618243Y-83540900D01*
X118617758Y-84096661D01*
X118829990Y-84610303D01*
X118991904Y-84772500D01*
X100718219Y-84772500D01*
X100878629Y-84612370D01*
X101091757Y-84099100D01*
X101092242Y-83543339D01*
X100880010Y-83029697D01*
X100487370Y-82636371D01*
X99974100Y-82423243D01*
X99418339Y-82422758D01*
X98904697Y-82634990D01*
X98671781Y-82867500D01*
X94297500Y-82867500D01*
X94297500Y-79720213D01*
X98894392Y-79720213D01*
X98963857Y-79962397D01*
X99487302Y-80149144D01*
X100042368Y-80121362D01*
X100426143Y-79962397D01*
X100495608Y-79720213D01*
X99695000Y-78919605D01*
X98894392Y-79720213D01*
X94297500Y-79720213D01*
X94297500Y-78532302D01*
X98285856Y-78532302D01*
X98313638Y-79087368D01*
X98472603Y-79471143D01*
X98714787Y-79540608D01*
X99515395Y-78740000D01*
X99874605Y-78740000D01*
X100675213Y-79540608D01*
X100917397Y-79471143D01*
X101104144Y-78947698D01*
X101076362Y-78392632D01*
X100917397Y-78008857D01*
X100675213Y-77939392D01*
X99874605Y-78740000D01*
X99515395Y-78740000D01*
X98714787Y-77939392D01*
X98472603Y-78008857D01*
X98285856Y-78532302D01*
X94297500Y-78532302D01*
X94297500Y-77759787D01*
X98894392Y-77759787D01*
X99695000Y-78560395D01*
X100495608Y-77759787D01*
X100426143Y-77517603D01*
X99902698Y-77330856D01*
X99347632Y-77358638D01*
X98963857Y-77517603D01*
X98894392Y-77759787D01*
X94297500Y-77759787D01*
X94297500Y-68959470D01*
X94344490Y-68959470D01*
X94579807Y-68915192D01*
X94795931Y-68776120D01*
X94940921Y-68563920D01*
X94961012Y-68464703D01*
X97452443Y-68464703D01*
X97551042Y-68731505D01*
X98160582Y-68957941D01*
X98810377Y-68933881D01*
X99298958Y-68731505D01*
X99397557Y-68464703D01*
X98425000Y-67492145D01*
X97452443Y-68464703D01*
X94961012Y-68464703D01*
X94991930Y-68312030D01*
X94991930Y-67048122D01*
X96779599Y-67048122D01*
X96803659Y-67697917D01*
X97006035Y-68186498D01*
X97272837Y-68285097D01*
X98245395Y-67312540D01*
X98604605Y-67312540D01*
X99577163Y-68285097D01*
X99843965Y-68186498D01*
X100070401Y-67576958D01*
X100046341Y-66927163D01*
X99843965Y-66438582D01*
X99577163Y-66339983D01*
X98604605Y-67312540D01*
X98245395Y-67312540D01*
X97272837Y-66339983D01*
X97006035Y-66438582D01*
X96779599Y-67048122D01*
X94991930Y-67048122D01*
X94991930Y-66313050D01*
X94947652Y-66077733D01*
X94808580Y-65861609D01*
X94596380Y-65716619D01*
X94344490Y-65665610D01*
X94297500Y-65665610D01*
X94297500Y-65493666D01*
X94729846Y-65062073D01*
X94979206Y-64461547D01*
X94979774Y-63811306D01*
X94731462Y-63210345D01*
X94272073Y-62750154D01*
X93783568Y-62547309D01*
X94269655Y-62346462D01*
X94729846Y-61887073D01*
X94979206Y-61286547D01*
X94979774Y-60636306D01*
X94731462Y-60035345D01*
X94272073Y-59575154D01*
X93671547Y-59325794D01*
X93021306Y-59325226D01*
X92420345Y-59573538D01*
X91985625Y-60007500D01*
X91757500Y-60007500D01*
X91757500Y-58882533D01*
X91848168Y-58920182D01*
X92299850Y-58920576D01*
X92717301Y-58748089D01*
X93036967Y-58428981D01*
X93210182Y-58011832D01*
X93210497Y-57650263D01*
X93569850Y-57650576D01*
X93987301Y-57478089D01*
X94306967Y-57158981D01*
X94480182Y-56741832D01*
X94480576Y-56290150D01*
X94308089Y-55872699D01*
X94297500Y-55862091D01*
X94297500Y-54063666D01*
X94729846Y-53632073D01*
X94932500Y-53144028D01*
X94932500Y-59055000D01*
X95005005Y-59419506D01*
X95211481Y-59728519D01*
X95520494Y-59934995D01*
X95885000Y-60007500D01*
X97065625Y-60007500D01*
X97040154Y-60032927D01*
X96790794Y-60633453D01*
X96790226Y-61283694D01*
X97038538Y-61884655D01*
X97497927Y-62344846D01*
X97986432Y-62547691D01*
X97500345Y-62748538D01*
X97040154Y-63207927D01*
X96790794Y-63808453D01*
X96790226Y-64458694D01*
X97038538Y-65059655D01*
X97497927Y-65519846D01*
X97975027Y-65717955D01*
X97551042Y-65893575D01*
X97452443Y-66160377D01*
X98425000Y-67132935D01*
X99397557Y-66160377D01*
X99298958Y-65893575D01*
X98851430Y-65727324D01*
X99349655Y-65521462D01*
X99784375Y-65087500D01*
X100965000Y-65087500D01*
X101329506Y-65014995D01*
X101638519Y-64808519D01*
X101844995Y-64499506D01*
X101917500Y-64135000D01*
X101917500Y-57803431D01*
X101926967Y-57793981D01*
X102100182Y-57376832D01*
X102100576Y-56925150D01*
X102062294Y-56832500D01*
X104947706Y-56832500D01*
X105081911Y-57157301D01*
X105092500Y-57167909D01*
X105092500Y-60960000D01*
X105165005Y-61324506D01*
X105371481Y-61633519D01*
X105680494Y-61839995D01*
X106045000Y-61912500D01*
X107226334Y-61912500D01*
X107657927Y-62344846D01*
X108146432Y-62547691D01*
X107660345Y-62748538D01*
X107200154Y-63207927D01*
X106950794Y-63808453D01*
X106950226Y-64458694D01*
X107198538Y-65059655D01*
X107632500Y-65494375D01*
X107632500Y-65665610D01*
X107585510Y-65665610D01*
X107350193Y-65709888D01*
X107134069Y-65848960D01*
X106989079Y-66061160D01*
X106938070Y-66313050D01*
X106938070Y-66360040D01*
X102237540Y-66360040D01*
X101873034Y-66432545D01*
X101564021Y-66639021D01*
X101561481Y-66641561D01*
X101355005Y-66950574D01*
X101282500Y-67315080D01*
X101282500Y-72636904D01*
X101051371Y-72867630D01*
X100838243Y-73380900D01*
X100837758Y-73936661D01*
X101049990Y-74450303D01*
X101442630Y-74843629D01*
X101955900Y-75056757D01*
X102511661Y-75057242D01*
X103025303Y-74845010D01*
X103418629Y-74452370D01*
X103631757Y-73939100D01*
X103632242Y-73383339D01*
X103420010Y-72869697D01*
X103187500Y-72636781D01*
X103187500Y-72100213D01*
X106514392Y-72100213D01*
X106583857Y-72342397D01*
X107107302Y-72529144D01*
X107662368Y-72501362D01*
X108046143Y-72342397D01*
X108115608Y-72100213D01*
X107315000Y-71299605D01*
X106514392Y-72100213D01*
X103187500Y-72100213D01*
X103187500Y-70912302D01*
X105905856Y-70912302D01*
X105933638Y-71467368D01*
X106092603Y-71851143D01*
X106334787Y-71920608D01*
X107135395Y-71120000D01*
X107494605Y-71120000D01*
X108295213Y-71920608D01*
X108537397Y-71851143D01*
X108724144Y-71327698D01*
X108696362Y-70772632D01*
X108537397Y-70388857D01*
X108295213Y-70319392D01*
X107494605Y-71120000D01*
X107135395Y-71120000D01*
X106334787Y-70319392D01*
X106092603Y-70388857D01*
X105905856Y-70912302D01*
X103187500Y-70912302D01*
X103187500Y-70139787D01*
X106514392Y-70139787D01*
X107315000Y-70940395D01*
X108115608Y-70139787D01*
X108046143Y-69897603D01*
X107522698Y-69710856D01*
X106967632Y-69738638D01*
X106583857Y-69897603D01*
X106514392Y-70139787D01*
X103187500Y-70139787D01*
X103187500Y-68265040D01*
X106938070Y-68265040D01*
X106938070Y-68312030D01*
X106982348Y-68547347D01*
X107121420Y-68763471D01*
X107333620Y-68908461D01*
X107585510Y-68959470D01*
X109584490Y-68959470D01*
X109819807Y-68915192D01*
X110035931Y-68776120D01*
X110180921Y-68563920D01*
X110231930Y-68312030D01*
X110231930Y-67633694D01*
X110760226Y-67633694D01*
X111008538Y-68234655D01*
X111442500Y-68669375D01*
X111442500Y-70096904D01*
X111211371Y-70327630D01*
X110998243Y-70840900D01*
X110997758Y-71396661D01*
X111209990Y-71910303D01*
X111602630Y-72303629D01*
X112115900Y-72516757D01*
X112671661Y-72517242D01*
X113185303Y-72305010D01*
X113578629Y-71912370D01*
X113791757Y-71399100D01*
X113792242Y-70843339D01*
X113580010Y-70329697D01*
X113347500Y-70096781D01*
X113347500Y-68668666D01*
X113551818Y-68464703D01*
X115232443Y-68464703D01*
X115331042Y-68731505D01*
X115940582Y-68957941D01*
X116590377Y-68933881D01*
X117078958Y-68731505D01*
X117177557Y-68464703D01*
X116205000Y-67492145D01*
X115232443Y-68464703D01*
X113551818Y-68464703D01*
X113779846Y-68237073D01*
X114029206Y-67636547D01*
X114029720Y-67048122D01*
X114559599Y-67048122D01*
X114583659Y-67697917D01*
X114786035Y-68186498D01*
X115052837Y-68285097D01*
X116025395Y-67312540D01*
X116384605Y-67312540D01*
X117357163Y-68285097D01*
X117623965Y-68186498D01*
X117850401Y-67576958D01*
X117826341Y-66927163D01*
X117623965Y-66438582D01*
X117357163Y-66339983D01*
X116384605Y-67312540D01*
X116025395Y-67312540D01*
X115052837Y-66339983D01*
X114786035Y-66438582D01*
X114559599Y-67048122D01*
X114029720Y-67048122D01*
X114029774Y-66986306D01*
X113781462Y-66385345D01*
X113322073Y-65925154D01*
X112721547Y-65675794D01*
X112071306Y-65675226D01*
X111470345Y-65923538D01*
X111010154Y-66382927D01*
X110760794Y-66983453D01*
X110760226Y-67633694D01*
X110231930Y-67633694D01*
X110231930Y-66313050D01*
X110187652Y-66077733D01*
X110048580Y-65861609D01*
X109836380Y-65716619D01*
X109584490Y-65665610D01*
X109537500Y-65665610D01*
X109537500Y-65493666D01*
X109969846Y-65062073D01*
X110219206Y-64461547D01*
X110219774Y-63811306D01*
X109971462Y-63210345D01*
X109512073Y-62750154D01*
X109023568Y-62547309D01*
X109509655Y-62346462D01*
X109969846Y-61887073D01*
X110219206Y-61286547D01*
X110219774Y-60636306D01*
X109971462Y-60035345D01*
X109512073Y-59575154D01*
X108911547Y-59325794D01*
X108261306Y-59325226D01*
X107660345Y-59573538D01*
X107225625Y-60007500D01*
X106997500Y-60007500D01*
X106997500Y-58882533D01*
X107088168Y-58920182D01*
X107539850Y-58920576D01*
X107957301Y-58748089D01*
X108276967Y-58428981D01*
X108450182Y-58011832D01*
X108450497Y-57650263D01*
X108809850Y-57650576D01*
X109227301Y-57478089D01*
X109546967Y-57158981D01*
X109720182Y-56741832D01*
X109720576Y-56290150D01*
X109548089Y-55872699D01*
X109537500Y-55862091D01*
X109537500Y-54063666D01*
X109969846Y-53632073D01*
X110219206Y-53031547D01*
X110219774Y-52381306D01*
X109971462Y-51780345D01*
X109943666Y-51752500D01*
X110856694Y-51752500D01*
X110760794Y-51983453D01*
G36*
X161051042Y-67161035D02*
X160952443Y-67427837D01*
X161925000Y-68400395D01*
X162897557Y-67427837D01*
X162798958Y-67161035D01*
X162345281Y-66992500D01*
X163512500Y-66992500D01*
X163512500Y-68112923D01*
X163343965Y-67706042D01*
X163077163Y-67607443D01*
X162104605Y-68580000D01*
X163077163Y-69552557D01*
X163343965Y-69453958D01*
X163512500Y-69000281D01*
X163512500Y-78301894D01*
X163311462Y-77815345D01*
X162852073Y-77355154D01*
X162251547Y-77105794D01*
X161601306Y-77105226D01*
X161000345Y-77353538D01*
X160565625Y-77787500D01*
X158768431Y-77787500D01*
X158758981Y-77778033D01*
X158341832Y-77604818D01*
X157980263Y-77604503D01*
X157980497Y-77335263D01*
X158339850Y-77335576D01*
X158757301Y-77163089D01*
X158772365Y-77148051D01*
X159114506Y-77079995D01*
X159423519Y-76873519D01*
X159629995Y-76564506D01*
X159702500Y-76200000D01*
X159702500Y-70503431D01*
X159711967Y-70493981D01*
X159885182Y-70076832D01*
X159885482Y-69732163D01*
X160952443Y-69732163D01*
X161051042Y-69998965D01*
X161660582Y-70225401D01*
X162310377Y-70201341D01*
X162798958Y-69998965D01*
X162897557Y-69732163D01*
X161925000Y-68759605D01*
X160952443Y-69732163D01*
X159885482Y-69732163D01*
X159885576Y-69625150D01*
X159713089Y-69207699D01*
X159393981Y-68888033D01*
X158976832Y-68714818D01*
X158615263Y-68714503D01*
X158615576Y-68355150D01*
X158599227Y-68315582D01*
X160279599Y-68315582D01*
X160303659Y-68965377D01*
X160506035Y-69453958D01*
X160772837Y-69552557D01*
X161745395Y-68580000D01*
X160772837Y-67607443D01*
X160506035Y-67706042D01*
X160279599Y-68315582D01*
X158599227Y-68315582D01*
X158443089Y-67937699D01*
X158123981Y-67618033D01*
X157706832Y-67444818D01*
X157255150Y-67444424D01*
X156837699Y-67616911D01*
X156827091Y-67627500D01*
X156527500Y-67627500D01*
X156527500Y-66992500D01*
X161457923Y-66992500D01*
X161051042Y-67161035D01*
X161051042Y-67161035D01*
G37*
X161051042Y-67161035D02*
X160952443Y-67427837D01*
X161925000Y-68400395D01*
X162897557Y-67427837D01*
X162798958Y-67161035D01*
X162345281Y-66992500D01*
X163512500Y-66992500D01*
X163512500Y-68112923D01*
X163343965Y-67706042D01*
X163077163Y-67607443D01*
X162104605Y-68580000D01*
X163077163Y-69552557D01*
X163343965Y-69453958D01*
X163512500Y-69000281D01*
X163512500Y-78301894D01*
X163311462Y-77815345D01*
X162852073Y-77355154D01*
X162251547Y-77105794D01*
X161601306Y-77105226D01*
X161000345Y-77353538D01*
X160565625Y-77787500D01*
X158768431Y-77787500D01*
X158758981Y-77778033D01*
X158341832Y-77604818D01*
X157980263Y-77604503D01*
X157980497Y-77335263D01*
X158339850Y-77335576D01*
X158757301Y-77163089D01*
X158772365Y-77148051D01*
X159114506Y-77079995D01*
X159423519Y-76873519D01*
X159629995Y-76564506D01*
X159702500Y-76200000D01*
X159702500Y-70503431D01*
X159711967Y-70493981D01*
X159885182Y-70076832D01*
X159885482Y-69732163D01*
X160952443Y-69732163D01*
X161051042Y-69998965D01*
X161660582Y-70225401D01*
X162310377Y-70201341D01*
X162798958Y-69998965D01*
X162897557Y-69732163D01*
X161925000Y-68759605D01*
X160952443Y-69732163D01*
X159885482Y-69732163D01*
X159885576Y-69625150D01*
X159713089Y-69207699D01*
X159393981Y-68888033D01*
X158976832Y-68714818D01*
X158615263Y-68714503D01*
X158615576Y-68355150D01*
X158599227Y-68315582D01*
X160279599Y-68315582D01*
X160303659Y-68965377D01*
X160506035Y-69453958D01*
X160772837Y-69552557D01*
X161745395Y-68580000D01*
X160772837Y-67607443D01*
X160506035Y-67706042D01*
X160279599Y-68315582D01*
X158599227Y-68315582D01*
X158443089Y-67937699D01*
X158123981Y-67618033D01*
X157706832Y-67444818D01*
X157255150Y-67444424D01*
X156837699Y-67616911D01*
X156827091Y-67627500D01*
X156527500Y-67627500D01*
X156527500Y-66992500D01*
X161457923Y-66992500D01*
X161051042Y-67161035D01*
G36*
X128540794Y-51983453D02*
X128540226Y-52633694D01*
X128788538Y-53234655D01*
X129222500Y-53669375D01*
X129222500Y-59055000D01*
X129295005Y-59419506D01*
X129501481Y-59728519D01*
X129810494Y-59934995D01*
X130175000Y-60007500D01*
X132625625Y-60007500D01*
X132600154Y-60032927D01*
X132350794Y-60633453D01*
X132350226Y-61283694D01*
X132598538Y-61884655D01*
X133057927Y-62344846D01*
X133546432Y-62547691D01*
X133060345Y-62748538D01*
X132600154Y-63207927D01*
X132350794Y-63808453D01*
X132350226Y-64458694D01*
X132598538Y-65059655D01*
X133057927Y-65519846D01*
X133535027Y-65717955D01*
X133111042Y-65893575D01*
X133012443Y-66160377D01*
X133985000Y-67132935D01*
X134957557Y-66160377D01*
X134858958Y-65893575D01*
X134411430Y-65727324D01*
X134909655Y-65521462D01*
X135344375Y-65087500D01*
X136525000Y-65087500D01*
X136889506Y-65014995D01*
X137198519Y-64808519D01*
X137404995Y-64499506D01*
X137477500Y-64135000D01*
X137477500Y-57803431D01*
X137486967Y-57793981D01*
X137660182Y-57376832D01*
X137660576Y-56925150D01*
X137622294Y-56832500D01*
X140507706Y-56832500D01*
X140641911Y-57157301D01*
X140652500Y-57167909D01*
X140652500Y-60960000D01*
X140725005Y-61324506D01*
X140931481Y-61633519D01*
X141240494Y-61839995D01*
X141605000Y-61912500D01*
X142786334Y-61912500D01*
X143217927Y-62344846D01*
X143706432Y-62547691D01*
X143220345Y-62748538D01*
X142760154Y-63207927D01*
X142510794Y-63808453D01*
X142510226Y-64458694D01*
X142758538Y-65059655D01*
X143192500Y-65494375D01*
X143192500Y-65665610D01*
X143145510Y-65665610D01*
X142910193Y-65709888D01*
X142694069Y-65848960D01*
X142549079Y-66061160D01*
X142498070Y-66313050D01*
X142498070Y-66360040D01*
X140972540Y-66360040D01*
X140608034Y-66432545D01*
X140299021Y-66639021D01*
X140296481Y-66641561D01*
X140090005Y-66950574D01*
X140017500Y-67315080D01*
X140017500Y-72636904D01*
X139786371Y-72867630D01*
X139573243Y-73380900D01*
X139572758Y-73936661D01*
X139784990Y-74450303D01*
X139946904Y-74612500D01*
X126753219Y-74612500D01*
X126913629Y-74452370D01*
X126933974Y-74403374D01*
X127038519Y-74333519D01*
X127244995Y-74024506D01*
X127317500Y-73660000D01*
X127317500Y-72100213D01*
X130009392Y-72100213D01*
X130078857Y-72342397D01*
X130602302Y-72529144D01*
X131157368Y-72501362D01*
X131541143Y-72342397D01*
X131610608Y-72100213D01*
X130810000Y-71299605D01*
X130009392Y-72100213D01*
X127317500Y-72100213D01*
X127317500Y-70912302D01*
X129400856Y-70912302D01*
X129428638Y-71467368D01*
X129587603Y-71851143D01*
X129829787Y-71920608D01*
X130630395Y-71120000D01*
X129829787Y-70319392D01*
X129587603Y-70388857D01*
X129400856Y-70912302D01*
X127317500Y-70912302D01*
X127317500Y-68959470D01*
X127364490Y-68959470D01*
X127599807Y-68915192D01*
X127815931Y-68776120D01*
X127960921Y-68563920D01*
X128011930Y-68312030D01*
X128011930Y-67633694D01*
X128540226Y-67633694D01*
X128788538Y-68234655D01*
X129222500Y-68669375D01*
X129222500Y-69215000D01*
X129295005Y-69579506D01*
X129501481Y-69888519D01*
X129810494Y-70094995D01*
X130010811Y-70134841D01*
X130009392Y-70139787D01*
X130810000Y-70940395D01*
X130824143Y-70926253D01*
X131003748Y-71105858D01*
X130989605Y-71120000D01*
X131790213Y-71920608D01*
X132032397Y-71851143D01*
X132219144Y-71327698D01*
X132191362Y-70772632D01*
X132032397Y-70388857D01*
X131790215Y-70319393D01*
X131905226Y-70204382D01*
X131868344Y-70167500D01*
X134866781Y-70167500D01*
X134706371Y-70327630D01*
X134493243Y-70840900D01*
X134492758Y-71396661D01*
X134704990Y-71910303D01*
X135097630Y-72303629D01*
X135610900Y-72516757D01*
X136166661Y-72517242D01*
X136680303Y-72305010D01*
X137073629Y-71912370D01*
X137286757Y-71399100D01*
X137287242Y-70843339D01*
X137075010Y-70329697D01*
X136842500Y-70096781D01*
X136842500Y-69215000D01*
X136769995Y-68850494D01*
X136563519Y-68541481D01*
X136254506Y-68335005D01*
X135890000Y-68262500D01*
X135198309Y-68262500D01*
X135403965Y-68186498D01*
X135630401Y-67576958D01*
X135606341Y-66927163D01*
X135403965Y-66438582D01*
X135137163Y-66339983D01*
X134164605Y-67312540D01*
X134178748Y-67326682D01*
X133999142Y-67506288D01*
X133985000Y-67492145D01*
X133970858Y-67506288D01*
X133791252Y-67326682D01*
X133805395Y-67312540D01*
X132832837Y-66339983D01*
X132566035Y-66438582D01*
X132339599Y-67048122D01*
X132363659Y-67697917D01*
X132566035Y-68186498D01*
X132771691Y-68262500D01*
X131534375Y-68262500D01*
X131559846Y-68237073D01*
X131809206Y-67636547D01*
X131809774Y-66986306D01*
X131561462Y-66385345D01*
X131102073Y-65925154D01*
X130501547Y-65675794D01*
X129851306Y-65675226D01*
X129250345Y-65923538D01*
X128790154Y-66382927D01*
X128540794Y-66983453D01*
X128540226Y-67633694D01*
X128011930Y-67633694D01*
X128011930Y-66313050D01*
X127967652Y-66077733D01*
X127828580Y-65861609D01*
X127616380Y-65716619D01*
X127364490Y-65665610D01*
X127317500Y-65665610D01*
X127317500Y-65493666D01*
X127749846Y-65062073D01*
X127999206Y-64461547D01*
X127999774Y-63811306D01*
X127751462Y-63210345D01*
X127292073Y-62750154D01*
X126803568Y-62547309D01*
X127289655Y-62346462D01*
X127749846Y-61887073D01*
X127999206Y-61286547D01*
X127999774Y-60636306D01*
X127751462Y-60035345D01*
X127292073Y-59575154D01*
X126691547Y-59325794D01*
X126041306Y-59325226D01*
X125440345Y-59573538D01*
X125005625Y-60007500D01*
X124777500Y-60007500D01*
X124777500Y-58882533D01*
X124868168Y-58920182D01*
X125319850Y-58920576D01*
X125737301Y-58748089D01*
X126056967Y-58428981D01*
X126230182Y-58011832D01*
X126230497Y-57650263D01*
X126589850Y-57650576D01*
X127007301Y-57478089D01*
X127326967Y-57158981D01*
X127500182Y-56741832D01*
X127500576Y-56290150D01*
X127328089Y-55872699D01*
X127317500Y-55862091D01*
X127317500Y-54063666D01*
X127749846Y-53632073D01*
X127999206Y-53031547D01*
X127999774Y-52381306D01*
X127751462Y-51780345D01*
X127723666Y-51752500D01*
X128636694Y-51752500D01*
X128540794Y-51983453D01*
X128540794Y-51983453D01*
G37*
X128540794Y-51983453D02*
X128540226Y-52633694D01*
X128788538Y-53234655D01*
X129222500Y-53669375D01*
X129222500Y-59055000D01*
X129295005Y-59419506D01*
X129501481Y-59728519D01*
X129810494Y-59934995D01*
X130175000Y-60007500D01*
X132625625Y-60007500D01*
X132600154Y-60032927D01*
X132350794Y-60633453D01*
X132350226Y-61283694D01*
X132598538Y-61884655D01*
X133057927Y-62344846D01*
X133546432Y-62547691D01*
X133060345Y-62748538D01*
X132600154Y-63207927D01*
X132350794Y-63808453D01*
X132350226Y-64458694D01*
X132598538Y-65059655D01*
X133057927Y-65519846D01*
X133535027Y-65717955D01*
X133111042Y-65893575D01*
X133012443Y-66160377D01*
X133985000Y-67132935D01*
X134957557Y-66160377D01*
X134858958Y-65893575D01*
X134411430Y-65727324D01*
X134909655Y-65521462D01*
X135344375Y-65087500D01*
X136525000Y-65087500D01*
X136889506Y-65014995D01*
X137198519Y-64808519D01*
X137404995Y-64499506D01*
X137477500Y-64135000D01*
X137477500Y-57803431D01*
X137486967Y-57793981D01*
X137660182Y-57376832D01*
X137660576Y-56925150D01*
X137622294Y-56832500D01*
X140507706Y-56832500D01*
X140641911Y-57157301D01*
X140652500Y-57167909D01*
X140652500Y-60960000D01*
X140725005Y-61324506D01*
X140931481Y-61633519D01*
X141240494Y-61839995D01*
X141605000Y-61912500D01*
X142786334Y-61912500D01*
X143217927Y-62344846D01*
X143706432Y-62547691D01*
X143220345Y-62748538D01*
X142760154Y-63207927D01*
X142510794Y-63808453D01*
X142510226Y-64458694D01*
X142758538Y-65059655D01*
X143192500Y-65494375D01*
X143192500Y-65665610D01*
X143145510Y-65665610D01*
X142910193Y-65709888D01*
X142694069Y-65848960D01*
X142549079Y-66061160D01*
X142498070Y-66313050D01*
X142498070Y-66360040D01*
X140972540Y-66360040D01*
X140608034Y-66432545D01*
X140299021Y-66639021D01*
X140296481Y-66641561D01*
X140090005Y-66950574D01*
X140017500Y-67315080D01*
X140017500Y-72636904D01*
X139786371Y-72867630D01*
X139573243Y-73380900D01*
X139572758Y-73936661D01*
X139784990Y-74450303D01*
X139946904Y-74612500D01*
X126753219Y-74612500D01*
X126913629Y-74452370D01*
X126933974Y-74403374D01*
X127038519Y-74333519D01*
X127244995Y-74024506D01*
X127317500Y-73660000D01*
X127317500Y-72100213D01*
X130009392Y-72100213D01*
X130078857Y-72342397D01*
X130602302Y-72529144D01*
X131157368Y-72501362D01*
X131541143Y-72342397D01*
X131610608Y-72100213D01*
X130810000Y-71299605D01*
X130009392Y-72100213D01*
X127317500Y-72100213D01*
X127317500Y-70912302D01*
X129400856Y-70912302D01*
X129428638Y-71467368D01*
X129587603Y-71851143D01*
X129829787Y-71920608D01*
X130630395Y-71120000D01*
X129829787Y-70319392D01*
X129587603Y-70388857D01*
X129400856Y-70912302D01*
X127317500Y-70912302D01*
X127317500Y-68959470D01*
X127364490Y-68959470D01*
X127599807Y-68915192D01*
X127815931Y-68776120D01*
X127960921Y-68563920D01*
X128011930Y-68312030D01*
X128011930Y-67633694D01*
X128540226Y-67633694D01*
X128788538Y-68234655D01*
X129222500Y-68669375D01*
X129222500Y-69215000D01*
X129295005Y-69579506D01*
X129501481Y-69888519D01*
X129810494Y-70094995D01*
X130010811Y-70134841D01*
X130009392Y-70139787D01*
X130810000Y-70940395D01*
X130824143Y-70926253D01*
X131003748Y-71105858D01*
X130989605Y-71120000D01*
X131790213Y-71920608D01*
X132032397Y-71851143D01*
X132219144Y-71327698D01*
X132191362Y-70772632D01*
X132032397Y-70388857D01*
X131790215Y-70319393D01*
X131905226Y-70204382D01*
X131868344Y-70167500D01*
X134866781Y-70167500D01*
X134706371Y-70327630D01*
X134493243Y-70840900D01*
X134492758Y-71396661D01*
X134704990Y-71910303D01*
X135097630Y-72303629D01*
X135610900Y-72516757D01*
X136166661Y-72517242D01*
X136680303Y-72305010D01*
X137073629Y-71912370D01*
X137286757Y-71399100D01*
X137287242Y-70843339D01*
X137075010Y-70329697D01*
X136842500Y-70096781D01*
X136842500Y-69215000D01*
X136769995Y-68850494D01*
X136563519Y-68541481D01*
X136254506Y-68335005D01*
X135890000Y-68262500D01*
X135198309Y-68262500D01*
X135403965Y-68186498D01*
X135630401Y-67576958D01*
X135606341Y-66927163D01*
X135403965Y-66438582D01*
X135137163Y-66339983D01*
X134164605Y-67312540D01*
X134178748Y-67326682D01*
X133999142Y-67506288D01*
X133985000Y-67492145D01*
X133970858Y-67506288D01*
X133791252Y-67326682D01*
X133805395Y-67312540D01*
X132832837Y-66339983D01*
X132566035Y-66438582D01*
X132339599Y-67048122D01*
X132363659Y-67697917D01*
X132566035Y-68186498D01*
X132771691Y-68262500D01*
X131534375Y-68262500D01*
X131559846Y-68237073D01*
X131809206Y-67636547D01*
X131809774Y-66986306D01*
X131561462Y-66385345D01*
X131102073Y-65925154D01*
X130501547Y-65675794D01*
X129851306Y-65675226D01*
X129250345Y-65923538D01*
X128790154Y-66382927D01*
X128540794Y-66983453D01*
X128540226Y-67633694D01*
X128011930Y-67633694D01*
X128011930Y-66313050D01*
X127967652Y-66077733D01*
X127828580Y-65861609D01*
X127616380Y-65716619D01*
X127364490Y-65665610D01*
X127317500Y-65665610D01*
X127317500Y-65493666D01*
X127749846Y-65062073D01*
X127999206Y-64461547D01*
X127999774Y-63811306D01*
X127751462Y-63210345D01*
X127292073Y-62750154D01*
X126803568Y-62547309D01*
X127289655Y-62346462D01*
X127749846Y-61887073D01*
X127999206Y-61286547D01*
X127999774Y-60636306D01*
X127751462Y-60035345D01*
X127292073Y-59575154D01*
X126691547Y-59325794D01*
X126041306Y-59325226D01*
X125440345Y-59573538D01*
X125005625Y-60007500D01*
X124777500Y-60007500D01*
X124777500Y-58882533D01*
X124868168Y-58920182D01*
X125319850Y-58920576D01*
X125737301Y-58748089D01*
X126056967Y-58428981D01*
X126230182Y-58011832D01*
X126230497Y-57650263D01*
X126589850Y-57650576D01*
X127007301Y-57478089D01*
X127326967Y-57158981D01*
X127500182Y-56741832D01*
X127500576Y-56290150D01*
X127328089Y-55872699D01*
X127317500Y-55862091D01*
X127317500Y-54063666D01*
X127749846Y-53632073D01*
X127999206Y-53031547D01*
X127999774Y-52381306D01*
X127751462Y-51780345D01*
X127723666Y-51752500D01*
X128636694Y-51752500D01*
X128540794Y-51983453D01*
G36*
X114786035Y-51831042D02*
X114559599Y-52440582D01*
X114583659Y-53090377D01*
X114786035Y-53578958D01*
X115052837Y-53677557D01*
X116025395Y-52705000D01*
X116011252Y-52690858D01*
X116190858Y-52511252D01*
X116205000Y-52525395D01*
X116219142Y-52511252D01*
X116398748Y-52690858D01*
X116384605Y-52705000D01*
X117357163Y-53677557D01*
X117623965Y-53578958D01*
X117850401Y-52969418D01*
X117826341Y-52319623D01*
X117623965Y-51831042D01*
X117411436Y-51752500D01*
X125005625Y-51752500D01*
X124980154Y-51777927D01*
X124730794Y-52378453D01*
X124730226Y-53028694D01*
X124978538Y-53629655D01*
X125412500Y-54064375D01*
X125412500Y-55861569D01*
X125403033Y-55871019D01*
X125229818Y-56288168D01*
X125229503Y-56649737D01*
X124960263Y-56649503D01*
X124960576Y-56290150D01*
X124788089Y-55872699D01*
X124773051Y-55857635D01*
X124704995Y-55515494D01*
X124498519Y-55206481D01*
X124189506Y-55000005D01*
X123825000Y-54927500D01*
X118128431Y-54927500D01*
X118118981Y-54918033D01*
X117701832Y-54744818D01*
X117250150Y-54744424D01*
X116832699Y-54916911D01*
X116513033Y-55236019D01*
X116339818Y-55653168D01*
X116339503Y-56014737D01*
X115980150Y-56014424D01*
X115562699Y-56186911D01*
X115243033Y-56506019D01*
X115069818Y-56923168D01*
X115069424Y-57374850D01*
X115241911Y-57792301D01*
X115252500Y-57802909D01*
X115252500Y-58102500D01*
X113347500Y-58102500D01*
X113347500Y-53857163D01*
X115232443Y-53857163D01*
X115331042Y-54123965D01*
X115940582Y-54350401D01*
X116590377Y-54326341D01*
X117078958Y-54123965D01*
X117177557Y-53857163D01*
X116205000Y-52884605D01*
X115232443Y-53857163D01*
X113347500Y-53857163D01*
X113347500Y-53668666D01*
X113779846Y-53237073D01*
X114029206Y-52636547D01*
X114029774Y-51986306D01*
X113933167Y-51752500D01*
X114998564Y-51752500D01*
X114786035Y-51831042D01*
X114786035Y-51831042D01*
G37*
X114786035Y-51831042D02*
X114559599Y-52440582D01*
X114583659Y-53090377D01*
X114786035Y-53578958D01*
X115052837Y-53677557D01*
X116025395Y-52705000D01*
X116011252Y-52690858D01*
X116190858Y-52511252D01*
X116205000Y-52525395D01*
X116219142Y-52511252D01*
X116398748Y-52690858D01*
X116384605Y-52705000D01*
X117357163Y-53677557D01*
X117623965Y-53578958D01*
X117850401Y-52969418D01*
X117826341Y-52319623D01*
X117623965Y-51831042D01*
X117411436Y-51752500D01*
X125005625Y-51752500D01*
X124980154Y-51777927D01*
X124730794Y-52378453D01*
X124730226Y-53028694D01*
X124978538Y-53629655D01*
X125412500Y-54064375D01*
X125412500Y-55861569D01*
X125403033Y-55871019D01*
X125229818Y-56288168D01*
X125229503Y-56649737D01*
X124960263Y-56649503D01*
X124960576Y-56290150D01*
X124788089Y-55872699D01*
X124773051Y-55857635D01*
X124704995Y-55515494D01*
X124498519Y-55206481D01*
X124189506Y-55000005D01*
X123825000Y-54927500D01*
X118128431Y-54927500D01*
X118118981Y-54918033D01*
X117701832Y-54744818D01*
X117250150Y-54744424D01*
X116832699Y-54916911D01*
X116513033Y-55236019D01*
X116339818Y-55653168D01*
X116339503Y-56014737D01*
X115980150Y-56014424D01*
X115562699Y-56186911D01*
X115243033Y-56506019D01*
X115069818Y-56923168D01*
X115069424Y-57374850D01*
X115241911Y-57792301D01*
X115252500Y-57802909D01*
X115252500Y-58102500D01*
X113347500Y-58102500D01*
X113347500Y-53857163D01*
X115232443Y-53857163D01*
X115331042Y-54123965D01*
X115940582Y-54350401D01*
X116590377Y-54326341D01*
X117078958Y-54123965D01*
X117177557Y-53857163D01*
X116205000Y-52884605D01*
X115232443Y-53857163D01*
X113347500Y-53857163D01*
X113347500Y-53668666D01*
X113779846Y-53237073D01*
X114029206Y-52636547D01*
X114029774Y-51986306D01*
X113933167Y-51752500D01*
X114998564Y-51752500D01*
X114786035Y-51831042D01*
G36*
X107200154Y-51777927D02*
X106950794Y-52378453D01*
X106950226Y-53028694D01*
X107198538Y-53629655D01*
X107632500Y-54064375D01*
X107632500Y-55861569D01*
X107623033Y-55871019D01*
X107449818Y-56288168D01*
X107449503Y-56649737D01*
X107180263Y-56649503D01*
X107180576Y-56290150D01*
X107008089Y-55872699D01*
X106993051Y-55857635D01*
X106924995Y-55515494D01*
X106718519Y-55206481D01*
X106409506Y-55000005D01*
X106045000Y-54927500D01*
X100348431Y-54927500D01*
X100338981Y-54918033D01*
X99921832Y-54744818D01*
X99470150Y-54744424D01*
X99052699Y-54916911D01*
X98733033Y-55236019D01*
X98559818Y-55653168D01*
X98559503Y-56014737D01*
X98200150Y-56014424D01*
X97782699Y-56186911D01*
X97463033Y-56506019D01*
X97289818Y-56923168D01*
X97289424Y-57374850D01*
X97461911Y-57792301D01*
X97472500Y-57802909D01*
X97472500Y-58102500D01*
X96837500Y-58102500D01*
X96837500Y-53857163D01*
X97452443Y-53857163D01*
X97551042Y-54123965D01*
X98160582Y-54350401D01*
X98810377Y-54326341D01*
X99298958Y-54123965D01*
X99397557Y-53857163D01*
X98425000Y-52884605D01*
X97452443Y-53857163D01*
X96837500Y-53857163D01*
X96837500Y-53172077D01*
X97006035Y-53578958D01*
X97272837Y-53677557D01*
X98245395Y-52705000D01*
X98231252Y-52690858D01*
X98410858Y-52511252D01*
X98425000Y-52525395D01*
X98439142Y-52511252D01*
X98618748Y-52690858D01*
X98604605Y-52705000D01*
X99577163Y-53677557D01*
X99843965Y-53578958D01*
X100070401Y-52969418D01*
X100046341Y-52319623D01*
X99843965Y-51831042D01*
X99631436Y-51752500D01*
X107225625Y-51752500D01*
X107200154Y-51777927D01*
X107200154Y-51777927D01*
G37*
X107200154Y-51777927D02*
X106950794Y-52378453D01*
X106950226Y-53028694D01*
X107198538Y-53629655D01*
X107632500Y-54064375D01*
X107632500Y-55861569D01*
X107623033Y-55871019D01*
X107449818Y-56288168D01*
X107449503Y-56649737D01*
X107180263Y-56649503D01*
X107180576Y-56290150D01*
X107008089Y-55872699D01*
X106993051Y-55857635D01*
X106924995Y-55515494D01*
X106718519Y-55206481D01*
X106409506Y-55000005D01*
X106045000Y-54927500D01*
X100348431Y-54927500D01*
X100338981Y-54918033D01*
X99921832Y-54744818D01*
X99470150Y-54744424D01*
X99052699Y-54916911D01*
X98733033Y-55236019D01*
X98559818Y-55653168D01*
X98559503Y-56014737D01*
X98200150Y-56014424D01*
X97782699Y-56186911D01*
X97463033Y-56506019D01*
X97289818Y-56923168D01*
X97289424Y-57374850D01*
X97461911Y-57792301D01*
X97472500Y-57802909D01*
X97472500Y-58102500D01*
X96837500Y-58102500D01*
X96837500Y-53857163D01*
X97452443Y-53857163D01*
X97551042Y-54123965D01*
X98160582Y-54350401D01*
X98810377Y-54326341D01*
X99298958Y-54123965D01*
X99397557Y-53857163D01*
X98425000Y-52884605D01*
X97452443Y-53857163D01*
X96837500Y-53857163D01*
X96837500Y-53172077D01*
X97006035Y-53578958D01*
X97272837Y-53677557D01*
X98245395Y-52705000D01*
X98231252Y-52690858D01*
X98410858Y-52511252D01*
X98425000Y-52525395D01*
X98439142Y-52511252D01*
X98618748Y-52690858D01*
X98604605Y-52705000D01*
X99577163Y-53677557D01*
X99843965Y-53578958D01*
X100070401Y-52969418D01*
X100046341Y-52319623D01*
X99843965Y-51831042D01*
X99631436Y-51752500D01*
X107225625Y-51752500D01*
X107200154Y-51777927D01*
G36*
X132566035Y-51831042D02*
X132339599Y-52440582D01*
X132363659Y-53090377D01*
X132566035Y-53578958D01*
X132832837Y-53677557D01*
X133805395Y-52705000D01*
X133791252Y-52690858D01*
X133970858Y-52511252D01*
X133985000Y-52525395D01*
X133999142Y-52511252D01*
X134178748Y-52690858D01*
X134164605Y-52705000D01*
X135137163Y-53677557D01*
X135403965Y-53578958D01*
X135630401Y-52969418D01*
X135606341Y-52319623D01*
X135403965Y-51831042D01*
X135191436Y-51752500D01*
X142785625Y-51752500D01*
X142760154Y-51777927D01*
X142510794Y-52378453D01*
X142510226Y-53028694D01*
X142758538Y-53629655D01*
X143192500Y-54064375D01*
X143192500Y-55861569D01*
X143183033Y-55871019D01*
X143009818Y-56288168D01*
X143009503Y-56649737D01*
X142740263Y-56649503D01*
X142740576Y-56290150D01*
X142568089Y-55872699D01*
X142553051Y-55857635D01*
X142484995Y-55515494D01*
X142278519Y-55206481D01*
X141969506Y-55000005D01*
X141605000Y-54927500D01*
X135908431Y-54927500D01*
X135898981Y-54918033D01*
X135481832Y-54744818D01*
X135030150Y-54744424D01*
X134612699Y-54916911D01*
X134293033Y-55236019D01*
X134119818Y-55653168D01*
X134119503Y-56014737D01*
X133760150Y-56014424D01*
X133342699Y-56186911D01*
X133023033Y-56506019D01*
X132849818Y-56923168D01*
X132849424Y-57374850D01*
X133021911Y-57792301D01*
X133032500Y-57802909D01*
X133032500Y-58102500D01*
X131127500Y-58102500D01*
X131127500Y-53857163D01*
X133012443Y-53857163D01*
X133111042Y-54123965D01*
X133720582Y-54350401D01*
X134370377Y-54326341D01*
X134858958Y-54123965D01*
X134957557Y-53857163D01*
X133985000Y-52884605D01*
X133012443Y-53857163D01*
X131127500Y-53857163D01*
X131127500Y-53668666D01*
X131559846Y-53237073D01*
X131809206Y-52636547D01*
X131809774Y-51986306D01*
X131713167Y-51752500D01*
X132778564Y-51752500D01*
X132566035Y-51831042D01*
X132566035Y-51831042D01*
G37*
X132566035Y-51831042D02*
X132339599Y-52440582D01*
X132363659Y-53090377D01*
X132566035Y-53578958D01*
X132832837Y-53677557D01*
X133805395Y-52705000D01*
X133791252Y-52690858D01*
X133970858Y-52511252D01*
X133985000Y-52525395D01*
X133999142Y-52511252D01*
X134178748Y-52690858D01*
X134164605Y-52705000D01*
X135137163Y-53677557D01*
X135403965Y-53578958D01*
X135630401Y-52969418D01*
X135606341Y-52319623D01*
X135403965Y-51831042D01*
X135191436Y-51752500D01*
X142785625Y-51752500D01*
X142760154Y-51777927D01*
X142510794Y-52378453D01*
X142510226Y-53028694D01*
X142758538Y-53629655D01*
X143192500Y-54064375D01*
X143192500Y-55861569D01*
X143183033Y-55871019D01*
X143009818Y-56288168D01*
X143009503Y-56649737D01*
X142740263Y-56649503D01*
X142740576Y-56290150D01*
X142568089Y-55872699D01*
X142553051Y-55857635D01*
X142484995Y-55515494D01*
X142278519Y-55206481D01*
X141969506Y-55000005D01*
X141605000Y-54927500D01*
X135908431Y-54927500D01*
X135898981Y-54918033D01*
X135481832Y-54744818D01*
X135030150Y-54744424D01*
X134612699Y-54916911D01*
X134293033Y-55236019D01*
X134119818Y-55653168D01*
X134119503Y-56014737D01*
X133760150Y-56014424D01*
X133342699Y-56186911D01*
X133023033Y-56506019D01*
X132849818Y-56923168D01*
X132849424Y-57374850D01*
X133021911Y-57792301D01*
X133032500Y-57802909D01*
X133032500Y-58102500D01*
X131127500Y-58102500D01*
X131127500Y-53857163D01*
X133012443Y-53857163D01*
X133111042Y-54123965D01*
X133720582Y-54350401D01*
X134370377Y-54326341D01*
X134858958Y-54123965D01*
X134957557Y-53857163D01*
X133985000Y-52884605D01*
X133012443Y-53857163D01*
X131127500Y-53857163D01*
X131127500Y-53668666D01*
X131559846Y-53237073D01*
X131809206Y-52636547D01*
X131809774Y-51986306D01*
X131713167Y-51752500D01*
X132778564Y-51752500D01*
X132566035Y-51831042D01*
G36*
X91960154Y-51777927D02*
X91710794Y-52378453D01*
X91710226Y-53028694D01*
X91958538Y-53629655D01*
X92392500Y-54064375D01*
X92392500Y-55861569D01*
X92383033Y-55871019D01*
X92209818Y-56288168D01*
X92209503Y-56649737D01*
X91940263Y-56649503D01*
X91940576Y-56290150D01*
X91768089Y-55872699D01*
X91753051Y-55857635D01*
X91684995Y-55515494D01*
X91478519Y-55206481D01*
X91169506Y-55000005D01*
X90805000Y-54927500D01*
X85108431Y-54927500D01*
X85098981Y-54918033D01*
X84681832Y-54744818D01*
X84230150Y-54744424D01*
X83812699Y-54916911D01*
X83493033Y-55236019D01*
X83319818Y-55653168D01*
X83319503Y-56014737D01*
X82960150Y-56014424D01*
X82542699Y-56186911D01*
X82232500Y-56496569D01*
X82232500Y-53911436D01*
X82311042Y-54123965D01*
X82920582Y-54350401D01*
X83570377Y-54326341D01*
X84058958Y-54123965D01*
X84157557Y-53857163D01*
X83185000Y-52884605D01*
X83170858Y-52898748D01*
X82991252Y-52719142D01*
X83005395Y-52705000D01*
X82991252Y-52690858D01*
X83170858Y-52511252D01*
X83185000Y-52525395D01*
X83199142Y-52511252D01*
X83378748Y-52690858D01*
X83364605Y-52705000D01*
X84337163Y-53677557D01*
X84603965Y-53578958D01*
X84830401Y-52969418D01*
X84806341Y-52319623D01*
X84603965Y-51831042D01*
X84391436Y-51752500D01*
X91985625Y-51752500D01*
X91960154Y-51777927D01*
X91960154Y-51777927D01*
G37*
X91960154Y-51777927D02*
X91710794Y-52378453D01*
X91710226Y-53028694D01*
X91958538Y-53629655D01*
X92392500Y-54064375D01*
X92392500Y-55861569D01*
X92383033Y-55871019D01*
X92209818Y-56288168D01*
X92209503Y-56649737D01*
X91940263Y-56649503D01*
X91940576Y-56290150D01*
X91768089Y-55872699D01*
X91753051Y-55857635D01*
X91684995Y-55515494D01*
X91478519Y-55206481D01*
X91169506Y-55000005D01*
X90805000Y-54927500D01*
X85108431Y-54927500D01*
X85098981Y-54918033D01*
X84681832Y-54744818D01*
X84230150Y-54744424D01*
X83812699Y-54916911D01*
X83493033Y-55236019D01*
X83319818Y-55653168D01*
X83319503Y-56014737D01*
X82960150Y-56014424D01*
X82542699Y-56186911D01*
X82232500Y-56496569D01*
X82232500Y-53911436D01*
X82311042Y-54123965D01*
X82920582Y-54350401D01*
X83570377Y-54326341D01*
X84058958Y-54123965D01*
X84157557Y-53857163D01*
X83185000Y-52884605D01*
X83170858Y-52898748D01*
X82991252Y-52719142D01*
X83005395Y-52705000D01*
X82991252Y-52690858D01*
X83170858Y-52511252D01*
X83185000Y-52525395D01*
X83199142Y-52511252D01*
X83378748Y-52690858D01*
X83364605Y-52705000D01*
X84337163Y-53677557D01*
X84603965Y-53578958D01*
X84830401Y-52969418D01*
X84806341Y-52319623D01*
X84603965Y-51831042D01*
X84391436Y-51752500D01*
X91985625Y-51752500D01*
X91960154Y-51777927D01*
M02*
