M48
;DRILL file {KiCad 4.0.2+e4-6225~38~ubuntu15.10.1-stable} date Son 24 Jul 2016 14:48:20 CEST
;FORMAT={2:4/ absolute / inch / keep zeros}
FMAT,2
INCH,TZ
T1C0.016
T2C0.024
T3C0.030
T4C0.039
T5C0.040
T6C0.050
T7C0.120
%
G90
G05
M72
T1
X032750Y-019500
X034250Y-028000
X034750Y-022750
X038750Y-019500
X045750Y-019500
X051500Y-030250
X052750Y-019500
X056750Y-045250
X058250Y-038250
X065250Y-027000
X065250Y-033000
X065250Y-038250
T2
X032750Y-022500
X032750Y-042000
X033250Y-022000
X033250Y-041500
X033750Y-022500
X033750Y-042000
X035750Y-022250
X035750Y-041750
X036250Y-022750
X036250Y-042250
X036750Y-022250
X036750Y-041750
X038750Y-022500
X038750Y-042000
X039250Y-022000
X039250Y-041500
X039750Y-022500
X039750Y-042000
X041750Y-022250
X041750Y-041750
X042250Y-022750
X042250Y-042250
X042750Y-022250
X042750Y-041750
X045750Y-022500
X045750Y-042000
X046250Y-022000
X046250Y-041500
X046750Y-022500
X046750Y-042000
X048750Y-022250
X048750Y-041750
X049250Y-022750
X049250Y-042250
X049750Y-022250
X049750Y-041750
X052750Y-022500
X052750Y-042000
X053250Y-022000
X053250Y-041500
X053750Y-022500
X053750Y-042000
X055750Y-022250
X055750Y-041750
X056250Y-022750
X056250Y-042250
X056750Y-022250
X056750Y-041750
X061750Y-030500
X061750Y-036500
X062000Y-027000
X062000Y-028000
X062000Y-033000
X062000Y-034000
X062250Y-030000
X062250Y-031000
X062250Y-036000
X062250Y-037000
X062500Y-027500
X062500Y-033500
T3
X039250Y-031000
X039250Y-033000
X040250Y-029000
X040250Y-035000
X042250Y-028000
X042250Y-036000
X044250Y-028000
X044250Y-036000
X046250Y-029000
X046250Y-035000
X047250Y-031000
X047250Y-033000
X048500Y-031000
X048500Y-033000
X049500Y-029000
X049500Y-035000
X051500Y-028000
X051500Y-036000
X053500Y-028000
X053500Y-036000
X055500Y-029000
X055500Y-035000
X056500Y-031000
X056500Y-033000
T4
X032750Y-020750
X032750Y-024000
X032750Y-025250
X032750Y-037749
X032750Y-039000
X032750Y-040250
X032750Y-043500
X036750Y-020750
X036750Y-024000
X036750Y-025250
X036750Y-026501
X036750Y-039000
X036750Y-040250
X036750Y-043500
X038750Y-020750
X038750Y-024000
X038750Y-025250
X038750Y-037749
X038750Y-039000
X038750Y-040250
X038750Y-043500
X042750Y-020750
X042750Y-024000
X042750Y-025250
X042750Y-026501
X042750Y-039000
X042750Y-040250
X042750Y-043500
X044250Y-020594
X044250Y-026500
X045750Y-020750
X045750Y-024000
X045750Y-025250
X045750Y-037749
X045750Y-039000
X045750Y-040250
X045750Y-043500
X049750Y-020750
X049750Y-024000
X049750Y-025250
X049750Y-026501
X049750Y-039000
X049750Y-040250
X049750Y-043500
X051250Y-020594
X051250Y-026500
X052750Y-020750
X052750Y-024000
X052750Y-025250
X052750Y-037749
X052750Y-039000
X052750Y-040250
X052750Y-043500
X056750Y-020750
X056750Y-024000
X056750Y-025250
X056750Y-026501
X056750Y-039000
X056750Y-040250
X056750Y-043500
X057999Y-037000
X058249Y-031000
X059250Y-027000
X059250Y-031000
X059250Y-033000
X059250Y-037000
X060500Y-027000
X060500Y-031000
X060500Y-033000
X060500Y-037000
X063750Y-027000
X063750Y-031000
X063750Y-033000
X063750Y-037000
T5
X030250Y-028500
X030250Y-029500
X030250Y-030500
X030250Y-031500
X030250Y-032500
X030250Y-033500
X030250Y-034500
X030250Y-035500
X058250Y-024500
X058250Y-039750
X059250Y-024500
X059250Y-039750
T6
X032750Y-026501
X036750Y-037749
X038750Y-026501
X042750Y-037749
X045750Y-026501
X049750Y-037749
X052750Y-026501
X056750Y-037749
X057999Y-033000
X058249Y-027000
T7
X028750Y-022500
X028750Y-043500
X062500Y-022500
X062500Y-043500
T0
M30
